%TF.GenerationSoftware,KiCad,Pcbnew,10.0.5*%
%TF.CreationDate,2026-08-22T00:35:31-04:00*%
%TF.ProjectId,supercart,73757065-7263-4617-9274-2e6b69636164,rev?*%
%TF.SameCoordinates,Original*%
%TF.FileFunction,Copper,L2,Bot*%
%TF.FilePolarity,Positive*%
%FSLAX46Y46*%
G04 Gerber Fmt 4.6, Leading zero omitted, Abs format (unit mm)*
G04 Created by KiCad (PCBNEW 10.0.5) date 2026-08-22 00:35:31*
%MOMM*%
%LPD*%
G01*
G04 APERTURE LIST*
%TA.AperFunction,SMDPad,CuDef*%
%ADD10R,1.500000X9.000000*%
%TD*%
%TA.AperFunction,ViaPad*%
%ADD11C,0.600000*%
%TD*%
%TA.AperFunction,Conductor*%
%ADD12C,0.400000*%
%TD*%
G04 APERTURE END LIST*
D10*
%TO.P,J1,1*%
%TO.N,GND*%
X2330000Y-55000000D03*
%TO.P,J1,2*%
%TO.N,VCC*%
X4870000Y-55000000D03*
%TO.P,J1,3*%
X7410000Y-55000000D03*
%TO.P,J1,4*%
%TO.N,N/C*%
X9950000Y-55000000D03*
%TO.P,J1,5*%
%TO.N,RW*%
X12490000Y-55000000D03*
%TO.P,J1,6*%
%TO.N,N/C*%
X15030000Y-55000000D03*
%TO.P,J1,7*%
%TO.N,IO1_N*%
X17570000Y-55000000D03*
%TO.P,J1,8*%
%TO.N,VCC*%
X20110000Y-55000000D03*
%TO.P,J1,9*%
%TO.N,GND*%
X22650000Y-55000000D03*
%TO.P,J1,10*%
%TO.N,N/C*%
X25190000Y-55000000D03*
%TO.P,J1,11*%
%TO.N,ROML_N*%
X27730000Y-55000000D03*
%TO.P,J1,12*%
%TO.N,N/C*%
X30270000Y-55000000D03*
%TO.P,J1,13*%
X32810000Y-55000000D03*
%TO.P,J1,14*%
%TO.N,D7*%
X35350000Y-55000000D03*
%TO.P,J1,15*%
%TO.N,D6*%
X37890000Y-55000000D03*
%TO.P,J1,16*%
%TO.N,D5*%
X40430000Y-55000000D03*
%TO.P,J1,17*%
%TO.N,D4*%
X42970000Y-55000000D03*
%TO.P,J1,18*%
%TO.N,D3*%
X45510000Y-55000000D03*
%TO.P,J1,19*%
%TO.N,D2*%
X48050000Y-55000000D03*
%TO.P,J1,20*%
%TO.N,D1*%
X50590000Y-55000000D03*
%TO.P,J1,21*%
%TO.N,D0*%
X53130000Y-55000000D03*
%TO.P,J1,22*%
%TO.N,GND*%
X55670000Y-55000000D03*
%TD*%
D11*
%TO.N,GND*%
X50946300Y-17043700D03*
X34852000Y-41777400D03*
X54400000Y-52549100D03*
X3441300Y-50098300D03*
X37757800Y-27362800D03*
%TO.N,VCC*%
X23415000Y-31538500D03*
X44859800Y-31951100D03*
X50085000Y-31951100D03*
X15939400Y-31541700D03*
X9950000Y-33638800D03*
X6415000Y-50025600D03*
X34765800Y-31540100D03*
%TO.N,RW*%
X4819500Y-34581000D03*
X10552200Y-49074100D03*
X10552200Y-34581000D03*
%TO.N,IO1_N*%
X13746300Y-50465600D03*
X14824800Y-29749900D03*
X7728100Y-29749900D03*
%TO.N,ROML_N*%
X28944700Y-43034900D03*
%TO.N,D7*%
X36620000Y-50415800D03*
X36027800Y-34934500D03*
X12913500Y-34934500D03*
%TO.N,D6*%
X10221500Y-26666000D03*
X39160000Y-55000000D03*
X40600700Y-31200800D03*
%TO.N,D5*%
X7811900Y-19182400D03*
X42378000Y-17089100D03*
X39634400Y-49787500D03*
%TO.N,D4*%
X8149500Y-18229300D03*
X46977400Y-22425100D03*
X42551900Y-48763700D03*
%TO.N,D3*%
X48628300Y-20425700D03*
X8044300Y-15844800D03*
X44240000Y-55000000D03*
X48884200Y-14875100D03*
%TO.N,D2*%
X48538600Y-49588900D03*
X46600100Y-16589600D03*
X46275000Y-12919600D03*
X7710600Y-14815700D03*
%TO.N,D1*%
X7819600Y-13931800D03*
X45275300Y-11746600D03*
X30400000Y-13829700D03*
X30701000Y-46809700D03*
%TO.N,D0*%
X7837300Y-13126000D03*
X51860000Y-50415800D03*
X43786400Y-11895600D03*
%TO.N,RESET_N*%
X17534700Y-35733000D03*
X7410000Y-35733000D03*
%TO.N,A12*%
X22650000Y-46665700D03*
X25955000Y-38498500D03*
%TO.N,A6*%
X23782500Y-35869300D03*
X36744900Y-35869300D03*
%TO.N,BANK0*%
X27365200Y-29904000D03*
X15886200Y-27926300D03*
%TO.N,BANK1*%
X17216800Y-23973400D03*
X29004100Y-23872600D03*
%TO.N,BANK2*%
X17141800Y-21805700D03*
X29765000Y-21804100D03*
%TO.N,BANK3*%
X17114100Y-20687500D03*
X31035000Y-20687500D03*
%TO.N,BANK4*%
X32305000Y-19985800D03*
X17606600Y-19985800D03*
%TO.N,BANK5*%
X33575000Y-18847100D03*
X17017200Y-18847100D03*
%TO.N,BANK6*%
X34303000Y-17906300D03*
X17079100Y-17906300D03*
%TO.N,FLASH_OE_N*%
X17818800Y-17204600D03*
X42389600Y-17900200D03*
%TO.N,FLASH_WE_N*%
X41195000Y-23159900D03*
X17744700Y-23271700D03*
X41195000Y-28412300D03*
X47662500Y-29032600D03*
%TD*%
%TO.N,GND*%
D12*
X22583400Y-48272000D02*
X29078000Y-41777400D01*
X22650000Y-48338600D02*
X22650000Y-55000000D01*
X55670000Y-52549100D02*
X54400000Y-52549100D01*
X50946300Y-17043700D02*
X50946300Y-19495100D01*
X34852000Y-41777400D02*
X47349100Y-41777400D01*
X22583400Y-48272000D02*
X22650000Y-48338600D01*
X50946300Y-19495100D02*
X43078600Y-27362800D01*
X2330000Y-55000000D02*
X2330000Y-50098300D01*
X55670000Y-52549100D02*
X55670000Y-50098300D01*
X55670000Y-55000000D02*
X55670000Y-52549100D01*
X29078000Y-41777400D02*
X34852000Y-41777400D01*
X22017700Y-47706300D02*
X22583400Y-48272000D01*
X2330000Y-50098300D02*
X3441300Y-50098300D01*
X47349100Y-41777400D02*
X55670000Y-50098300D01*
X3441300Y-50098300D02*
X5833300Y-47706300D01*
X5833300Y-47706300D02*
X22017700Y-47706300D01*
X43078600Y-27362800D02*
X37757800Y-27362800D01*
%TO.N,VCC*%
X23413400Y-31541700D02*
X23415000Y-31540100D01*
X18384000Y-48372300D02*
X20110000Y-50098300D01*
X15939400Y-31541700D02*
X23413400Y-31541700D01*
X7410000Y-50098300D02*
X9136000Y-48372300D01*
X7410000Y-50249100D02*
X7410000Y-50098300D01*
X6415000Y-50098300D02*
X7410000Y-50098300D01*
X9136000Y-48372300D02*
X18384000Y-48372300D01*
X23415000Y-31540100D02*
X23415000Y-31538500D01*
X23415000Y-31540100D02*
X34765800Y-31540100D01*
X34765800Y-31540100D02*
X35176800Y-31951100D01*
X7410000Y-55000000D02*
X7410000Y-50249100D01*
X20110000Y-55000000D02*
X20110000Y-50098300D01*
X4870000Y-55000000D02*
X4870000Y-50098300D01*
X12047100Y-31541700D02*
X9950000Y-33638800D01*
X6415000Y-50025600D02*
X6415000Y-50098300D01*
X15939400Y-31541700D02*
X12047100Y-31541700D01*
X4870000Y-50098300D02*
X6415000Y-50098300D01*
X35176800Y-31951100D02*
X44859800Y-31951100D01*
X44859800Y-31951100D02*
X50085000Y-31951100D01*
%TO.N,RW*%
X12490000Y-50098300D02*
X11576400Y-50098300D01*
X11576400Y-50098300D02*
X10552200Y-49074100D01*
X4819500Y-34581000D02*
X10552200Y-34581000D01*
X12490000Y-55000000D02*
X12490000Y-50098300D01*
%TO.N,IO1_N*%
X7728100Y-29749900D02*
X14824800Y-29749900D01*
X14113600Y-50098300D02*
X17570000Y-50098300D01*
X13746300Y-50465600D02*
X14113600Y-50098300D01*
X17570000Y-55000000D02*
X17570000Y-50098300D01*
%TO.N,ROML_N*%
X27730000Y-50098300D02*
X28944700Y-48883600D01*
X28944700Y-48883600D02*
X28944700Y-43034900D01*
X27730000Y-55000000D02*
X27730000Y-50098300D01*
%TO.N,D7*%
X36302500Y-50098300D02*
X36620000Y-50415800D01*
X35350000Y-50098300D02*
X36302500Y-50098300D01*
X35350000Y-55000000D02*
X35350000Y-50098300D01*
X36027800Y-34934500D02*
X12913500Y-34934500D01*
%TO.N,D6*%
X36757800Y-31200800D02*
X32223000Y-26666000D01*
X37890000Y-55000000D02*
X39160000Y-55000000D01*
X40600700Y-31200800D02*
X36757800Y-31200800D01*
X32223000Y-26666000D02*
X10221500Y-26666000D01*
%TO.N,D5*%
X8910700Y-16464500D02*
X41753400Y-16464500D01*
X40430000Y-55000000D02*
X40430000Y-50098300D01*
X7811900Y-19182400D02*
X7430500Y-18801000D01*
X7430500Y-18801000D02*
X7430500Y-17944700D01*
X7430500Y-17944700D02*
X8910700Y-16464500D01*
X39945200Y-50098300D02*
X39634400Y-49787500D01*
X41753400Y-16464500D02*
X42378000Y-17089100D01*
X40430000Y-50098300D02*
X39945200Y-50098300D01*
%TO.N,D4*%
X42970000Y-55000000D02*
X42970000Y-49181800D01*
X8149500Y-18229300D02*
X12515400Y-22595200D01*
X35757200Y-22505900D02*
X35838000Y-22425100D01*
X35838000Y-22425100D02*
X46977400Y-22425100D01*
X17366700Y-22595200D02*
X17456000Y-22505900D01*
X12515400Y-22595200D02*
X17366700Y-22595200D01*
X17456000Y-22505900D02*
X35757200Y-22505900D01*
X42970000Y-49181800D02*
X42551900Y-48763700D01*
%TO.N,D3*%
X44268600Y-15844800D02*
X45715100Y-17291300D01*
X45510000Y-55000000D02*
X44240000Y-55000000D01*
X48628300Y-15131000D02*
X48628300Y-17291300D01*
X45715100Y-17291300D02*
X48628300Y-17291300D01*
X48884200Y-14875100D02*
X48628300Y-15131000D01*
X48628300Y-17291300D02*
X48628300Y-20425700D01*
X8044300Y-15844800D02*
X44268600Y-15844800D01*
%TO.N,D2*%
X48538600Y-49588900D02*
X48050000Y-50077500D01*
X45297900Y-14815700D02*
X46600100Y-16117900D01*
X45297900Y-14815700D02*
X45297900Y-13896700D01*
X46600100Y-16117900D02*
X46600100Y-16589600D01*
X7710600Y-14815700D02*
X45297900Y-14815700D01*
X45297900Y-13896700D02*
X46275000Y-12919600D01*
X48050000Y-50077500D02*
X48050000Y-55000000D01*
%TO.N,D1*%
X43192200Y-13829700D02*
X45275300Y-11746600D01*
X50590000Y-50098300D02*
X47301400Y-46809700D01*
X30400000Y-13829700D02*
X30297900Y-13931800D01*
X30297900Y-13931800D02*
X7819600Y-13931800D01*
X30400000Y-13829700D02*
X43192200Y-13829700D01*
X50590000Y-55000000D02*
X50590000Y-50098300D01*
X47301400Y-46809700D02*
X30701000Y-46809700D01*
%TO.N,D0*%
X53130000Y-55000000D02*
X53130000Y-50098300D01*
X43786400Y-11895600D02*
X9067700Y-11895600D01*
X9067700Y-11895600D02*
X7837300Y-13126000D01*
X52177500Y-50098300D02*
X51860000Y-50415800D01*
X53130000Y-50098300D02*
X52177500Y-50098300D01*
%TO.N,RESET_N*%
X7410000Y-35733000D02*
X17534700Y-35733000D01*
%TO.N,A12*%
X22650000Y-41803500D02*
X25955000Y-38498500D01*
X22650000Y-46665700D02*
X22650000Y-41803500D01*
%TO.N,A6*%
X23782500Y-35869300D02*
X36744900Y-35869300D01*
%TO.N,BANK0*%
X27365200Y-29904000D02*
X17863900Y-29904000D01*
X17863900Y-29904000D02*
X15886200Y-27926300D01*
%TO.N,BANK1*%
X28903300Y-23973400D02*
X17216800Y-23973400D01*
X29004100Y-23872600D02*
X28903300Y-23973400D01*
%TO.N,BANK2*%
X29763400Y-21805700D02*
X17141800Y-21805700D01*
X29765000Y-21804100D02*
X29763400Y-21805700D01*
%TO.N,BANK3*%
X31035000Y-20687500D02*
X17114100Y-20687500D01*
%TO.N,BANK4*%
X32305000Y-19985800D02*
X17606600Y-19985800D01*
%TO.N,BANK5*%
X17017200Y-18847100D02*
X33575000Y-18847100D01*
%TO.N,BANK6*%
X17079100Y-17906300D02*
X34303000Y-17906300D01*
%TO.N,FLASH_OE_N*%
X38621000Y-17204600D02*
X39316600Y-17900200D01*
X39316600Y-17900200D02*
X42389600Y-17900200D01*
X17818800Y-17204600D02*
X38621000Y-17204600D01*
%TO.N,FLASH_WE_N*%
X41195000Y-23159900D02*
X17856500Y-23159900D01*
X17856500Y-23159900D02*
X17744700Y-23271700D01*
X47662500Y-29032600D02*
X41815300Y-29032600D01*
X41815300Y-29032600D02*
X41195000Y-28412300D01*
%TD*%
M02*
