%TF.GenerationSoftware,KiCad,Pcbnew,10.0.5*%
%TF.CreationDate,2026-08-23T17:15:05-04:00*%
%TF.ProjectId,supercart,73757065-7263-4617-9274-2e6b69636164,rev?*%
%TF.SameCoordinates,Original*%
%TF.FileFunction,Legend,Top*%
%TF.FilePolarity,Positive*%
%FSLAX46Y46*%
G04 Gerber Fmt 4.6, Leading zero omitted, Abs format (unit mm)*
G04 Created by KiCad (PCBNEW 10.0.5) date 2026-08-23 17:15:05*
%MOMM*%
%LPD*%
G01*
G04 APERTURE LIST*
%ADD10C,0.125000*%
%ADD11C,0.158750*%
%ADD12C,0.120000*%
G04 APERTURE END LIST*
D10*
X22357143Y-3908500D02*
X22500000Y-3956119D01*
X22500000Y-3956119D02*
X22738095Y-3956119D01*
X22738095Y-3956119D02*
X22833333Y-3908500D01*
X22833333Y-3908500D02*
X22880952Y-3860880D01*
X22880952Y-3860880D02*
X22928571Y-3765642D01*
X22928571Y-3765642D02*
X22928571Y-3670404D01*
X22928571Y-3670404D02*
X22880952Y-3575166D01*
X22880952Y-3575166D02*
X22833333Y-3527547D01*
X22833333Y-3527547D02*
X22738095Y-3479928D01*
X22738095Y-3479928D02*
X22547619Y-3432309D01*
X22547619Y-3432309D02*
X22452381Y-3384690D01*
X22452381Y-3384690D02*
X22404762Y-3337071D01*
X22404762Y-3337071D02*
X22357143Y-3241833D01*
X22357143Y-3241833D02*
X22357143Y-3146595D01*
X22357143Y-3146595D02*
X22404762Y-3051357D01*
X22404762Y-3051357D02*
X22452381Y-3003738D01*
X22452381Y-3003738D02*
X22547619Y-2956119D01*
X22547619Y-2956119D02*
X22785714Y-2956119D01*
X22785714Y-2956119D02*
X22928571Y-3003738D01*
X23357143Y-2956119D02*
X23357143Y-3765642D01*
X23357143Y-3765642D02*
X23404762Y-3860880D01*
X23404762Y-3860880D02*
X23452381Y-3908500D01*
X23452381Y-3908500D02*
X23547619Y-3956119D01*
X23547619Y-3956119D02*
X23738095Y-3956119D01*
X23738095Y-3956119D02*
X23833333Y-3908500D01*
X23833333Y-3908500D02*
X23880952Y-3860880D01*
X23880952Y-3860880D02*
X23928571Y-3765642D01*
X23928571Y-3765642D02*
X23928571Y-2956119D01*
X24404762Y-3956119D02*
X24404762Y-2956119D01*
X24404762Y-2956119D02*
X24785714Y-2956119D01*
X24785714Y-2956119D02*
X24880952Y-3003738D01*
X24880952Y-3003738D02*
X24928571Y-3051357D01*
X24928571Y-3051357D02*
X24976190Y-3146595D01*
X24976190Y-3146595D02*
X24976190Y-3289452D01*
X24976190Y-3289452D02*
X24928571Y-3384690D01*
X24928571Y-3384690D02*
X24880952Y-3432309D01*
X24880952Y-3432309D02*
X24785714Y-3479928D01*
X24785714Y-3479928D02*
X24404762Y-3479928D01*
X25404762Y-3432309D02*
X25738095Y-3432309D01*
X25880952Y-3956119D02*
X25404762Y-3956119D01*
X25404762Y-3956119D02*
X25404762Y-2956119D01*
X25404762Y-2956119D02*
X25880952Y-2956119D01*
X26880952Y-3956119D02*
X26547619Y-3479928D01*
X26309524Y-3956119D02*
X26309524Y-2956119D01*
X26309524Y-2956119D02*
X26690476Y-2956119D01*
X26690476Y-2956119D02*
X26785714Y-3003738D01*
X26785714Y-3003738D02*
X26833333Y-3051357D01*
X26833333Y-3051357D02*
X26880952Y-3146595D01*
X26880952Y-3146595D02*
X26880952Y-3289452D01*
X26880952Y-3289452D02*
X26833333Y-3384690D01*
X26833333Y-3384690D02*
X26785714Y-3432309D01*
X26785714Y-3432309D02*
X26690476Y-3479928D01*
X26690476Y-3479928D02*
X26309524Y-3479928D01*
X28642857Y-3860880D02*
X28595238Y-3908500D01*
X28595238Y-3908500D02*
X28452381Y-3956119D01*
X28452381Y-3956119D02*
X28357143Y-3956119D01*
X28357143Y-3956119D02*
X28214286Y-3908500D01*
X28214286Y-3908500D02*
X28119048Y-3813261D01*
X28119048Y-3813261D02*
X28071429Y-3718023D01*
X28071429Y-3718023D02*
X28023810Y-3527547D01*
X28023810Y-3527547D02*
X28023810Y-3384690D01*
X28023810Y-3384690D02*
X28071429Y-3194214D01*
X28071429Y-3194214D02*
X28119048Y-3098976D01*
X28119048Y-3098976D02*
X28214286Y-3003738D01*
X28214286Y-3003738D02*
X28357143Y-2956119D01*
X28357143Y-2956119D02*
X28452381Y-2956119D01*
X28452381Y-2956119D02*
X28595238Y-3003738D01*
X28595238Y-3003738D02*
X28642857Y-3051357D01*
X29023810Y-3670404D02*
X29500000Y-3670404D01*
X28928572Y-3956119D02*
X29261905Y-2956119D01*
X29261905Y-2956119D02*
X29595238Y-3956119D01*
X30500000Y-3956119D02*
X30166667Y-3479928D01*
X29928572Y-3956119D02*
X29928572Y-2956119D01*
X29928572Y-2956119D02*
X30309524Y-2956119D01*
X30309524Y-2956119D02*
X30404762Y-3003738D01*
X30404762Y-3003738D02*
X30452381Y-3051357D01*
X30452381Y-3051357D02*
X30500000Y-3146595D01*
X30500000Y-3146595D02*
X30500000Y-3289452D01*
X30500000Y-3289452D02*
X30452381Y-3384690D01*
X30452381Y-3384690D02*
X30404762Y-3432309D01*
X30404762Y-3432309D02*
X30309524Y-3479928D01*
X30309524Y-3479928D02*
X29928572Y-3479928D01*
X30785715Y-2956119D02*
X31357143Y-2956119D01*
X31071429Y-3956119D02*
X31071429Y-2956119D01*
X32261905Y-3956119D02*
X31928572Y-3479928D01*
X31690477Y-3956119D02*
X31690477Y-2956119D01*
X31690477Y-2956119D02*
X32071429Y-2956119D01*
X32071429Y-2956119D02*
X32166667Y-3003738D01*
X32166667Y-3003738D02*
X32214286Y-3051357D01*
X32214286Y-3051357D02*
X32261905Y-3146595D01*
X32261905Y-3146595D02*
X32261905Y-3289452D01*
X32261905Y-3289452D02*
X32214286Y-3384690D01*
X32214286Y-3384690D02*
X32166667Y-3432309D01*
X32166667Y-3432309D02*
X32071429Y-3479928D01*
X32071429Y-3479928D02*
X31690477Y-3479928D01*
X32690477Y-3956119D02*
X32690477Y-2956119D01*
X33166667Y-3956119D02*
X33166667Y-2956119D01*
X33166667Y-2956119D02*
X33404762Y-2956119D01*
X33404762Y-2956119D02*
X33547619Y-3003738D01*
X33547619Y-3003738D02*
X33642857Y-3098976D01*
X33642857Y-3098976D02*
X33690476Y-3194214D01*
X33690476Y-3194214D02*
X33738095Y-3384690D01*
X33738095Y-3384690D02*
X33738095Y-3527547D01*
X33738095Y-3527547D02*
X33690476Y-3718023D01*
X33690476Y-3718023D02*
X33642857Y-3813261D01*
X33642857Y-3813261D02*
X33547619Y-3908500D01*
X33547619Y-3908500D02*
X33404762Y-3956119D01*
X33404762Y-3956119D02*
X33166667Y-3956119D01*
X34690476Y-3003738D02*
X34595238Y-2956119D01*
X34595238Y-2956119D02*
X34452381Y-2956119D01*
X34452381Y-2956119D02*
X34309524Y-3003738D01*
X34309524Y-3003738D02*
X34214286Y-3098976D01*
X34214286Y-3098976D02*
X34166667Y-3194214D01*
X34166667Y-3194214D02*
X34119048Y-3384690D01*
X34119048Y-3384690D02*
X34119048Y-3527547D01*
X34119048Y-3527547D02*
X34166667Y-3718023D01*
X34166667Y-3718023D02*
X34214286Y-3813261D01*
X34214286Y-3813261D02*
X34309524Y-3908500D01*
X34309524Y-3908500D02*
X34452381Y-3956119D01*
X34452381Y-3956119D02*
X34547619Y-3956119D01*
X34547619Y-3956119D02*
X34690476Y-3908500D01*
X34690476Y-3908500D02*
X34738095Y-3860880D01*
X34738095Y-3860880D02*
X34738095Y-3527547D01*
X34738095Y-3527547D02*
X34547619Y-3527547D01*
X35166667Y-3432309D02*
X35500000Y-3432309D01*
X35642857Y-3956119D02*
X35166667Y-3956119D01*
X35166667Y-3956119D02*
X35166667Y-2956119D01*
X35166667Y-2956119D02*
X35642857Y-2956119D01*
X15976189Y-6670404D02*
X16452379Y-6670404D01*
X15880951Y-6956119D02*
X16214284Y-5956119D01*
X16214284Y-5956119D02*
X16547617Y-6956119D01*
X16738094Y-5956119D02*
X17309522Y-5956119D01*
X17023808Y-6956119D02*
X17023808Y-5956119D01*
X17976189Y-6432309D02*
X17642856Y-6432309D01*
X17642856Y-6956119D02*
X17642856Y-5956119D01*
X17642856Y-5956119D02*
X18119046Y-5956119D01*
X18452380Y-6051357D02*
X18499999Y-6003738D01*
X18499999Y-6003738D02*
X18595237Y-5956119D01*
X18595237Y-5956119D02*
X18833332Y-5956119D01*
X18833332Y-5956119D02*
X18928570Y-6003738D01*
X18928570Y-6003738D02*
X18976189Y-6051357D01*
X18976189Y-6051357D02*
X19023808Y-6146595D01*
X19023808Y-6146595D02*
X19023808Y-6241833D01*
X19023808Y-6241833D02*
X18976189Y-6384690D01*
X18976189Y-6384690D02*
X18404761Y-6956119D01*
X18404761Y-6956119D02*
X19023808Y-6956119D01*
X19404761Y-6051357D02*
X19452380Y-6003738D01*
X19452380Y-6003738D02*
X19547618Y-5956119D01*
X19547618Y-5956119D02*
X19785713Y-5956119D01*
X19785713Y-5956119D02*
X19880951Y-6003738D01*
X19880951Y-6003738D02*
X19928570Y-6051357D01*
X19928570Y-6051357D02*
X19976189Y-6146595D01*
X19976189Y-6146595D02*
X19976189Y-6241833D01*
X19976189Y-6241833D02*
X19928570Y-6384690D01*
X19928570Y-6384690D02*
X19357142Y-6956119D01*
X19357142Y-6956119D02*
X19976189Y-6956119D01*
X20261904Y-5956119D02*
X20595237Y-6956119D01*
X20595237Y-6956119D02*
X20928570Y-5956119D01*
X21785713Y-6956119D02*
X21214285Y-6956119D01*
X21499999Y-6956119D02*
X21499999Y-5956119D01*
X21499999Y-5956119D02*
X21404761Y-6098976D01*
X21404761Y-6098976D02*
X21309523Y-6194214D01*
X21309523Y-6194214D02*
X21214285Y-6241833D01*
X22404761Y-5956119D02*
X22499999Y-5956119D01*
X22499999Y-5956119D02*
X22595237Y-6003738D01*
X22595237Y-6003738D02*
X22642856Y-6051357D01*
X22642856Y-6051357D02*
X22690475Y-6146595D01*
X22690475Y-6146595D02*
X22738094Y-6337071D01*
X22738094Y-6337071D02*
X22738094Y-6575166D01*
X22738094Y-6575166D02*
X22690475Y-6765642D01*
X22690475Y-6765642D02*
X22642856Y-6860880D01*
X22642856Y-6860880D02*
X22595237Y-6908500D01*
X22595237Y-6908500D02*
X22499999Y-6956119D01*
X22499999Y-6956119D02*
X22404761Y-6956119D01*
X22404761Y-6956119D02*
X22309523Y-6908500D01*
X22309523Y-6908500D02*
X22261904Y-6860880D01*
X22261904Y-6860880D02*
X22214285Y-6765642D01*
X22214285Y-6765642D02*
X22166666Y-6575166D01*
X22166666Y-6575166D02*
X22166666Y-6337071D01*
X22166666Y-6337071D02*
X22214285Y-6146595D01*
X22214285Y-6146595D02*
X22261904Y-6051357D01*
X22261904Y-6051357D02*
X22309523Y-6003738D01*
X22309523Y-6003738D02*
X22404761Y-5956119D01*
X23738094Y-6860880D02*
X23690475Y-6908500D01*
X23690475Y-6908500D02*
X23547618Y-6956119D01*
X23547618Y-6956119D02*
X23452380Y-6956119D01*
X23452380Y-6956119D02*
X23309523Y-6908500D01*
X23309523Y-6908500D02*
X23214285Y-6813261D01*
X23214285Y-6813261D02*
X23166666Y-6718023D01*
X23166666Y-6718023D02*
X23119047Y-6527547D01*
X23119047Y-6527547D02*
X23119047Y-6384690D01*
X23119047Y-6384690D02*
X23166666Y-6194214D01*
X23166666Y-6194214D02*
X23214285Y-6098976D01*
X23214285Y-6098976D02*
X23309523Y-6003738D01*
X23309523Y-6003738D02*
X23452380Y-5956119D01*
X23452380Y-5956119D02*
X23547618Y-5956119D01*
X23547618Y-5956119D02*
X23690475Y-6003738D01*
X23690475Y-6003738D02*
X23738094Y-6051357D01*
X24928571Y-6575166D02*
X25690476Y-6575166D01*
X25309523Y-6956119D02*
X25309523Y-6194214D01*
X26880952Y-6670404D02*
X27357142Y-6670404D01*
X26785714Y-6956119D02*
X27119047Y-5956119D01*
X27119047Y-5956119D02*
X27452380Y-6956119D01*
X27785714Y-6956119D02*
X27785714Y-5956119D01*
X27785714Y-5956119D02*
X28119047Y-6670404D01*
X28119047Y-6670404D02*
X28452380Y-5956119D01*
X28452380Y-5956119D02*
X28452380Y-6956119D01*
X28880952Y-6051357D02*
X28928571Y-6003738D01*
X28928571Y-6003738D02*
X29023809Y-5956119D01*
X29023809Y-5956119D02*
X29261904Y-5956119D01*
X29261904Y-5956119D02*
X29357142Y-6003738D01*
X29357142Y-6003738D02*
X29404761Y-6051357D01*
X29404761Y-6051357D02*
X29452380Y-6146595D01*
X29452380Y-6146595D02*
X29452380Y-6241833D01*
X29452380Y-6241833D02*
X29404761Y-6384690D01*
X29404761Y-6384690D02*
X28833333Y-6956119D01*
X28833333Y-6956119D02*
X29452380Y-6956119D01*
X29928571Y-6956119D02*
X30119047Y-6956119D01*
X30119047Y-6956119D02*
X30214285Y-6908500D01*
X30214285Y-6908500D02*
X30261904Y-6860880D01*
X30261904Y-6860880D02*
X30357142Y-6718023D01*
X30357142Y-6718023D02*
X30404761Y-6527547D01*
X30404761Y-6527547D02*
X30404761Y-6146595D01*
X30404761Y-6146595D02*
X30357142Y-6051357D01*
X30357142Y-6051357D02*
X30309523Y-6003738D01*
X30309523Y-6003738D02*
X30214285Y-5956119D01*
X30214285Y-5956119D02*
X30023809Y-5956119D01*
X30023809Y-5956119D02*
X29928571Y-6003738D01*
X29928571Y-6003738D02*
X29880952Y-6051357D01*
X29880952Y-6051357D02*
X29833333Y-6146595D01*
X29833333Y-6146595D02*
X29833333Y-6384690D01*
X29833333Y-6384690D02*
X29880952Y-6479928D01*
X29880952Y-6479928D02*
X29928571Y-6527547D01*
X29928571Y-6527547D02*
X30023809Y-6575166D01*
X30023809Y-6575166D02*
X30214285Y-6575166D01*
X30214285Y-6575166D02*
X30309523Y-6527547D01*
X30309523Y-6527547D02*
X30357142Y-6479928D01*
X30357142Y-6479928D02*
X30404761Y-6384690D01*
X31166666Y-6432309D02*
X30833333Y-6432309D01*
X30833333Y-6956119D02*
X30833333Y-5956119D01*
X30833333Y-5956119D02*
X31309523Y-5956119D01*
X31880952Y-5956119D02*
X31976190Y-5956119D01*
X31976190Y-5956119D02*
X32071428Y-6003738D01*
X32071428Y-6003738D02*
X32119047Y-6051357D01*
X32119047Y-6051357D02*
X32166666Y-6146595D01*
X32166666Y-6146595D02*
X32214285Y-6337071D01*
X32214285Y-6337071D02*
X32214285Y-6575166D01*
X32214285Y-6575166D02*
X32166666Y-6765642D01*
X32166666Y-6765642D02*
X32119047Y-6860880D01*
X32119047Y-6860880D02*
X32071428Y-6908500D01*
X32071428Y-6908500D02*
X31976190Y-6956119D01*
X31976190Y-6956119D02*
X31880952Y-6956119D01*
X31880952Y-6956119D02*
X31785714Y-6908500D01*
X31785714Y-6908500D02*
X31738095Y-6860880D01*
X31738095Y-6860880D02*
X31690476Y-6765642D01*
X31690476Y-6765642D02*
X31642857Y-6575166D01*
X31642857Y-6575166D02*
X31642857Y-6337071D01*
X31642857Y-6337071D02*
X31690476Y-6146595D01*
X31690476Y-6146595D02*
X31738095Y-6051357D01*
X31738095Y-6051357D02*
X31785714Y-6003738D01*
X31785714Y-6003738D02*
X31880952Y-5956119D01*
X32785714Y-6384690D02*
X32690476Y-6337071D01*
X32690476Y-6337071D02*
X32642857Y-6289452D01*
X32642857Y-6289452D02*
X32595238Y-6194214D01*
X32595238Y-6194214D02*
X32595238Y-6146595D01*
X32595238Y-6146595D02*
X32642857Y-6051357D01*
X32642857Y-6051357D02*
X32690476Y-6003738D01*
X32690476Y-6003738D02*
X32785714Y-5956119D01*
X32785714Y-5956119D02*
X32976190Y-5956119D01*
X32976190Y-5956119D02*
X33071428Y-6003738D01*
X33071428Y-6003738D02*
X33119047Y-6051357D01*
X33119047Y-6051357D02*
X33166666Y-6146595D01*
X33166666Y-6146595D02*
X33166666Y-6194214D01*
X33166666Y-6194214D02*
X33119047Y-6289452D01*
X33119047Y-6289452D02*
X33071428Y-6337071D01*
X33071428Y-6337071D02*
X32976190Y-6384690D01*
X32976190Y-6384690D02*
X32785714Y-6384690D01*
X32785714Y-6384690D02*
X32690476Y-6432309D01*
X32690476Y-6432309D02*
X32642857Y-6479928D01*
X32642857Y-6479928D02*
X32595238Y-6575166D01*
X32595238Y-6575166D02*
X32595238Y-6765642D01*
X32595238Y-6765642D02*
X32642857Y-6860880D01*
X32642857Y-6860880D02*
X32690476Y-6908500D01*
X32690476Y-6908500D02*
X32785714Y-6956119D01*
X32785714Y-6956119D02*
X32976190Y-6956119D01*
X32976190Y-6956119D02*
X33071428Y-6908500D01*
X33071428Y-6908500D02*
X33119047Y-6860880D01*
X33119047Y-6860880D02*
X33166666Y-6765642D01*
X33166666Y-6765642D02*
X33166666Y-6575166D01*
X33166666Y-6575166D02*
X33119047Y-6479928D01*
X33119047Y-6479928D02*
X33071428Y-6432309D01*
X33071428Y-6432309D02*
X32976190Y-6384690D01*
X33785714Y-5956119D02*
X33880952Y-5956119D01*
X33880952Y-5956119D02*
X33976190Y-6003738D01*
X33976190Y-6003738D02*
X34023809Y-6051357D01*
X34023809Y-6051357D02*
X34071428Y-6146595D01*
X34071428Y-6146595D02*
X34119047Y-6337071D01*
X34119047Y-6337071D02*
X34119047Y-6575166D01*
X34119047Y-6575166D02*
X34071428Y-6765642D01*
X34071428Y-6765642D02*
X34023809Y-6860880D01*
X34023809Y-6860880D02*
X33976190Y-6908500D01*
X33976190Y-6908500D02*
X33880952Y-6956119D01*
X33880952Y-6956119D02*
X33785714Y-6956119D01*
X33785714Y-6956119D02*
X33690476Y-6908500D01*
X33690476Y-6908500D02*
X33642857Y-6860880D01*
X33642857Y-6860880D02*
X33595238Y-6765642D01*
X33595238Y-6765642D02*
X33547619Y-6575166D01*
X33547619Y-6575166D02*
X33547619Y-6337071D01*
X33547619Y-6337071D02*
X33595238Y-6146595D01*
X33595238Y-6146595D02*
X33642857Y-6051357D01*
X33642857Y-6051357D02*
X33690476Y-6003738D01*
X33690476Y-6003738D02*
X33785714Y-5956119D01*
X34880952Y-6432309D02*
X35023809Y-6479928D01*
X35023809Y-6479928D02*
X35071428Y-6527547D01*
X35071428Y-6527547D02*
X35119047Y-6622785D01*
X35119047Y-6622785D02*
X35119047Y-6765642D01*
X35119047Y-6765642D02*
X35071428Y-6860880D01*
X35071428Y-6860880D02*
X35023809Y-6908500D01*
X35023809Y-6908500D02*
X34928571Y-6956119D01*
X34928571Y-6956119D02*
X34547619Y-6956119D01*
X34547619Y-6956119D02*
X34547619Y-5956119D01*
X34547619Y-5956119D02*
X34880952Y-5956119D01*
X34880952Y-5956119D02*
X34976190Y-6003738D01*
X34976190Y-6003738D02*
X35023809Y-6051357D01*
X35023809Y-6051357D02*
X35071428Y-6146595D01*
X35071428Y-6146595D02*
X35071428Y-6241833D01*
X35071428Y-6241833D02*
X35023809Y-6337071D01*
X35023809Y-6337071D02*
X34976190Y-6384690D01*
X34976190Y-6384690D02*
X34880952Y-6432309D01*
X34880952Y-6432309D02*
X34547619Y-6432309D01*
X37071429Y-6956119D02*
X37071429Y-6289452D01*
X37071429Y-6479928D02*
X37119048Y-6384690D01*
X37119048Y-6384690D02*
X37166667Y-6337071D01*
X37166667Y-6337071D02*
X37261905Y-6289452D01*
X37261905Y-6289452D02*
X37357143Y-6289452D01*
X38071429Y-6908500D02*
X37976191Y-6956119D01*
X37976191Y-6956119D02*
X37785715Y-6956119D01*
X37785715Y-6956119D02*
X37690477Y-6908500D01*
X37690477Y-6908500D02*
X37642858Y-6813261D01*
X37642858Y-6813261D02*
X37642858Y-6432309D01*
X37642858Y-6432309D02*
X37690477Y-6337071D01*
X37690477Y-6337071D02*
X37785715Y-6289452D01*
X37785715Y-6289452D02*
X37976191Y-6289452D01*
X37976191Y-6289452D02*
X38071429Y-6337071D01*
X38071429Y-6337071D02*
X38119048Y-6432309D01*
X38119048Y-6432309D02*
X38119048Y-6527547D01*
X38119048Y-6527547D02*
X37642858Y-6622785D01*
X38452382Y-6289452D02*
X38690477Y-6956119D01*
X38690477Y-6956119D02*
X38928572Y-6289452D01*
X40261906Y-5956119D02*
X40357144Y-5956119D01*
X40357144Y-5956119D02*
X40452382Y-6003738D01*
X40452382Y-6003738D02*
X40500001Y-6051357D01*
X40500001Y-6051357D02*
X40547620Y-6146595D01*
X40547620Y-6146595D02*
X40595239Y-6337071D01*
X40595239Y-6337071D02*
X40595239Y-6575166D01*
X40595239Y-6575166D02*
X40547620Y-6765642D01*
X40547620Y-6765642D02*
X40500001Y-6860880D01*
X40500001Y-6860880D02*
X40452382Y-6908500D01*
X40452382Y-6908500D02*
X40357144Y-6956119D01*
X40357144Y-6956119D02*
X40261906Y-6956119D01*
X40261906Y-6956119D02*
X40166668Y-6908500D01*
X40166668Y-6908500D02*
X40119049Y-6860880D01*
X40119049Y-6860880D02*
X40071430Y-6765642D01*
X40071430Y-6765642D02*
X40023811Y-6575166D01*
X40023811Y-6575166D02*
X40023811Y-6337071D01*
X40023811Y-6337071D02*
X40071430Y-6146595D01*
X40071430Y-6146595D02*
X40119049Y-6051357D01*
X40119049Y-6051357D02*
X40166668Y-6003738D01*
X40166668Y-6003738D02*
X40261906Y-5956119D01*
X41023811Y-6860880D02*
X41071430Y-6908500D01*
X41071430Y-6908500D02*
X41023811Y-6956119D01*
X41023811Y-6956119D02*
X40976192Y-6908500D01*
X40976192Y-6908500D02*
X41023811Y-6860880D01*
X41023811Y-6860880D02*
X41023811Y-6956119D01*
X41452382Y-6051357D02*
X41500001Y-6003738D01*
X41500001Y-6003738D02*
X41595239Y-5956119D01*
X41595239Y-5956119D02*
X41833334Y-5956119D01*
X41833334Y-5956119D02*
X41928572Y-6003738D01*
X41928572Y-6003738D02*
X41976191Y-6051357D01*
X41976191Y-6051357D02*
X42023810Y-6146595D01*
X42023810Y-6146595D02*
X42023810Y-6241833D01*
X42023810Y-6241833D02*
X41976191Y-6384690D01*
X41976191Y-6384690D02*
X41404763Y-6956119D01*
X41404763Y-6956119D02*
X42023810Y-6956119D01*
D11*
X36538333Y-33258318D02*
X36477857Y-33318795D01*
X36477857Y-33318795D02*
X36296428Y-33379271D01*
X36296428Y-33379271D02*
X36175476Y-33379271D01*
X36175476Y-33379271D02*
X35994047Y-33318795D01*
X35994047Y-33318795D02*
X35873095Y-33197842D01*
X35873095Y-33197842D02*
X35812618Y-33076890D01*
X35812618Y-33076890D02*
X35752142Y-32834985D01*
X35752142Y-32834985D02*
X35752142Y-32653556D01*
X35752142Y-32653556D02*
X35812618Y-32411652D01*
X35812618Y-32411652D02*
X35873095Y-32290699D01*
X35873095Y-32290699D02*
X35994047Y-32169747D01*
X35994047Y-32169747D02*
X36175476Y-32109271D01*
X36175476Y-32109271D02*
X36296428Y-32109271D01*
X36296428Y-32109271D02*
X36477857Y-32169747D01*
X36477857Y-32169747D02*
X36538333Y-32230223D01*
X37022142Y-32230223D02*
X37082618Y-32169747D01*
X37082618Y-32169747D02*
X37203571Y-32109271D01*
X37203571Y-32109271D02*
X37505952Y-32109271D01*
X37505952Y-32109271D02*
X37626904Y-32169747D01*
X37626904Y-32169747D02*
X37687380Y-32230223D01*
X37687380Y-32230223D02*
X37747857Y-32351175D01*
X37747857Y-32351175D02*
X37747857Y-32472128D01*
X37747857Y-32472128D02*
X37687380Y-32653556D01*
X37687380Y-32653556D02*
X36961666Y-33379271D01*
X36961666Y-33379271D02*
X37747857Y-33379271D01*
X9932380Y-18009271D02*
X9932380Y-19037366D01*
X9932380Y-19037366D02*
X9992857Y-19158318D01*
X9992857Y-19158318D02*
X10053333Y-19218795D01*
X10053333Y-19218795D02*
X10174285Y-19279271D01*
X10174285Y-19279271D02*
X10416190Y-19279271D01*
X10416190Y-19279271D02*
X10537142Y-19218795D01*
X10537142Y-19218795D02*
X10597619Y-19158318D01*
X10597619Y-19158318D02*
X10658095Y-19037366D01*
X10658095Y-19037366D02*
X10658095Y-18009271D01*
X11928095Y-19279271D02*
X11202380Y-19279271D01*
X11565237Y-19279271D02*
X11565237Y-18009271D01*
X11565237Y-18009271D02*
X11444285Y-18190699D01*
X11444285Y-18190699D02*
X11323333Y-18311652D01*
X11323333Y-18311652D02*
X11202380Y-18372128D01*
X35782380Y-16959271D02*
X35782380Y-17987366D01*
X35782380Y-17987366D02*
X35842857Y-18108318D01*
X35842857Y-18108318D02*
X35903333Y-18168795D01*
X35903333Y-18168795D02*
X36024285Y-18229271D01*
X36024285Y-18229271D02*
X36266190Y-18229271D01*
X36266190Y-18229271D02*
X36387142Y-18168795D01*
X36387142Y-18168795D02*
X36447619Y-18108318D01*
X36447619Y-18108318D02*
X36508095Y-17987366D01*
X36508095Y-17987366D02*
X36508095Y-16959271D01*
X37052380Y-17080223D02*
X37112856Y-17019747D01*
X37112856Y-17019747D02*
X37233809Y-16959271D01*
X37233809Y-16959271D02*
X37536190Y-16959271D01*
X37536190Y-16959271D02*
X37657142Y-17019747D01*
X37657142Y-17019747D02*
X37717618Y-17080223D01*
X37717618Y-17080223D02*
X37778095Y-17201175D01*
X37778095Y-17201175D02*
X37778095Y-17322128D01*
X37778095Y-17322128D02*
X37717618Y-17503556D01*
X37717618Y-17503556D02*
X36991904Y-18229271D01*
X36991904Y-18229271D02*
X37778095Y-18229271D01*
X46538333Y-33379271D02*
X46114999Y-32774509D01*
X45812618Y-33379271D02*
X45812618Y-32109271D01*
X45812618Y-32109271D02*
X46296428Y-32109271D01*
X46296428Y-32109271D02*
X46417380Y-32169747D01*
X46417380Y-32169747D02*
X46477857Y-32230223D01*
X46477857Y-32230223D02*
X46538333Y-32351175D01*
X46538333Y-32351175D02*
X46538333Y-32532604D01*
X46538333Y-32532604D02*
X46477857Y-32653556D01*
X46477857Y-32653556D02*
X46417380Y-32714033D01*
X46417380Y-32714033D02*
X46296428Y-32774509D01*
X46296428Y-32774509D02*
X45812618Y-32774509D01*
X47747857Y-33379271D02*
X47022142Y-33379271D01*
X47384999Y-33379271D02*
X47384999Y-32109271D01*
X47384999Y-32109271D02*
X47264047Y-32290699D01*
X47264047Y-32290699D02*
X47143095Y-32411652D01*
X47143095Y-32411652D02*
X47022142Y-32472128D01*
X10688333Y-30858318D02*
X10627857Y-30918795D01*
X10627857Y-30918795D02*
X10446428Y-30979271D01*
X10446428Y-30979271D02*
X10325476Y-30979271D01*
X10325476Y-30979271D02*
X10144047Y-30918795D01*
X10144047Y-30918795D02*
X10023095Y-30797842D01*
X10023095Y-30797842D02*
X9962618Y-30676890D01*
X9962618Y-30676890D02*
X9902142Y-30434985D01*
X9902142Y-30434985D02*
X9902142Y-30253556D01*
X9902142Y-30253556D02*
X9962618Y-30011652D01*
X9962618Y-30011652D02*
X10023095Y-29890699D01*
X10023095Y-29890699D02*
X10144047Y-29769747D01*
X10144047Y-29769747D02*
X10325476Y-29709271D01*
X10325476Y-29709271D02*
X10446428Y-29709271D01*
X10446428Y-29709271D02*
X10627857Y-29769747D01*
X10627857Y-29769747D02*
X10688333Y-29830223D01*
X11897857Y-30979271D02*
X11172142Y-30979271D01*
X11534999Y-30979271D02*
X11534999Y-29709271D01*
X11534999Y-29709271D02*
X11414047Y-29890699D01*
X11414047Y-29890699D02*
X11293095Y-30011652D01*
X11293095Y-30011652D02*
X11172142Y-30072128D01*
%TO.C,Q2*%
D12*
X41240000Y-40440000D02*
X42760000Y-40440000D01*
X41240000Y-40490000D02*
X41240000Y-40440000D01*
X41240000Y-42390000D02*
X41240000Y-41610000D01*
X41240000Y-43560000D02*
X41240000Y-43510000D01*
X42760000Y-40440000D02*
X42760000Y-41440000D01*
X42760000Y-42560000D02*
X42760000Y-43560000D01*
X42760000Y-43560000D02*
X41240000Y-43560000D01*
X40700000Y-41620000D02*
X40940000Y-41950000D01*
X40460000Y-41950000D01*
X40700000Y-41620000D01*
G36*
X40940000Y-41950000D02*
G01*
X40460000Y-41950000D01*
X40700000Y-41620000D01*
X40940000Y-41950000D01*
G37*
%TO.C,Q1*%
X26240000Y-40440000D02*
X27760000Y-40440000D01*
X26240000Y-40490000D02*
X26240000Y-40440000D01*
X26240000Y-42390000D02*
X26240000Y-41610000D01*
X26240000Y-43560000D02*
X26240000Y-43510000D01*
X27760000Y-40440000D02*
X27760000Y-41440000D01*
X27760000Y-42560000D02*
X27760000Y-43560000D01*
X27760000Y-43560000D02*
X26240000Y-43560000D01*
X25700000Y-41620000D02*
X25940000Y-41950000D01*
X25460000Y-41950000D01*
X25700000Y-41620000D01*
G36*
X25940000Y-41950000D02*
G01*
X25460000Y-41950000D01*
X25700000Y-41620000D01*
X25940000Y-41950000D01*
G37*
%TO.C,C2*%
X36488748Y-29565000D02*
X37011252Y-29565000D01*
X36488748Y-31035000D02*
X37011252Y-31035000D01*
%TO.C,U1*%
X7040000Y-10890000D02*
X14760000Y-10890000D01*
X7040000Y-11155000D02*
X7040000Y-10890000D01*
X7040000Y-26510000D02*
X7040000Y-26245000D01*
X14760000Y-10890000D02*
X14760000Y-11155000D01*
X14760000Y-26245000D02*
X14760000Y-26510000D01*
X14760000Y-26510000D02*
X7040000Y-26510000D01*
X6250000Y-11150000D02*
X5910000Y-10680000D01*
X6590000Y-10680000D01*
X6250000Y-11150000D01*
G36*
X6250000Y-11150000D02*
G01*
X5910000Y-10680000D01*
X6590000Y-10680000D01*
X6250000Y-11150000D01*
G37*
%TO.C,R2*%
X48772936Y-41265000D02*
X49227064Y-41265000D01*
X48772936Y-42735000D02*
X49227064Y-42735000D01*
%TO.C,LED2*%
X25315000Y-35040000D02*
X25315000Y-36960000D01*
X25315000Y-36960000D02*
X28000000Y-36960000D01*
X28000000Y-35040000D02*
X25315000Y-35040000D01*
%TO.C,R7*%
X41772936Y-46265000D02*
X42227064Y-46265000D01*
X41772936Y-47735000D02*
X42227064Y-47735000D01*
%TO.C,R5*%
X11772936Y-41265000D02*
X12227064Y-41265000D01*
X11772936Y-42735000D02*
X12227064Y-42735000D01*
%TO.C,U2*%
X22540000Y-10890000D02*
X22855000Y-10890000D01*
X22540000Y-24410000D02*
X22540000Y-10890000D01*
X22855000Y-24410000D02*
X22540000Y-24410000D01*
X50645000Y-10890000D02*
X50960000Y-10890000D01*
X50960000Y-10890000D02*
X50960000Y-24410000D01*
X50960000Y-24410000D02*
X50645000Y-24410000D01*
X50650000Y-10070000D02*
X51120000Y-9730000D01*
X51120000Y-10410000D01*
X50650000Y-10070000D01*
G36*
X51120000Y-10410000D02*
G01*
X50650000Y-10070000D01*
X51120000Y-9730000D01*
X51120000Y-10410000D01*
G37*
%TO.C,R1*%
X46522936Y-29565000D02*
X46977064Y-29565000D01*
X46522936Y-31035000D02*
X46977064Y-31035000D01*
%TO.C,R3*%
X21772936Y-41265000D02*
X22227064Y-41265000D01*
X21772936Y-42735000D02*
X22227064Y-42735000D01*
%TO.C,R4*%
X36772936Y-41265000D02*
X37227064Y-41265000D01*
X36772936Y-42735000D02*
X37227064Y-42735000D01*
%TO.C,LED3*%
X40315000Y-35040000D02*
X40315000Y-36960000D01*
X40315000Y-36960000D02*
X43000000Y-36960000D01*
X43000000Y-35040000D02*
X40315000Y-35040000D01*
%TO.C,C1*%
X10638748Y-31665000D02*
X11161252Y-31665000D01*
X10638748Y-33135000D02*
X11161252Y-33135000D01*
%TO.C,LED1*%
X10315000Y-35040000D02*
X10315000Y-36960000D01*
X10315000Y-36960000D02*
X13000000Y-36960000D01*
X13000000Y-35040000D02*
X10315000Y-35040000D01*
%TO.C,R6*%
X26772936Y-46265000D02*
X27227064Y-46265000D01*
X26772936Y-47735000D02*
X27227064Y-47735000D01*
%TD*%
M02*
