M48
; DRILL file KiCad 10.0.5 date 2026-08-22T00:35:31
; FORMAT={-:-/ absolute / metric / decimal}
; #@! TF.CreationDate,2026-08-22T00:35:31-04:00
; #@! TF.GenerationSoftware,Kicad,Pcbnew,10.0.5
; #@! TF.FileFunction,MixedPlating,1,2
FMAT,2
METRIC
; #@! TA.AperFunction,Plated,PTH,ViaDrill
T1C0.400
%
G90
G05
T1
X3.441Y-50.098
X4.819Y-34.581
X6.415Y-50.026
X7.41Y-35.733
X7.711Y-14.816
X7.728Y-29.75
X7.812Y-19.182
X7.82Y-13.932
X7.837Y-13.126
X8.044Y-15.845
X8.149Y-18.229
X9.95Y-33.639
X10.221Y-26.666
X10.552Y-34.581
X10.552Y-49.074
X12.913Y-34.934
X13.746Y-50.466
X14.825Y-29.75
X15.886Y-27.926
X15.939Y-31.542
X17.017Y-18.847
X17.079Y-17.906
X17.114Y-20.688
X17.142Y-21.806
X17.217Y-23.973
X17.535Y-35.733
X17.607Y-19.986
X17.745Y-23.272
X17.819Y-17.205
X22.65Y-46.666
X23.415Y-31.538
X23.782Y-35.869
X25.955Y-38.498
X27.365Y-29.904
X28.945Y-43.035
X29.004Y-23.873
X29.765Y-21.804
X30.4Y-13.83
X30.701Y-46.81
X31.035Y-20.688
X32.305Y-19.986
X33.575Y-18.847
X34.303Y-17.906
X34.766Y-31.54
X34.852Y-41.777
X36.028Y-34.934
X36.62Y-50.416
X36.745Y-35.869
X37.758Y-27.363
X39.16Y-55.0
X39.634Y-49.787
X40.601Y-31.201
X41.195Y-23.16
X41.195Y-28.412
X42.378Y-17.089
X42.39Y-17.9
X42.552Y-48.764
X43.786Y-11.896
X44.24Y-55.0
X44.86Y-31.951
X45.275Y-11.747
X46.275Y-12.92
X46.6Y-16.59
X46.977Y-22.425
X47.662Y-29.033
X48.539Y-49.589
X48.628Y-20.426
X48.884Y-14.875
X50.085Y-31.951
X50.946Y-17.044
X51.86Y-50.416
X54.4Y-52.549
M30
