%TF.GenerationSoftware,KiCad,Pcbnew,10.0.5*%
%TF.CreationDate,2026-08-22T00:35:31-04:00*%
%TF.ProjectId,supercart,73757065-7263-4617-9274-2e6b69636164,rev?*%
%TF.SameCoordinates,Original*%
%TF.FileFunction,Soldermask,Bot*%
%TF.FilePolarity,Negative*%
%FSLAX46Y46*%
G04 Gerber Fmt 4.6, Leading zero omitted, Abs format (unit mm)*
G04 Created by KiCad (PCBNEW 10.0.5) date 2026-08-22 00:35:31*
%MOMM*%
%LPD*%
G01*
G04 APERTURE LIST*
G04 APERTURE END LIST*
G36*
X3099134Y-50453806D02*
G01*
X3115355Y-50464645D01*
X3126194Y-50480866D01*
X3130000Y-50500000D01*
X3130000Y-59500000D01*
X3126194Y-59519134D01*
X3115355Y-59535355D01*
X3099134Y-59546194D01*
X3080000Y-59550000D01*
X1580000Y-59550000D01*
X1560866Y-59546194D01*
X1544645Y-59535355D01*
X1533806Y-59519134D01*
X1530000Y-59500000D01*
X1530000Y-50500000D01*
X1533806Y-50480866D01*
X1544645Y-50464645D01*
X1560866Y-50453806D01*
X1580000Y-50450000D01*
X3080000Y-50450000D01*
X3099134Y-50453806D01*
G37*
G36*
X5639134Y-50453806D02*
G01*
X5655355Y-50464645D01*
X5666194Y-50480866D01*
X5670000Y-50500000D01*
X5670000Y-59500000D01*
X5666194Y-59519134D01*
X5655355Y-59535355D01*
X5639134Y-59546194D01*
X5620000Y-59550000D01*
X4120000Y-59550000D01*
X4100866Y-59546194D01*
X4084645Y-59535355D01*
X4073806Y-59519134D01*
X4070000Y-59500000D01*
X4070000Y-50500000D01*
X4073806Y-50480866D01*
X4084645Y-50464645D01*
X4100866Y-50453806D01*
X4120000Y-50450000D01*
X5620000Y-50450000D01*
X5639134Y-50453806D01*
G37*
G36*
X8179134Y-50453806D02*
G01*
X8195355Y-50464645D01*
X8206194Y-50480866D01*
X8210000Y-50500000D01*
X8210000Y-59500000D01*
X8206194Y-59519134D01*
X8195355Y-59535355D01*
X8179134Y-59546194D01*
X8160000Y-59550000D01*
X6660000Y-59550000D01*
X6640866Y-59546194D01*
X6624645Y-59535355D01*
X6613806Y-59519134D01*
X6610000Y-59500000D01*
X6610000Y-50500000D01*
X6613806Y-50480866D01*
X6624645Y-50464645D01*
X6640866Y-50453806D01*
X6660000Y-50450000D01*
X8160000Y-50450000D01*
X8179134Y-50453806D01*
G37*
G36*
X10719134Y-50453806D02*
G01*
X10735355Y-50464645D01*
X10746194Y-50480866D01*
X10750000Y-50500000D01*
X10750000Y-59500000D01*
X10746194Y-59519134D01*
X10735355Y-59535355D01*
X10719134Y-59546194D01*
X10700000Y-59550000D01*
X9200000Y-59550000D01*
X9180866Y-59546194D01*
X9164645Y-59535355D01*
X9153806Y-59519134D01*
X9150000Y-59500000D01*
X9150000Y-50500000D01*
X9153806Y-50480866D01*
X9164645Y-50464645D01*
X9180866Y-50453806D01*
X9200000Y-50450000D01*
X10700000Y-50450000D01*
X10719134Y-50453806D01*
G37*
G36*
X13259134Y-50453806D02*
G01*
X13275355Y-50464645D01*
X13286194Y-50480866D01*
X13290000Y-50500000D01*
X13290000Y-59500000D01*
X13286194Y-59519134D01*
X13275355Y-59535355D01*
X13259134Y-59546194D01*
X13240000Y-59550000D01*
X11740000Y-59550000D01*
X11720866Y-59546194D01*
X11704645Y-59535355D01*
X11693806Y-59519134D01*
X11690000Y-59500000D01*
X11690000Y-50500000D01*
X11693806Y-50480866D01*
X11704645Y-50464645D01*
X11720866Y-50453806D01*
X11740000Y-50450000D01*
X13240000Y-50450000D01*
X13259134Y-50453806D01*
G37*
G36*
X15799134Y-50453806D02*
G01*
X15815355Y-50464645D01*
X15826194Y-50480866D01*
X15830000Y-50500000D01*
X15830000Y-59500000D01*
X15826194Y-59519134D01*
X15815355Y-59535355D01*
X15799134Y-59546194D01*
X15780000Y-59550000D01*
X14280000Y-59550000D01*
X14260866Y-59546194D01*
X14244645Y-59535355D01*
X14233806Y-59519134D01*
X14230000Y-59500000D01*
X14230000Y-50500000D01*
X14233806Y-50480866D01*
X14244645Y-50464645D01*
X14260866Y-50453806D01*
X14280000Y-50450000D01*
X15780000Y-50450000D01*
X15799134Y-50453806D01*
G37*
G36*
X18339134Y-50453806D02*
G01*
X18355355Y-50464645D01*
X18366194Y-50480866D01*
X18370000Y-50500000D01*
X18370000Y-59500000D01*
X18366194Y-59519134D01*
X18355355Y-59535355D01*
X18339134Y-59546194D01*
X18320000Y-59550000D01*
X16820000Y-59550000D01*
X16800866Y-59546194D01*
X16784645Y-59535355D01*
X16773806Y-59519134D01*
X16770000Y-59500000D01*
X16770000Y-50500000D01*
X16773806Y-50480866D01*
X16784645Y-50464645D01*
X16800866Y-50453806D01*
X16820000Y-50450000D01*
X18320000Y-50450000D01*
X18339134Y-50453806D01*
G37*
G36*
X20879134Y-50453806D02*
G01*
X20895355Y-50464645D01*
X20906194Y-50480866D01*
X20910000Y-50500000D01*
X20910000Y-59500000D01*
X20906194Y-59519134D01*
X20895355Y-59535355D01*
X20879134Y-59546194D01*
X20860000Y-59550000D01*
X19360000Y-59550000D01*
X19340866Y-59546194D01*
X19324645Y-59535355D01*
X19313806Y-59519134D01*
X19310000Y-59500000D01*
X19310000Y-50500000D01*
X19313806Y-50480866D01*
X19324645Y-50464645D01*
X19340866Y-50453806D01*
X19360000Y-50450000D01*
X20860000Y-50450000D01*
X20879134Y-50453806D01*
G37*
G36*
X23419134Y-50453806D02*
G01*
X23435355Y-50464645D01*
X23446194Y-50480866D01*
X23450000Y-50500000D01*
X23450000Y-59500000D01*
X23446194Y-59519134D01*
X23435355Y-59535355D01*
X23419134Y-59546194D01*
X23400000Y-59550000D01*
X21900000Y-59550000D01*
X21880866Y-59546194D01*
X21864645Y-59535355D01*
X21853806Y-59519134D01*
X21850000Y-59500000D01*
X21850000Y-50500000D01*
X21853806Y-50480866D01*
X21864645Y-50464645D01*
X21880866Y-50453806D01*
X21900000Y-50450000D01*
X23400000Y-50450000D01*
X23419134Y-50453806D01*
G37*
G36*
X25959134Y-50453806D02*
G01*
X25975355Y-50464645D01*
X25986194Y-50480866D01*
X25990000Y-50500000D01*
X25990000Y-59500000D01*
X25986194Y-59519134D01*
X25975355Y-59535355D01*
X25959134Y-59546194D01*
X25940000Y-59550000D01*
X24440000Y-59550000D01*
X24420866Y-59546194D01*
X24404645Y-59535355D01*
X24393806Y-59519134D01*
X24390000Y-59500000D01*
X24390000Y-50500000D01*
X24393806Y-50480866D01*
X24404645Y-50464645D01*
X24420866Y-50453806D01*
X24440000Y-50450000D01*
X25940000Y-50450000D01*
X25959134Y-50453806D01*
G37*
G36*
X28499134Y-50453806D02*
G01*
X28515355Y-50464645D01*
X28526194Y-50480866D01*
X28530000Y-50500000D01*
X28530000Y-59500000D01*
X28526194Y-59519134D01*
X28515355Y-59535355D01*
X28499134Y-59546194D01*
X28480000Y-59550000D01*
X26980000Y-59550000D01*
X26960866Y-59546194D01*
X26944645Y-59535355D01*
X26933806Y-59519134D01*
X26930000Y-59500000D01*
X26930000Y-50500000D01*
X26933806Y-50480866D01*
X26944645Y-50464645D01*
X26960866Y-50453806D01*
X26980000Y-50450000D01*
X28480000Y-50450000D01*
X28499134Y-50453806D01*
G37*
G36*
X31039134Y-50453806D02*
G01*
X31055355Y-50464645D01*
X31066194Y-50480866D01*
X31070000Y-50500000D01*
X31070000Y-59500000D01*
X31066194Y-59519134D01*
X31055355Y-59535355D01*
X31039134Y-59546194D01*
X31020000Y-59550000D01*
X29520000Y-59550000D01*
X29500866Y-59546194D01*
X29484645Y-59535355D01*
X29473806Y-59519134D01*
X29470000Y-59500000D01*
X29470000Y-50500000D01*
X29473806Y-50480866D01*
X29484645Y-50464645D01*
X29500866Y-50453806D01*
X29520000Y-50450000D01*
X31020000Y-50450000D01*
X31039134Y-50453806D01*
G37*
G36*
X33579134Y-50453806D02*
G01*
X33595355Y-50464645D01*
X33606194Y-50480866D01*
X33610000Y-50500000D01*
X33610000Y-59500000D01*
X33606194Y-59519134D01*
X33595355Y-59535355D01*
X33579134Y-59546194D01*
X33560000Y-59550000D01*
X32060000Y-59550000D01*
X32040866Y-59546194D01*
X32024645Y-59535355D01*
X32013806Y-59519134D01*
X32010000Y-59500000D01*
X32010000Y-50500000D01*
X32013806Y-50480866D01*
X32024645Y-50464645D01*
X32040866Y-50453806D01*
X32060000Y-50450000D01*
X33560000Y-50450000D01*
X33579134Y-50453806D01*
G37*
G36*
X36119134Y-50453806D02*
G01*
X36135355Y-50464645D01*
X36146194Y-50480866D01*
X36150000Y-50500000D01*
X36150000Y-59500000D01*
X36146194Y-59519134D01*
X36135355Y-59535355D01*
X36119134Y-59546194D01*
X36100000Y-59550000D01*
X34600000Y-59550000D01*
X34580866Y-59546194D01*
X34564645Y-59535355D01*
X34553806Y-59519134D01*
X34550000Y-59500000D01*
X34550000Y-50500000D01*
X34553806Y-50480866D01*
X34564645Y-50464645D01*
X34580866Y-50453806D01*
X34600000Y-50450000D01*
X36100000Y-50450000D01*
X36119134Y-50453806D01*
G37*
G36*
X38659134Y-50453806D02*
G01*
X38675355Y-50464645D01*
X38686194Y-50480866D01*
X38690000Y-50500000D01*
X38690000Y-59500000D01*
X38686194Y-59519134D01*
X38675355Y-59535355D01*
X38659134Y-59546194D01*
X38640000Y-59550000D01*
X37140000Y-59550000D01*
X37120866Y-59546194D01*
X37104645Y-59535355D01*
X37093806Y-59519134D01*
X37090000Y-59500000D01*
X37090000Y-50500000D01*
X37093806Y-50480866D01*
X37104645Y-50464645D01*
X37120866Y-50453806D01*
X37140000Y-50450000D01*
X38640000Y-50450000D01*
X38659134Y-50453806D01*
G37*
G36*
X41199134Y-50453806D02*
G01*
X41215355Y-50464645D01*
X41226194Y-50480866D01*
X41230000Y-50500000D01*
X41230000Y-59500000D01*
X41226194Y-59519134D01*
X41215355Y-59535355D01*
X41199134Y-59546194D01*
X41180000Y-59550000D01*
X39680000Y-59550000D01*
X39660866Y-59546194D01*
X39644645Y-59535355D01*
X39633806Y-59519134D01*
X39630000Y-59500000D01*
X39630000Y-50500000D01*
X39633806Y-50480866D01*
X39644645Y-50464645D01*
X39660866Y-50453806D01*
X39680000Y-50450000D01*
X41180000Y-50450000D01*
X41199134Y-50453806D01*
G37*
G36*
X43739134Y-50453806D02*
G01*
X43755355Y-50464645D01*
X43766194Y-50480866D01*
X43770000Y-50500000D01*
X43770000Y-59500000D01*
X43766194Y-59519134D01*
X43755355Y-59535355D01*
X43739134Y-59546194D01*
X43720000Y-59550000D01*
X42220000Y-59550000D01*
X42200866Y-59546194D01*
X42184645Y-59535355D01*
X42173806Y-59519134D01*
X42170000Y-59500000D01*
X42170000Y-50500000D01*
X42173806Y-50480866D01*
X42184645Y-50464645D01*
X42200866Y-50453806D01*
X42220000Y-50450000D01*
X43720000Y-50450000D01*
X43739134Y-50453806D01*
G37*
G36*
X46279134Y-50453806D02*
G01*
X46295355Y-50464645D01*
X46306194Y-50480866D01*
X46310000Y-50500000D01*
X46310000Y-59500000D01*
X46306194Y-59519134D01*
X46295355Y-59535355D01*
X46279134Y-59546194D01*
X46260000Y-59550000D01*
X44760000Y-59550000D01*
X44740866Y-59546194D01*
X44724645Y-59535355D01*
X44713806Y-59519134D01*
X44710000Y-59500000D01*
X44710000Y-50500000D01*
X44713806Y-50480866D01*
X44724645Y-50464645D01*
X44740866Y-50453806D01*
X44760000Y-50450000D01*
X46260000Y-50450000D01*
X46279134Y-50453806D01*
G37*
G36*
X48819134Y-50453806D02*
G01*
X48835355Y-50464645D01*
X48846194Y-50480866D01*
X48850000Y-50500000D01*
X48850000Y-59500000D01*
X48846194Y-59519134D01*
X48835355Y-59535355D01*
X48819134Y-59546194D01*
X48800000Y-59550000D01*
X47300000Y-59550000D01*
X47280866Y-59546194D01*
X47264645Y-59535355D01*
X47253806Y-59519134D01*
X47250000Y-59500000D01*
X47250000Y-50500000D01*
X47253806Y-50480866D01*
X47264645Y-50464645D01*
X47280866Y-50453806D01*
X47300000Y-50450000D01*
X48800000Y-50450000D01*
X48819134Y-50453806D01*
G37*
G36*
X51359134Y-50453806D02*
G01*
X51375355Y-50464645D01*
X51386194Y-50480866D01*
X51390000Y-50500000D01*
X51390000Y-59500000D01*
X51386194Y-59519134D01*
X51375355Y-59535355D01*
X51359134Y-59546194D01*
X51340000Y-59550000D01*
X49840000Y-59550000D01*
X49820866Y-59546194D01*
X49804645Y-59535355D01*
X49793806Y-59519134D01*
X49790000Y-59500000D01*
X49790000Y-50500000D01*
X49793806Y-50480866D01*
X49804645Y-50464645D01*
X49820866Y-50453806D01*
X49840000Y-50450000D01*
X51340000Y-50450000D01*
X51359134Y-50453806D01*
G37*
G36*
X53899134Y-50453806D02*
G01*
X53915355Y-50464645D01*
X53926194Y-50480866D01*
X53930000Y-50500000D01*
X53930000Y-59500000D01*
X53926194Y-59519134D01*
X53915355Y-59535355D01*
X53899134Y-59546194D01*
X53880000Y-59550000D01*
X52380000Y-59550000D01*
X52360866Y-59546194D01*
X52344645Y-59535355D01*
X52333806Y-59519134D01*
X52330000Y-59500000D01*
X52330000Y-50500000D01*
X52333806Y-50480866D01*
X52344645Y-50464645D01*
X52360866Y-50453806D01*
X52380000Y-50450000D01*
X53880000Y-50450000D01*
X53899134Y-50453806D01*
G37*
G36*
X56439134Y-50453806D02*
G01*
X56455355Y-50464645D01*
X56466194Y-50480866D01*
X56470000Y-50500000D01*
X56470000Y-59500000D01*
X56466194Y-59519134D01*
X56455355Y-59535355D01*
X56439134Y-59546194D01*
X56420000Y-59550000D01*
X54920000Y-59550000D01*
X54900866Y-59546194D01*
X54884645Y-59535355D01*
X54873806Y-59519134D01*
X54870000Y-59500000D01*
X54870000Y-50500000D01*
X54873806Y-50480866D01*
X54884645Y-50464645D01*
X54900866Y-50453806D01*
X54920000Y-50450000D01*
X56420000Y-50450000D01*
X56439134Y-50453806D01*
G37*
M02*
