%TF.GenerationSoftware,KiCad,Pcbnew,10.0.5*%
%TF.CreationDate,2026-08-23T17:15:05-04:00*%
%TF.ProjectId,supercart,73757065-7263-4617-9274-2e6b69636164,rev?*%
%TF.SameCoordinates,Original*%
%TF.FileFunction,Soldermask,Top*%
%TF.FilePolarity,Negative*%
%FSLAX46Y46*%
G04 Gerber Fmt 4.6, Leading zero omitted, Abs format (unit mm)*
G04 Created by KiCad (PCBNEW 10.0.5) date 2026-08-23 17:15:05*
%MOMM*%
%LPD*%
G01*
G04 APERTURE LIST*
G04 APERTURE END LIST*
G36*
X3099134Y-50453806D02*
G01*
X3115355Y-50464645D01*
X3126194Y-50480866D01*
X3130000Y-50500000D01*
X3130000Y-59500000D01*
X3126194Y-59519134D01*
X3115355Y-59535355D01*
X3099134Y-59546194D01*
X3080000Y-59550000D01*
X1580000Y-59550000D01*
X1560866Y-59546194D01*
X1544645Y-59535355D01*
X1533806Y-59519134D01*
X1530000Y-59500000D01*
X1530000Y-50500000D01*
X1533806Y-50480866D01*
X1544645Y-50464645D01*
X1560866Y-50453806D01*
X1580000Y-50450000D01*
X3080000Y-50450000D01*
X3099134Y-50453806D01*
G37*
G36*
X5639134Y-50453806D02*
G01*
X5655355Y-50464645D01*
X5666194Y-50480866D01*
X5670000Y-50500000D01*
X5670000Y-59500000D01*
X5666194Y-59519134D01*
X5655355Y-59535355D01*
X5639134Y-59546194D01*
X5620000Y-59550000D01*
X4120000Y-59550000D01*
X4100866Y-59546194D01*
X4084645Y-59535355D01*
X4073806Y-59519134D01*
X4070000Y-59500000D01*
X4070000Y-50500000D01*
X4073806Y-50480866D01*
X4084645Y-50464645D01*
X4100866Y-50453806D01*
X4120000Y-50450000D01*
X5620000Y-50450000D01*
X5639134Y-50453806D01*
G37*
G36*
X8179134Y-50453806D02*
G01*
X8195355Y-50464645D01*
X8206194Y-50480866D01*
X8210000Y-50500000D01*
X8210000Y-59500000D01*
X8206194Y-59519134D01*
X8195355Y-59535355D01*
X8179134Y-59546194D01*
X8160000Y-59550000D01*
X6660000Y-59550000D01*
X6640866Y-59546194D01*
X6624645Y-59535355D01*
X6613806Y-59519134D01*
X6610000Y-59500000D01*
X6610000Y-50500000D01*
X6613806Y-50480866D01*
X6624645Y-50464645D01*
X6640866Y-50453806D01*
X6660000Y-50450000D01*
X8160000Y-50450000D01*
X8179134Y-50453806D01*
G37*
G36*
X10719134Y-50453806D02*
G01*
X10735355Y-50464645D01*
X10746194Y-50480866D01*
X10750000Y-50500000D01*
X10750000Y-59500000D01*
X10746194Y-59519134D01*
X10735355Y-59535355D01*
X10719134Y-59546194D01*
X10700000Y-59550000D01*
X9200000Y-59550000D01*
X9180866Y-59546194D01*
X9164645Y-59535355D01*
X9153806Y-59519134D01*
X9150000Y-59500000D01*
X9150000Y-50500000D01*
X9153806Y-50480866D01*
X9164645Y-50464645D01*
X9180866Y-50453806D01*
X9200000Y-50450000D01*
X10700000Y-50450000D01*
X10719134Y-50453806D01*
G37*
G36*
X13259134Y-50453806D02*
G01*
X13275355Y-50464645D01*
X13286194Y-50480866D01*
X13290000Y-50500000D01*
X13290000Y-59500000D01*
X13286194Y-59519134D01*
X13275355Y-59535355D01*
X13259134Y-59546194D01*
X13240000Y-59550000D01*
X11740000Y-59550000D01*
X11720866Y-59546194D01*
X11704645Y-59535355D01*
X11693806Y-59519134D01*
X11690000Y-59500000D01*
X11690000Y-50500000D01*
X11693806Y-50480866D01*
X11704645Y-50464645D01*
X11720866Y-50453806D01*
X11740000Y-50450000D01*
X13240000Y-50450000D01*
X13259134Y-50453806D01*
G37*
G36*
X15799134Y-50453806D02*
G01*
X15815355Y-50464645D01*
X15826194Y-50480866D01*
X15830000Y-50500000D01*
X15830000Y-59500000D01*
X15826194Y-59519134D01*
X15815355Y-59535355D01*
X15799134Y-59546194D01*
X15780000Y-59550000D01*
X14280000Y-59550000D01*
X14260866Y-59546194D01*
X14244645Y-59535355D01*
X14233806Y-59519134D01*
X14230000Y-59500000D01*
X14230000Y-50500000D01*
X14233806Y-50480866D01*
X14244645Y-50464645D01*
X14260866Y-50453806D01*
X14280000Y-50450000D01*
X15780000Y-50450000D01*
X15799134Y-50453806D01*
G37*
G36*
X18339134Y-50453806D02*
G01*
X18355355Y-50464645D01*
X18366194Y-50480866D01*
X18370000Y-50500000D01*
X18370000Y-59500000D01*
X18366194Y-59519134D01*
X18355355Y-59535355D01*
X18339134Y-59546194D01*
X18320000Y-59550000D01*
X16820000Y-59550000D01*
X16800866Y-59546194D01*
X16784645Y-59535355D01*
X16773806Y-59519134D01*
X16770000Y-59500000D01*
X16770000Y-50500000D01*
X16773806Y-50480866D01*
X16784645Y-50464645D01*
X16800866Y-50453806D01*
X16820000Y-50450000D01*
X18320000Y-50450000D01*
X18339134Y-50453806D01*
G37*
G36*
X20879134Y-50453806D02*
G01*
X20895355Y-50464645D01*
X20906194Y-50480866D01*
X20910000Y-50500000D01*
X20910000Y-59500000D01*
X20906194Y-59519134D01*
X20895355Y-59535355D01*
X20879134Y-59546194D01*
X20860000Y-59550000D01*
X19360000Y-59550000D01*
X19340866Y-59546194D01*
X19324645Y-59535355D01*
X19313806Y-59519134D01*
X19310000Y-59500000D01*
X19310000Y-50500000D01*
X19313806Y-50480866D01*
X19324645Y-50464645D01*
X19340866Y-50453806D01*
X19360000Y-50450000D01*
X20860000Y-50450000D01*
X20879134Y-50453806D01*
G37*
G36*
X23419134Y-50453806D02*
G01*
X23435355Y-50464645D01*
X23446194Y-50480866D01*
X23450000Y-50500000D01*
X23450000Y-59500000D01*
X23446194Y-59519134D01*
X23435355Y-59535355D01*
X23419134Y-59546194D01*
X23400000Y-59550000D01*
X21900000Y-59550000D01*
X21880866Y-59546194D01*
X21864645Y-59535355D01*
X21853806Y-59519134D01*
X21850000Y-59500000D01*
X21850000Y-50500000D01*
X21853806Y-50480866D01*
X21864645Y-50464645D01*
X21880866Y-50453806D01*
X21900000Y-50450000D01*
X23400000Y-50450000D01*
X23419134Y-50453806D01*
G37*
G36*
X25959134Y-50453806D02*
G01*
X25975355Y-50464645D01*
X25986194Y-50480866D01*
X25990000Y-50500000D01*
X25990000Y-59500000D01*
X25986194Y-59519134D01*
X25975355Y-59535355D01*
X25959134Y-59546194D01*
X25940000Y-59550000D01*
X24440000Y-59550000D01*
X24420866Y-59546194D01*
X24404645Y-59535355D01*
X24393806Y-59519134D01*
X24390000Y-59500000D01*
X24390000Y-50500000D01*
X24393806Y-50480866D01*
X24404645Y-50464645D01*
X24420866Y-50453806D01*
X24440000Y-50450000D01*
X25940000Y-50450000D01*
X25959134Y-50453806D01*
G37*
G36*
X28499134Y-50453806D02*
G01*
X28515355Y-50464645D01*
X28526194Y-50480866D01*
X28530000Y-50500000D01*
X28530000Y-59500000D01*
X28526194Y-59519134D01*
X28515355Y-59535355D01*
X28499134Y-59546194D01*
X28480000Y-59550000D01*
X26980000Y-59550000D01*
X26960866Y-59546194D01*
X26944645Y-59535355D01*
X26933806Y-59519134D01*
X26930000Y-59500000D01*
X26930000Y-50500000D01*
X26933806Y-50480866D01*
X26944645Y-50464645D01*
X26960866Y-50453806D01*
X26980000Y-50450000D01*
X28480000Y-50450000D01*
X28499134Y-50453806D01*
G37*
G36*
X31039134Y-50453806D02*
G01*
X31055355Y-50464645D01*
X31066194Y-50480866D01*
X31070000Y-50500000D01*
X31070000Y-59500000D01*
X31066194Y-59519134D01*
X31055355Y-59535355D01*
X31039134Y-59546194D01*
X31020000Y-59550000D01*
X29520000Y-59550000D01*
X29500866Y-59546194D01*
X29484645Y-59535355D01*
X29473806Y-59519134D01*
X29470000Y-59500000D01*
X29470000Y-50500000D01*
X29473806Y-50480866D01*
X29484645Y-50464645D01*
X29500866Y-50453806D01*
X29520000Y-50450000D01*
X31020000Y-50450000D01*
X31039134Y-50453806D01*
G37*
G36*
X33579134Y-50453806D02*
G01*
X33595355Y-50464645D01*
X33606194Y-50480866D01*
X33610000Y-50500000D01*
X33610000Y-59500000D01*
X33606194Y-59519134D01*
X33595355Y-59535355D01*
X33579134Y-59546194D01*
X33560000Y-59550000D01*
X32060000Y-59550000D01*
X32040866Y-59546194D01*
X32024645Y-59535355D01*
X32013806Y-59519134D01*
X32010000Y-59500000D01*
X32010000Y-50500000D01*
X32013806Y-50480866D01*
X32024645Y-50464645D01*
X32040866Y-50453806D01*
X32060000Y-50450000D01*
X33560000Y-50450000D01*
X33579134Y-50453806D01*
G37*
G36*
X36119134Y-50453806D02*
G01*
X36135355Y-50464645D01*
X36146194Y-50480866D01*
X36150000Y-50500000D01*
X36150000Y-59500000D01*
X36146194Y-59519134D01*
X36135355Y-59535355D01*
X36119134Y-59546194D01*
X36100000Y-59550000D01*
X34600000Y-59550000D01*
X34580866Y-59546194D01*
X34564645Y-59535355D01*
X34553806Y-59519134D01*
X34550000Y-59500000D01*
X34550000Y-50500000D01*
X34553806Y-50480866D01*
X34564645Y-50464645D01*
X34580866Y-50453806D01*
X34600000Y-50450000D01*
X36100000Y-50450000D01*
X36119134Y-50453806D01*
G37*
G36*
X38659134Y-50453806D02*
G01*
X38675355Y-50464645D01*
X38686194Y-50480866D01*
X38690000Y-50500000D01*
X38690000Y-59500000D01*
X38686194Y-59519134D01*
X38675355Y-59535355D01*
X38659134Y-59546194D01*
X38640000Y-59550000D01*
X37140000Y-59550000D01*
X37120866Y-59546194D01*
X37104645Y-59535355D01*
X37093806Y-59519134D01*
X37090000Y-59500000D01*
X37090000Y-50500000D01*
X37093806Y-50480866D01*
X37104645Y-50464645D01*
X37120866Y-50453806D01*
X37140000Y-50450000D01*
X38640000Y-50450000D01*
X38659134Y-50453806D01*
G37*
G36*
X41199134Y-50453806D02*
G01*
X41215355Y-50464645D01*
X41226194Y-50480866D01*
X41230000Y-50500000D01*
X41230000Y-59500000D01*
X41226194Y-59519134D01*
X41215355Y-59535355D01*
X41199134Y-59546194D01*
X41180000Y-59550000D01*
X39680000Y-59550000D01*
X39660866Y-59546194D01*
X39644645Y-59535355D01*
X39633806Y-59519134D01*
X39630000Y-59500000D01*
X39630000Y-50500000D01*
X39633806Y-50480866D01*
X39644645Y-50464645D01*
X39660866Y-50453806D01*
X39680000Y-50450000D01*
X41180000Y-50450000D01*
X41199134Y-50453806D01*
G37*
G36*
X43739134Y-50453806D02*
G01*
X43755355Y-50464645D01*
X43766194Y-50480866D01*
X43770000Y-50500000D01*
X43770000Y-59500000D01*
X43766194Y-59519134D01*
X43755355Y-59535355D01*
X43739134Y-59546194D01*
X43720000Y-59550000D01*
X42220000Y-59550000D01*
X42200866Y-59546194D01*
X42184645Y-59535355D01*
X42173806Y-59519134D01*
X42170000Y-59500000D01*
X42170000Y-50500000D01*
X42173806Y-50480866D01*
X42184645Y-50464645D01*
X42200866Y-50453806D01*
X42220000Y-50450000D01*
X43720000Y-50450000D01*
X43739134Y-50453806D01*
G37*
G36*
X46279134Y-50453806D02*
G01*
X46295355Y-50464645D01*
X46306194Y-50480866D01*
X46310000Y-50500000D01*
X46310000Y-59500000D01*
X46306194Y-59519134D01*
X46295355Y-59535355D01*
X46279134Y-59546194D01*
X46260000Y-59550000D01*
X44760000Y-59550000D01*
X44740866Y-59546194D01*
X44724645Y-59535355D01*
X44713806Y-59519134D01*
X44710000Y-59500000D01*
X44710000Y-50500000D01*
X44713806Y-50480866D01*
X44724645Y-50464645D01*
X44740866Y-50453806D01*
X44760000Y-50450000D01*
X46260000Y-50450000D01*
X46279134Y-50453806D01*
G37*
G36*
X48819134Y-50453806D02*
G01*
X48835355Y-50464645D01*
X48846194Y-50480866D01*
X48850000Y-50500000D01*
X48850000Y-59500000D01*
X48846194Y-59519134D01*
X48835355Y-59535355D01*
X48819134Y-59546194D01*
X48800000Y-59550000D01*
X47300000Y-59550000D01*
X47280866Y-59546194D01*
X47264645Y-59535355D01*
X47253806Y-59519134D01*
X47250000Y-59500000D01*
X47250000Y-50500000D01*
X47253806Y-50480866D01*
X47264645Y-50464645D01*
X47280866Y-50453806D01*
X47300000Y-50450000D01*
X48800000Y-50450000D01*
X48819134Y-50453806D01*
G37*
G36*
X51359134Y-50453806D02*
G01*
X51375355Y-50464645D01*
X51386194Y-50480866D01*
X51390000Y-50500000D01*
X51390000Y-59500000D01*
X51386194Y-59519134D01*
X51375355Y-59535355D01*
X51359134Y-59546194D01*
X51340000Y-59550000D01*
X49840000Y-59550000D01*
X49820866Y-59546194D01*
X49804645Y-59535355D01*
X49793806Y-59519134D01*
X49790000Y-59500000D01*
X49790000Y-50500000D01*
X49793806Y-50480866D01*
X49804645Y-50464645D01*
X49820866Y-50453806D01*
X49840000Y-50450000D01*
X51340000Y-50450000D01*
X51359134Y-50453806D01*
G37*
G36*
X53899134Y-50453806D02*
G01*
X53915355Y-50464645D01*
X53926194Y-50480866D01*
X53930000Y-50500000D01*
X53930000Y-59500000D01*
X53926194Y-59519134D01*
X53915355Y-59535355D01*
X53899134Y-59546194D01*
X53880000Y-59550000D01*
X52380000Y-59550000D01*
X52360866Y-59546194D01*
X52344645Y-59535355D01*
X52333806Y-59519134D01*
X52330000Y-59500000D01*
X52330000Y-50500000D01*
X52333806Y-50480866D01*
X52344645Y-50464645D01*
X52360866Y-50453806D01*
X52380000Y-50450000D01*
X53880000Y-50450000D01*
X53899134Y-50453806D01*
G37*
G36*
X56439134Y-50453806D02*
G01*
X56455355Y-50464645D01*
X56466194Y-50480866D01*
X56470000Y-50500000D01*
X56470000Y-59500000D01*
X56466194Y-59519134D01*
X56455355Y-59535355D01*
X56439134Y-59546194D01*
X56420000Y-59550000D01*
X54920000Y-59550000D01*
X54900866Y-59546194D01*
X54884645Y-59535355D01*
X54873806Y-59519134D01*
X54870000Y-59500000D01*
X54870000Y-50500000D01*
X54873806Y-50480866D01*
X54884645Y-50464645D01*
X54900866Y-50453806D01*
X54920000Y-50450000D01*
X56420000Y-50450000D01*
X56439134Y-50453806D01*
G37*
G36*
X26418685Y-46257969D02*
G01*
X26427358Y-46261798D01*
X26434925Y-46262901D01*
X26482223Y-46286023D01*
X26519541Y-46302501D01*
X26522996Y-46305956D01*
X26523920Y-46306408D01*
X26593591Y-46376079D01*
X26594042Y-46377002D01*
X26597499Y-46380459D01*
X26613978Y-46417782D01*
X26637098Y-46465073D01*
X26638200Y-46472639D01*
X26642031Y-46481315D01*
X26650000Y-46550000D01*
X26650000Y-47450000D01*
X26642031Y-47518685D01*
X26638199Y-47527361D01*
X26637098Y-47534925D01*
X26613985Y-47582202D01*
X26597499Y-47619541D01*
X26594041Y-47622998D01*
X26593591Y-47623920D01*
X26523920Y-47693591D01*
X26522998Y-47694041D01*
X26519541Y-47697499D01*
X26482207Y-47713983D01*
X26434926Y-47737098D01*
X26427361Y-47738200D01*
X26418685Y-47742031D01*
X26350000Y-47750000D01*
X25825000Y-47750000D01*
X25756315Y-47742031D01*
X25747638Y-47738200D01*
X25740074Y-47737098D01*
X25692787Y-47713981D01*
X25655459Y-47697499D01*
X25652002Y-47694042D01*
X25651079Y-47693591D01*
X25581408Y-47623920D01*
X25580956Y-47622996D01*
X25577501Y-47619541D01*
X25561025Y-47582228D01*
X25537901Y-47534926D01*
X25536798Y-47527357D01*
X25532969Y-47518685D01*
X25525000Y-47450000D01*
X25525000Y-46550000D01*
X25532969Y-46481315D01*
X25536798Y-46472642D01*
X25537901Y-46465074D01*
X25561028Y-46417766D01*
X25577501Y-46380459D01*
X25580955Y-46377004D01*
X25581408Y-46376079D01*
X25651079Y-46306408D01*
X25652004Y-46305955D01*
X25655459Y-46302501D01*
X25692761Y-46286030D01*
X25740073Y-46262901D01*
X25747642Y-46261798D01*
X25756315Y-46257969D01*
X25825000Y-46250000D01*
X26350000Y-46250000D01*
X26418685Y-46257969D01*
G37*
G36*
X28243685Y-46257969D02*
G01*
X28252358Y-46261798D01*
X28259925Y-46262901D01*
X28307223Y-46286023D01*
X28344541Y-46302501D01*
X28347996Y-46305956D01*
X28348920Y-46306408D01*
X28418591Y-46376079D01*
X28419042Y-46377002D01*
X28422499Y-46380459D01*
X28438978Y-46417782D01*
X28462098Y-46465073D01*
X28463200Y-46472639D01*
X28467031Y-46481315D01*
X28475000Y-46550000D01*
X28475000Y-47450000D01*
X28467031Y-47518685D01*
X28463199Y-47527361D01*
X28462098Y-47534925D01*
X28438985Y-47582202D01*
X28422499Y-47619541D01*
X28419041Y-47622998D01*
X28418591Y-47623920D01*
X28348920Y-47693591D01*
X28347998Y-47694041D01*
X28344541Y-47697499D01*
X28307207Y-47713983D01*
X28259926Y-47737098D01*
X28252361Y-47738200D01*
X28243685Y-47742031D01*
X28175000Y-47750000D01*
X27650000Y-47750000D01*
X27581315Y-47742031D01*
X27572638Y-47738200D01*
X27565074Y-47737098D01*
X27517787Y-47713981D01*
X27480459Y-47697499D01*
X27477002Y-47694042D01*
X27476079Y-47693591D01*
X27406408Y-47623920D01*
X27405956Y-47622996D01*
X27402501Y-47619541D01*
X27386025Y-47582228D01*
X27362901Y-47534926D01*
X27361798Y-47527357D01*
X27357969Y-47518685D01*
X27350000Y-47450000D01*
X27350000Y-46550000D01*
X27357969Y-46481315D01*
X27361798Y-46472642D01*
X27362901Y-46465074D01*
X27386028Y-46417766D01*
X27402501Y-46380459D01*
X27405955Y-46377004D01*
X27406408Y-46376079D01*
X27476079Y-46306408D01*
X27477004Y-46305955D01*
X27480459Y-46302501D01*
X27517761Y-46286030D01*
X27565073Y-46262901D01*
X27572642Y-46261798D01*
X27581315Y-46257969D01*
X27650000Y-46250000D01*
X28175000Y-46250000D01*
X28243685Y-46257969D01*
G37*
G36*
X41418685Y-46257969D02*
G01*
X41427358Y-46261798D01*
X41434925Y-46262901D01*
X41482223Y-46286023D01*
X41519541Y-46302501D01*
X41522996Y-46305956D01*
X41523920Y-46306408D01*
X41593591Y-46376079D01*
X41594042Y-46377002D01*
X41597499Y-46380459D01*
X41613978Y-46417782D01*
X41637098Y-46465073D01*
X41638200Y-46472639D01*
X41642031Y-46481315D01*
X41650000Y-46550000D01*
X41650000Y-47450000D01*
X41642031Y-47518685D01*
X41638199Y-47527361D01*
X41637098Y-47534925D01*
X41613985Y-47582202D01*
X41597499Y-47619541D01*
X41594041Y-47622998D01*
X41593591Y-47623920D01*
X41523920Y-47693591D01*
X41522998Y-47694041D01*
X41519541Y-47697499D01*
X41482207Y-47713983D01*
X41434926Y-47737098D01*
X41427361Y-47738200D01*
X41418685Y-47742031D01*
X41350000Y-47750000D01*
X40825000Y-47750000D01*
X40756315Y-47742031D01*
X40747638Y-47738200D01*
X40740074Y-47737098D01*
X40692787Y-47713981D01*
X40655459Y-47697499D01*
X40652002Y-47694042D01*
X40651079Y-47693591D01*
X40581408Y-47623920D01*
X40580956Y-47622996D01*
X40577501Y-47619541D01*
X40561025Y-47582228D01*
X40537901Y-47534926D01*
X40536798Y-47527357D01*
X40532969Y-47518685D01*
X40525000Y-47450000D01*
X40525000Y-46550000D01*
X40532969Y-46481315D01*
X40536798Y-46472642D01*
X40537901Y-46465074D01*
X40561028Y-46417766D01*
X40577501Y-46380459D01*
X40580955Y-46377004D01*
X40581408Y-46376079D01*
X40651079Y-46306408D01*
X40652004Y-46305955D01*
X40655459Y-46302501D01*
X40692761Y-46286030D01*
X40740073Y-46262901D01*
X40747642Y-46261798D01*
X40756315Y-46257969D01*
X40825000Y-46250000D01*
X41350000Y-46250000D01*
X41418685Y-46257969D01*
G37*
G36*
X43243685Y-46257969D02*
G01*
X43252358Y-46261798D01*
X43259925Y-46262901D01*
X43307223Y-46286023D01*
X43344541Y-46302501D01*
X43347996Y-46305956D01*
X43348920Y-46306408D01*
X43418591Y-46376079D01*
X43419042Y-46377002D01*
X43422499Y-46380459D01*
X43438978Y-46417782D01*
X43462098Y-46465073D01*
X43463200Y-46472639D01*
X43467031Y-46481315D01*
X43475000Y-46550000D01*
X43475000Y-47450000D01*
X43467031Y-47518685D01*
X43463199Y-47527361D01*
X43462098Y-47534925D01*
X43438985Y-47582202D01*
X43422499Y-47619541D01*
X43419041Y-47622998D01*
X43418591Y-47623920D01*
X43348920Y-47693591D01*
X43347998Y-47694041D01*
X43344541Y-47697499D01*
X43307207Y-47713983D01*
X43259926Y-47737098D01*
X43252361Y-47738200D01*
X43243685Y-47742031D01*
X43175000Y-47750000D01*
X42650000Y-47750000D01*
X42581315Y-47742031D01*
X42572638Y-47738200D01*
X42565074Y-47737098D01*
X42517787Y-47713981D01*
X42480459Y-47697499D01*
X42477002Y-47694042D01*
X42476079Y-47693591D01*
X42406408Y-47623920D01*
X42405956Y-47622996D01*
X42402501Y-47619541D01*
X42386025Y-47582228D01*
X42362901Y-47534926D01*
X42361798Y-47527357D01*
X42357969Y-47518685D01*
X42350000Y-47450000D01*
X42350000Y-46550000D01*
X42357969Y-46481315D01*
X42361798Y-46472642D01*
X42362901Y-46465074D01*
X42386028Y-46417766D01*
X42402501Y-46380459D01*
X42405955Y-46377004D01*
X42406408Y-46376079D01*
X42476079Y-46306408D01*
X42477004Y-46305955D01*
X42480459Y-46302501D01*
X42517761Y-46286030D01*
X42565073Y-46262901D01*
X42572642Y-46261798D01*
X42581315Y-46257969D01*
X42650000Y-46250000D01*
X43175000Y-46250000D01*
X43243685Y-46257969D01*
G37*
G36*
X26726537Y-42615224D02*
G01*
X26791421Y-42658579D01*
X26834776Y-42723463D01*
X26850000Y-42800000D01*
X26850000Y-43100000D01*
X26834776Y-43176537D01*
X26791421Y-43241421D01*
X26726537Y-43284776D01*
X26650000Y-43300000D01*
X25475000Y-43300000D01*
X25398463Y-43284776D01*
X25333579Y-43241421D01*
X25290224Y-43176537D01*
X25275000Y-43100000D01*
X25275000Y-42800000D01*
X25290224Y-42723463D01*
X25333579Y-42658579D01*
X25398463Y-42615224D01*
X25475000Y-42600000D01*
X26650000Y-42600000D01*
X26726537Y-42615224D01*
G37*
G36*
X41726537Y-42615224D02*
G01*
X41791421Y-42658579D01*
X41834776Y-42723463D01*
X41850000Y-42800000D01*
X41850000Y-43100000D01*
X41834776Y-43176537D01*
X41791421Y-43241421D01*
X41726537Y-43284776D01*
X41650000Y-43300000D01*
X40475000Y-43300000D01*
X40398463Y-43284776D01*
X40333579Y-43241421D01*
X40290224Y-43176537D01*
X40275000Y-43100000D01*
X40275000Y-42800000D01*
X40290224Y-42723463D01*
X40333579Y-42658579D01*
X40398463Y-42615224D01*
X40475000Y-42600000D01*
X41650000Y-42600000D01*
X41726537Y-42615224D01*
G37*
G36*
X11418685Y-41257969D02*
G01*
X11427358Y-41261798D01*
X11434925Y-41262901D01*
X11482223Y-41286023D01*
X11519541Y-41302501D01*
X11522996Y-41305956D01*
X11523920Y-41306408D01*
X11593591Y-41376079D01*
X11594042Y-41377002D01*
X11597499Y-41380459D01*
X11613978Y-41417782D01*
X11637098Y-41465073D01*
X11638200Y-41472639D01*
X11642031Y-41481315D01*
X11650000Y-41550000D01*
X11650000Y-42450000D01*
X11642031Y-42518685D01*
X11638199Y-42527361D01*
X11637098Y-42534925D01*
X11613985Y-42582202D01*
X11597499Y-42619541D01*
X11594041Y-42622998D01*
X11593591Y-42623920D01*
X11523920Y-42693591D01*
X11522998Y-42694041D01*
X11519541Y-42697499D01*
X11482207Y-42713983D01*
X11434926Y-42737098D01*
X11427361Y-42738200D01*
X11418685Y-42742031D01*
X11350000Y-42750000D01*
X10825000Y-42750000D01*
X10756315Y-42742031D01*
X10747638Y-42738200D01*
X10740074Y-42737098D01*
X10692787Y-42713981D01*
X10655459Y-42697499D01*
X10652002Y-42694042D01*
X10651079Y-42693591D01*
X10581408Y-42623920D01*
X10580956Y-42622996D01*
X10577501Y-42619541D01*
X10561025Y-42582228D01*
X10537901Y-42534926D01*
X10536798Y-42527357D01*
X10532969Y-42518685D01*
X10525000Y-42450000D01*
X10525000Y-41550000D01*
X10532969Y-41481315D01*
X10536798Y-41472642D01*
X10537901Y-41465074D01*
X10561028Y-41417766D01*
X10577501Y-41380459D01*
X10580955Y-41377004D01*
X10581408Y-41376079D01*
X10651079Y-41306408D01*
X10652004Y-41305955D01*
X10655459Y-41302501D01*
X10692761Y-41286030D01*
X10740073Y-41262901D01*
X10747642Y-41261798D01*
X10756315Y-41257969D01*
X10825000Y-41250000D01*
X11350000Y-41250000D01*
X11418685Y-41257969D01*
G37*
G36*
X13243685Y-41257969D02*
G01*
X13252358Y-41261798D01*
X13259925Y-41262901D01*
X13307223Y-41286023D01*
X13344541Y-41302501D01*
X13347996Y-41305956D01*
X13348920Y-41306408D01*
X13418591Y-41376079D01*
X13419042Y-41377002D01*
X13422499Y-41380459D01*
X13438978Y-41417782D01*
X13462098Y-41465073D01*
X13463200Y-41472639D01*
X13467031Y-41481315D01*
X13475000Y-41550000D01*
X13475000Y-42450000D01*
X13467031Y-42518685D01*
X13463199Y-42527361D01*
X13462098Y-42534925D01*
X13438985Y-42582202D01*
X13422499Y-42619541D01*
X13419041Y-42622998D01*
X13418591Y-42623920D01*
X13348920Y-42693591D01*
X13347998Y-42694041D01*
X13344541Y-42697499D01*
X13307207Y-42713983D01*
X13259926Y-42737098D01*
X13252361Y-42738200D01*
X13243685Y-42742031D01*
X13175000Y-42750000D01*
X12650000Y-42750000D01*
X12581315Y-42742031D01*
X12572638Y-42738200D01*
X12565074Y-42737098D01*
X12517787Y-42713981D01*
X12480459Y-42697499D01*
X12477002Y-42694042D01*
X12476079Y-42693591D01*
X12406408Y-42623920D01*
X12405956Y-42622996D01*
X12402501Y-42619541D01*
X12386025Y-42582228D01*
X12362901Y-42534926D01*
X12361798Y-42527357D01*
X12357969Y-42518685D01*
X12350000Y-42450000D01*
X12350000Y-41550000D01*
X12357969Y-41481315D01*
X12361798Y-41472642D01*
X12362901Y-41465074D01*
X12386028Y-41417766D01*
X12402501Y-41380459D01*
X12405955Y-41377004D01*
X12406408Y-41376079D01*
X12476079Y-41306408D01*
X12477004Y-41305955D01*
X12480459Y-41302501D01*
X12517761Y-41286030D01*
X12565073Y-41262901D01*
X12572642Y-41261798D01*
X12581315Y-41257969D01*
X12650000Y-41250000D01*
X13175000Y-41250000D01*
X13243685Y-41257969D01*
G37*
G36*
X21418685Y-41257969D02*
G01*
X21427358Y-41261798D01*
X21434925Y-41262901D01*
X21482223Y-41286023D01*
X21519541Y-41302501D01*
X21522996Y-41305956D01*
X21523920Y-41306408D01*
X21593591Y-41376079D01*
X21594042Y-41377002D01*
X21597499Y-41380459D01*
X21613978Y-41417782D01*
X21637098Y-41465073D01*
X21638200Y-41472639D01*
X21642031Y-41481315D01*
X21650000Y-41550000D01*
X21650000Y-42450000D01*
X21642031Y-42518685D01*
X21638199Y-42527361D01*
X21637098Y-42534925D01*
X21613985Y-42582202D01*
X21597499Y-42619541D01*
X21594041Y-42622998D01*
X21593591Y-42623920D01*
X21523920Y-42693591D01*
X21522998Y-42694041D01*
X21519541Y-42697499D01*
X21482207Y-42713983D01*
X21434926Y-42737098D01*
X21427361Y-42738200D01*
X21418685Y-42742031D01*
X21350000Y-42750000D01*
X20825000Y-42750000D01*
X20756315Y-42742031D01*
X20747638Y-42738200D01*
X20740074Y-42737098D01*
X20692787Y-42713981D01*
X20655459Y-42697499D01*
X20652002Y-42694042D01*
X20651079Y-42693591D01*
X20581408Y-42623920D01*
X20580956Y-42622996D01*
X20577501Y-42619541D01*
X20561025Y-42582228D01*
X20537901Y-42534926D01*
X20536798Y-42527357D01*
X20532969Y-42518685D01*
X20525000Y-42450000D01*
X20525000Y-41550000D01*
X20532969Y-41481315D01*
X20536798Y-41472642D01*
X20537901Y-41465074D01*
X20561028Y-41417766D01*
X20577501Y-41380459D01*
X20580955Y-41377004D01*
X20581408Y-41376079D01*
X20651079Y-41306408D01*
X20652004Y-41305955D01*
X20655459Y-41302501D01*
X20692761Y-41286030D01*
X20740073Y-41262901D01*
X20747642Y-41261798D01*
X20756315Y-41257969D01*
X20825000Y-41250000D01*
X21350000Y-41250000D01*
X21418685Y-41257969D01*
G37*
G36*
X23243685Y-41257969D02*
G01*
X23252358Y-41261798D01*
X23259925Y-41262901D01*
X23307223Y-41286023D01*
X23344541Y-41302501D01*
X23347996Y-41305956D01*
X23348920Y-41306408D01*
X23418591Y-41376079D01*
X23419042Y-41377002D01*
X23422499Y-41380459D01*
X23438978Y-41417782D01*
X23462098Y-41465073D01*
X23463200Y-41472639D01*
X23467031Y-41481315D01*
X23475000Y-41550000D01*
X23475000Y-42450000D01*
X23467031Y-42518685D01*
X23463199Y-42527361D01*
X23462098Y-42534925D01*
X23438985Y-42582202D01*
X23422499Y-42619541D01*
X23419041Y-42622998D01*
X23418591Y-42623920D01*
X23348920Y-42693591D01*
X23347998Y-42694041D01*
X23344541Y-42697499D01*
X23307207Y-42713983D01*
X23259926Y-42737098D01*
X23252361Y-42738200D01*
X23243685Y-42742031D01*
X23175000Y-42750000D01*
X22650000Y-42750000D01*
X22581315Y-42742031D01*
X22572638Y-42738200D01*
X22565074Y-42737098D01*
X22517787Y-42713981D01*
X22480459Y-42697499D01*
X22477002Y-42694042D01*
X22476079Y-42693591D01*
X22406408Y-42623920D01*
X22405956Y-42622996D01*
X22402501Y-42619541D01*
X22386025Y-42582228D01*
X22362901Y-42534926D01*
X22361798Y-42527357D01*
X22357969Y-42518685D01*
X22350000Y-42450000D01*
X22350000Y-41550000D01*
X22357969Y-41481315D01*
X22361798Y-41472642D01*
X22362901Y-41465074D01*
X22386028Y-41417766D01*
X22402501Y-41380459D01*
X22405955Y-41377004D01*
X22406408Y-41376079D01*
X22476079Y-41306408D01*
X22477004Y-41305955D01*
X22480459Y-41302501D01*
X22517761Y-41286030D01*
X22565073Y-41262901D01*
X22572642Y-41261798D01*
X22581315Y-41257969D01*
X22650000Y-41250000D01*
X23175000Y-41250000D01*
X23243685Y-41257969D01*
G37*
G36*
X36418685Y-41257969D02*
G01*
X36427358Y-41261798D01*
X36434925Y-41262901D01*
X36482223Y-41286023D01*
X36519541Y-41302501D01*
X36522996Y-41305956D01*
X36523920Y-41306408D01*
X36593591Y-41376079D01*
X36594042Y-41377002D01*
X36597499Y-41380459D01*
X36613978Y-41417782D01*
X36637098Y-41465073D01*
X36638200Y-41472639D01*
X36642031Y-41481315D01*
X36650000Y-41550000D01*
X36650000Y-42450000D01*
X36642031Y-42518685D01*
X36638199Y-42527361D01*
X36637098Y-42534925D01*
X36613985Y-42582202D01*
X36597499Y-42619541D01*
X36594041Y-42622998D01*
X36593591Y-42623920D01*
X36523920Y-42693591D01*
X36522998Y-42694041D01*
X36519541Y-42697499D01*
X36482207Y-42713983D01*
X36434926Y-42737098D01*
X36427361Y-42738200D01*
X36418685Y-42742031D01*
X36350000Y-42750000D01*
X35825000Y-42750000D01*
X35756315Y-42742031D01*
X35747638Y-42738200D01*
X35740074Y-42737098D01*
X35692787Y-42713981D01*
X35655459Y-42697499D01*
X35652002Y-42694042D01*
X35651079Y-42693591D01*
X35581408Y-42623920D01*
X35580956Y-42622996D01*
X35577501Y-42619541D01*
X35561025Y-42582228D01*
X35537901Y-42534926D01*
X35536798Y-42527357D01*
X35532969Y-42518685D01*
X35525000Y-42450000D01*
X35525000Y-41550000D01*
X35532969Y-41481315D01*
X35536798Y-41472642D01*
X35537901Y-41465074D01*
X35561028Y-41417766D01*
X35577501Y-41380459D01*
X35580955Y-41377004D01*
X35581408Y-41376079D01*
X35651079Y-41306408D01*
X35652004Y-41305955D01*
X35655459Y-41302501D01*
X35692761Y-41286030D01*
X35740073Y-41262901D01*
X35747642Y-41261798D01*
X35756315Y-41257969D01*
X35825000Y-41250000D01*
X36350000Y-41250000D01*
X36418685Y-41257969D01*
G37*
G36*
X38243685Y-41257969D02*
G01*
X38252358Y-41261798D01*
X38259925Y-41262901D01*
X38307223Y-41286023D01*
X38344541Y-41302501D01*
X38347996Y-41305956D01*
X38348920Y-41306408D01*
X38418591Y-41376079D01*
X38419042Y-41377002D01*
X38422499Y-41380459D01*
X38438978Y-41417782D01*
X38462098Y-41465073D01*
X38463200Y-41472639D01*
X38467031Y-41481315D01*
X38475000Y-41550000D01*
X38475000Y-42450000D01*
X38467031Y-42518685D01*
X38463199Y-42527361D01*
X38462098Y-42534925D01*
X38438985Y-42582202D01*
X38422499Y-42619541D01*
X38419041Y-42622998D01*
X38418591Y-42623920D01*
X38348920Y-42693591D01*
X38347998Y-42694041D01*
X38344541Y-42697499D01*
X38307207Y-42713983D01*
X38259926Y-42737098D01*
X38252361Y-42738200D01*
X38243685Y-42742031D01*
X38175000Y-42750000D01*
X37650000Y-42750000D01*
X37581315Y-42742031D01*
X37572638Y-42738200D01*
X37565074Y-42737098D01*
X37517787Y-42713981D01*
X37480459Y-42697499D01*
X37477002Y-42694042D01*
X37476079Y-42693591D01*
X37406408Y-42623920D01*
X37405956Y-42622996D01*
X37402501Y-42619541D01*
X37386025Y-42582228D01*
X37362901Y-42534926D01*
X37361798Y-42527357D01*
X37357969Y-42518685D01*
X37350000Y-42450000D01*
X37350000Y-41550000D01*
X37357969Y-41481315D01*
X37361798Y-41472642D01*
X37362901Y-41465074D01*
X37386028Y-41417766D01*
X37402501Y-41380459D01*
X37405955Y-41377004D01*
X37406408Y-41376079D01*
X37476079Y-41306408D01*
X37477004Y-41305955D01*
X37480459Y-41302501D01*
X37517761Y-41286030D01*
X37565073Y-41262901D01*
X37572642Y-41261798D01*
X37581315Y-41257969D01*
X37650000Y-41250000D01*
X38175000Y-41250000D01*
X38243685Y-41257969D01*
G37*
G36*
X48418685Y-41257969D02*
G01*
X48427358Y-41261798D01*
X48434925Y-41262901D01*
X48482223Y-41286023D01*
X48519541Y-41302501D01*
X48522996Y-41305956D01*
X48523920Y-41306408D01*
X48593591Y-41376079D01*
X48594042Y-41377002D01*
X48597499Y-41380459D01*
X48613978Y-41417782D01*
X48637098Y-41465073D01*
X48638200Y-41472639D01*
X48642031Y-41481315D01*
X48650000Y-41550000D01*
X48650000Y-42450000D01*
X48642031Y-42518685D01*
X48638199Y-42527361D01*
X48637098Y-42534925D01*
X48613985Y-42582202D01*
X48597499Y-42619541D01*
X48594041Y-42622998D01*
X48593591Y-42623920D01*
X48523920Y-42693591D01*
X48522998Y-42694041D01*
X48519541Y-42697499D01*
X48482207Y-42713983D01*
X48434926Y-42737098D01*
X48427361Y-42738200D01*
X48418685Y-42742031D01*
X48350000Y-42750000D01*
X47825000Y-42750000D01*
X47756315Y-42742031D01*
X47747638Y-42738200D01*
X47740074Y-42737098D01*
X47692787Y-42713981D01*
X47655459Y-42697499D01*
X47652002Y-42694042D01*
X47651079Y-42693591D01*
X47581408Y-42623920D01*
X47580956Y-42622996D01*
X47577501Y-42619541D01*
X47561025Y-42582228D01*
X47537901Y-42534926D01*
X47536798Y-42527357D01*
X47532969Y-42518685D01*
X47525000Y-42450000D01*
X47525000Y-41550000D01*
X47532969Y-41481315D01*
X47536798Y-41472642D01*
X47537901Y-41465074D01*
X47561028Y-41417766D01*
X47577501Y-41380459D01*
X47580955Y-41377004D01*
X47581408Y-41376079D01*
X47651079Y-41306408D01*
X47652004Y-41305955D01*
X47655459Y-41302501D01*
X47692761Y-41286030D01*
X47740073Y-41262901D01*
X47747642Y-41261798D01*
X47756315Y-41257969D01*
X47825000Y-41250000D01*
X48350000Y-41250000D01*
X48418685Y-41257969D01*
G37*
G36*
X50243685Y-41257969D02*
G01*
X50252358Y-41261798D01*
X50259925Y-41262901D01*
X50307223Y-41286023D01*
X50344541Y-41302501D01*
X50347996Y-41305956D01*
X50348920Y-41306408D01*
X50418591Y-41376079D01*
X50419042Y-41377002D01*
X50422499Y-41380459D01*
X50438978Y-41417782D01*
X50462098Y-41465073D01*
X50463200Y-41472639D01*
X50467031Y-41481315D01*
X50475000Y-41550000D01*
X50475000Y-42450000D01*
X50467031Y-42518685D01*
X50463199Y-42527361D01*
X50462098Y-42534925D01*
X50438985Y-42582202D01*
X50422499Y-42619541D01*
X50419041Y-42622998D01*
X50418591Y-42623920D01*
X50348920Y-42693591D01*
X50347998Y-42694041D01*
X50344541Y-42697499D01*
X50307207Y-42713983D01*
X50259926Y-42737098D01*
X50252361Y-42738200D01*
X50243685Y-42742031D01*
X50175000Y-42750000D01*
X49650000Y-42750000D01*
X49581315Y-42742031D01*
X49572638Y-42738200D01*
X49565074Y-42737098D01*
X49517787Y-42713981D01*
X49480459Y-42697499D01*
X49477002Y-42694042D01*
X49476079Y-42693591D01*
X49406408Y-42623920D01*
X49405956Y-42622996D01*
X49402501Y-42619541D01*
X49386025Y-42582228D01*
X49362901Y-42534926D01*
X49361798Y-42527357D01*
X49357969Y-42518685D01*
X49350000Y-42450000D01*
X49350000Y-41550000D01*
X49357969Y-41481315D01*
X49361798Y-41472642D01*
X49362901Y-41465074D01*
X49386028Y-41417766D01*
X49402501Y-41380459D01*
X49405955Y-41377004D01*
X49406408Y-41376079D01*
X49476079Y-41306408D01*
X49477004Y-41305955D01*
X49480459Y-41302501D01*
X49517761Y-41286030D01*
X49565073Y-41262901D01*
X49572642Y-41261798D01*
X49581315Y-41257969D01*
X49650000Y-41250000D01*
X50175000Y-41250000D01*
X50243685Y-41257969D01*
G37*
G36*
X28601537Y-41665224D02*
G01*
X28666421Y-41708579D01*
X28709776Y-41773463D01*
X28725000Y-41850000D01*
X28725000Y-42150000D01*
X28709776Y-42226537D01*
X28666421Y-42291421D01*
X28601537Y-42334776D01*
X28525000Y-42350000D01*
X27350000Y-42350000D01*
X27273463Y-42334776D01*
X27208579Y-42291421D01*
X27165224Y-42226537D01*
X27150000Y-42150000D01*
X27150000Y-41850000D01*
X27165224Y-41773463D01*
X27208579Y-41708579D01*
X27273463Y-41665224D01*
X27350000Y-41650000D01*
X28525000Y-41650000D01*
X28601537Y-41665224D01*
G37*
G36*
X43601537Y-41665224D02*
G01*
X43666421Y-41708579D01*
X43709776Y-41773463D01*
X43725000Y-41850000D01*
X43725000Y-42150000D01*
X43709776Y-42226537D01*
X43666421Y-42291421D01*
X43601537Y-42334776D01*
X43525000Y-42350000D01*
X42350000Y-42350000D01*
X42273463Y-42334776D01*
X42208579Y-42291421D01*
X42165224Y-42226537D01*
X42150000Y-42150000D01*
X42150000Y-41850000D01*
X42165224Y-41773463D01*
X42208579Y-41708579D01*
X42273463Y-41665224D01*
X42350000Y-41650000D01*
X43525000Y-41650000D01*
X43601537Y-41665224D01*
G37*
G36*
X26726537Y-40715224D02*
G01*
X26791421Y-40758579D01*
X26834776Y-40823463D01*
X26850000Y-40900000D01*
X26850000Y-41200000D01*
X26834776Y-41276537D01*
X26791421Y-41341421D01*
X26726537Y-41384776D01*
X26650000Y-41400000D01*
X25475000Y-41400000D01*
X25398463Y-41384776D01*
X25333579Y-41341421D01*
X25290224Y-41276537D01*
X25275000Y-41200000D01*
X25275000Y-40900000D01*
X25290224Y-40823463D01*
X25333579Y-40758579D01*
X25398463Y-40715224D01*
X25475000Y-40700000D01*
X26650000Y-40700000D01*
X26726537Y-40715224D01*
G37*
G36*
X41726537Y-40715224D02*
G01*
X41791421Y-40758579D01*
X41834776Y-40823463D01*
X41850000Y-40900000D01*
X41850000Y-41200000D01*
X41834776Y-41276537D01*
X41791421Y-41341421D01*
X41726537Y-41384776D01*
X41650000Y-41400000D01*
X40475000Y-41400000D01*
X40398463Y-41384776D01*
X40333579Y-41341421D01*
X40290224Y-41276537D01*
X40275000Y-41200000D01*
X40275000Y-40900000D01*
X40290224Y-40823463D01*
X40333579Y-40758579D01*
X40398463Y-40715224D01*
X40475000Y-40700000D01*
X41650000Y-40700000D01*
X41726537Y-40715224D01*
G37*
G36*
X11373504Y-35257803D02*
G01*
X11378285Y-35259914D01*
X11381064Y-35260280D01*
X11415822Y-35276488D01*
X11472259Y-35301407D01*
X11548593Y-35377741D01*
X11573521Y-35434198D01*
X11589719Y-35468935D01*
X11590084Y-35471711D01*
X11592197Y-35476496D01*
X11600000Y-35543750D01*
X11600000Y-36456250D01*
X11592197Y-36523504D01*
X11590084Y-36528288D01*
X11589719Y-36531064D01*
X11573529Y-36565782D01*
X11548593Y-36622259D01*
X11472259Y-36698593D01*
X11415782Y-36723529D01*
X11381064Y-36739719D01*
X11378288Y-36740084D01*
X11373504Y-36742197D01*
X11306250Y-36750000D01*
X10818750Y-36750000D01*
X10751496Y-36742197D01*
X10746711Y-36740084D01*
X10743935Y-36739719D01*
X10709198Y-36723521D01*
X10652741Y-36698593D01*
X10576407Y-36622259D01*
X10551488Y-36565822D01*
X10535280Y-36531064D01*
X10534914Y-36528285D01*
X10532803Y-36523504D01*
X10525000Y-36456250D01*
X10525000Y-35543750D01*
X10532803Y-35476496D01*
X10534914Y-35471714D01*
X10535280Y-35468935D01*
X10551496Y-35434158D01*
X10576407Y-35377741D01*
X10652741Y-35301407D01*
X10709158Y-35276496D01*
X10743935Y-35260280D01*
X10746714Y-35259914D01*
X10751496Y-35257803D01*
X10818750Y-35250000D01*
X11306250Y-35250000D01*
X11373504Y-35257803D01*
G37*
G36*
X13248504Y-35257803D02*
G01*
X13253285Y-35259914D01*
X13256064Y-35260280D01*
X13290822Y-35276488D01*
X13347259Y-35301407D01*
X13423593Y-35377741D01*
X13448521Y-35434198D01*
X13464719Y-35468935D01*
X13465084Y-35471711D01*
X13467197Y-35476496D01*
X13475000Y-35543750D01*
X13475000Y-36456250D01*
X13467197Y-36523504D01*
X13465084Y-36528288D01*
X13464719Y-36531064D01*
X13448529Y-36565782D01*
X13423593Y-36622259D01*
X13347259Y-36698593D01*
X13290782Y-36723529D01*
X13256064Y-36739719D01*
X13253288Y-36740084D01*
X13248504Y-36742197D01*
X13181250Y-36750000D01*
X12693750Y-36750000D01*
X12626496Y-36742197D01*
X12621711Y-36740084D01*
X12618935Y-36739719D01*
X12584198Y-36723521D01*
X12527741Y-36698593D01*
X12451407Y-36622259D01*
X12426488Y-36565822D01*
X12410280Y-36531064D01*
X12409914Y-36528285D01*
X12407803Y-36523504D01*
X12400000Y-36456250D01*
X12400000Y-35543750D01*
X12407803Y-35476496D01*
X12409914Y-35471714D01*
X12410280Y-35468935D01*
X12426496Y-35434158D01*
X12451407Y-35377741D01*
X12527741Y-35301407D01*
X12584158Y-35276496D01*
X12618935Y-35260280D01*
X12621714Y-35259914D01*
X12626496Y-35257803D01*
X12693750Y-35250000D01*
X13181250Y-35250000D01*
X13248504Y-35257803D01*
G37*
G36*
X26373504Y-35257803D02*
G01*
X26378285Y-35259914D01*
X26381064Y-35260280D01*
X26415822Y-35276488D01*
X26472259Y-35301407D01*
X26548593Y-35377741D01*
X26573521Y-35434198D01*
X26589719Y-35468935D01*
X26590084Y-35471711D01*
X26592197Y-35476496D01*
X26600000Y-35543750D01*
X26600000Y-36456250D01*
X26592197Y-36523504D01*
X26590084Y-36528288D01*
X26589719Y-36531064D01*
X26573529Y-36565782D01*
X26548593Y-36622259D01*
X26472259Y-36698593D01*
X26415782Y-36723529D01*
X26381064Y-36739719D01*
X26378288Y-36740084D01*
X26373504Y-36742197D01*
X26306250Y-36750000D01*
X25818750Y-36750000D01*
X25751496Y-36742197D01*
X25746711Y-36740084D01*
X25743935Y-36739719D01*
X25709198Y-36723521D01*
X25652741Y-36698593D01*
X25576407Y-36622259D01*
X25551488Y-36565822D01*
X25535280Y-36531064D01*
X25534914Y-36528285D01*
X25532803Y-36523504D01*
X25525000Y-36456250D01*
X25525000Y-35543750D01*
X25532803Y-35476496D01*
X25534914Y-35471714D01*
X25535280Y-35468935D01*
X25551496Y-35434158D01*
X25576407Y-35377741D01*
X25652741Y-35301407D01*
X25709158Y-35276496D01*
X25743935Y-35260280D01*
X25746714Y-35259914D01*
X25751496Y-35257803D01*
X25818750Y-35250000D01*
X26306250Y-35250000D01*
X26373504Y-35257803D01*
G37*
G36*
X28248504Y-35257803D02*
G01*
X28253285Y-35259914D01*
X28256064Y-35260280D01*
X28290822Y-35276488D01*
X28347259Y-35301407D01*
X28423593Y-35377741D01*
X28448521Y-35434198D01*
X28464719Y-35468935D01*
X28465084Y-35471711D01*
X28467197Y-35476496D01*
X28475000Y-35543750D01*
X28475000Y-36456250D01*
X28467197Y-36523504D01*
X28465084Y-36528288D01*
X28464719Y-36531064D01*
X28448529Y-36565782D01*
X28423593Y-36622259D01*
X28347259Y-36698593D01*
X28290782Y-36723529D01*
X28256064Y-36739719D01*
X28253288Y-36740084D01*
X28248504Y-36742197D01*
X28181250Y-36750000D01*
X27693750Y-36750000D01*
X27626496Y-36742197D01*
X27621711Y-36740084D01*
X27618935Y-36739719D01*
X27584198Y-36723521D01*
X27527741Y-36698593D01*
X27451407Y-36622259D01*
X27426488Y-36565822D01*
X27410280Y-36531064D01*
X27409914Y-36528285D01*
X27407803Y-36523504D01*
X27400000Y-36456250D01*
X27400000Y-35543750D01*
X27407803Y-35476496D01*
X27409914Y-35471714D01*
X27410280Y-35468935D01*
X27426496Y-35434158D01*
X27451407Y-35377741D01*
X27527741Y-35301407D01*
X27584158Y-35276496D01*
X27618935Y-35260280D01*
X27621714Y-35259914D01*
X27626496Y-35257803D01*
X27693750Y-35250000D01*
X28181250Y-35250000D01*
X28248504Y-35257803D01*
G37*
G36*
X41373504Y-35257803D02*
G01*
X41378285Y-35259914D01*
X41381064Y-35260280D01*
X41415822Y-35276488D01*
X41472259Y-35301407D01*
X41548593Y-35377741D01*
X41573521Y-35434198D01*
X41589719Y-35468935D01*
X41590084Y-35471711D01*
X41592197Y-35476496D01*
X41600000Y-35543750D01*
X41600000Y-36456250D01*
X41592197Y-36523504D01*
X41590084Y-36528288D01*
X41589719Y-36531064D01*
X41573529Y-36565782D01*
X41548593Y-36622259D01*
X41472259Y-36698593D01*
X41415782Y-36723529D01*
X41381064Y-36739719D01*
X41378288Y-36740084D01*
X41373504Y-36742197D01*
X41306250Y-36750000D01*
X40818750Y-36750000D01*
X40751496Y-36742197D01*
X40746711Y-36740084D01*
X40743935Y-36739719D01*
X40709198Y-36723521D01*
X40652741Y-36698593D01*
X40576407Y-36622259D01*
X40551488Y-36565822D01*
X40535280Y-36531064D01*
X40534914Y-36528285D01*
X40532803Y-36523504D01*
X40525000Y-36456250D01*
X40525000Y-35543750D01*
X40532803Y-35476496D01*
X40534914Y-35471714D01*
X40535280Y-35468935D01*
X40551496Y-35434158D01*
X40576407Y-35377741D01*
X40652741Y-35301407D01*
X40709158Y-35276496D01*
X40743935Y-35260280D01*
X40746714Y-35259914D01*
X40751496Y-35257803D01*
X40818750Y-35250000D01*
X41306250Y-35250000D01*
X41373504Y-35257803D01*
G37*
G36*
X43248504Y-35257803D02*
G01*
X43253285Y-35259914D01*
X43256064Y-35260280D01*
X43290822Y-35276488D01*
X43347259Y-35301407D01*
X43423593Y-35377741D01*
X43448521Y-35434198D01*
X43464719Y-35468935D01*
X43465084Y-35471711D01*
X43467197Y-35476496D01*
X43475000Y-35543750D01*
X43475000Y-36456250D01*
X43467197Y-36523504D01*
X43465084Y-36528288D01*
X43464719Y-36531064D01*
X43448529Y-36565782D01*
X43423593Y-36622259D01*
X43347259Y-36698593D01*
X43290782Y-36723529D01*
X43256064Y-36739719D01*
X43253288Y-36740084D01*
X43248504Y-36742197D01*
X43181250Y-36750000D01*
X42693750Y-36750000D01*
X42626496Y-36742197D01*
X42621711Y-36740084D01*
X42618935Y-36739719D01*
X42584198Y-36723521D01*
X42527741Y-36698593D01*
X42451407Y-36622259D01*
X42426488Y-36565822D01*
X42410280Y-36531064D01*
X42409914Y-36528285D01*
X42407803Y-36523504D01*
X42400000Y-36456250D01*
X42400000Y-35543750D01*
X42407803Y-35476496D01*
X42409914Y-35471714D01*
X42410280Y-35468935D01*
X42426496Y-35434158D01*
X42451407Y-35377741D01*
X42527741Y-35301407D01*
X42584158Y-35276496D01*
X42618935Y-35260280D01*
X42621714Y-35259914D01*
X42626496Y-35257803D01*
X42693750Y-35250000D01*
X43181250Y-35250000D01*
X43248504Y-35257803D01*
G37*
G36*
X10268685Y-31632969D02*
G01*
X10277358Y-31636798D01*
X10284925Y-31637901D01*
X10332223Y-31661023D01*
X10369541Y-31677501D01*
X10372996Y-31680956D01*
X10373920Y-31681408D01*
X10443591Y-31751079D01*
X10444042Y-31752002D01*
X10447499Y-31755459D01*
X10463978Y-31792782D01*
X10487098Y-31840073D01*
X10488200Y-31847639D01*
X10492031Y-31856315D01*
X10500000Y-31925000D01*
X10500000Y-32875000D01*
X10492031Y-32943685D01*
X10488199Y-32952361D01*
X10487098Y-32959925D01*
X10463985Y-33007202D01*
X10447499Y-33044541D01*
X10444041Y-33047998D01*
X10443591Y-33048920D01*
X10373920Y-33118591D01*
X10372998Y-33119041D01*
X10369541Y-33122499D01*
X10332207Y-33138983D01*
X10284926Y-33162098D01*
X10277361Y-33163200D01*
X10268685Y-33167031D01*
X10200000Y-33175000D01*
X9700000Y-33175000D01*
X9631315Y-33167031D01*
X9622638Y-33163200D01*
X9615074Y-33162098D01*
X9567787Y-33138981D01*
X9530459Y-33122499D01*
X9527002Y-33119042D01*
X9526079Y-33118591D01*
X9456408Y-33048920D01*
X9455956Y-33047996D01*
X9452501Y-33044541D01*
X9436025Y-33007228D01*
X9412901Y-32959926D01*
X9411798Y-32952357D01*
X9407969Y-32943685D01*
X9400000Y-32875000D01*
X9400000Y-31925000D01*
X9407969Y-31856315D01*
X9411798Y-31847642D01*
X9412901Y-31840074D01*
X9436028Y-31792766D01*
X9452501Y-31755459D01*
X9455955Y-31752004D01*
X9456408Y-31751079D01*
X9526079Y-31681408D01*
X9527004Y-31680955D01*
X9530459Y-31677501D01*
X9567761Y-31661030D01*
X9615073Y-31637901D01*
X9622642Y-31636798D01*
X9631315Y-31632969D01*
X9700000Y-31625000D01*
X10200000Y-31625000D01*
X10268685Y-31632969D01*
G37*
G36*
X12168685Y-31632969D02*
G01*
X12177358Y-31636798D01*
X12184925Y-31637901D01*
X12232223Y-31661023D01*
X12269541Y-31677501D01*
X12272996Y-31680956D01*
X12273920Y-31681408D01*
X12343591Y-31751079D01*
X12344042Y-31752002D01*
X12347499Y-31755459D01*
X12363978Y-31792782D01*
X12387098Y-31840073D01*
X12388200Y-31847639D01*
X12392031Y-31856315D01*
X12400000Y-31925000D01*
X12400000Y-32875000D01*
X12392031Y-32943685D01*
X12388199Y-32952361D01*
X12387098Y-32959925D01*
X12363985Y-33007202D01*
X12347499Y-33044541D01*
X12344041Y-33047998D01*
X12343591Y-33048920D01*
X12273920Y-33118591D01*
X12272998Y-33119041D01*
X12269541Y-33122499D01*
X12232207Y-33138983D01*
X12184926Y-33162098D01*
X12177361Y-33163200D01*
X12168685Y-33167031D01*
X12100000Y-33175000D01*
X11600000Y-33175000D01*
X11531315Y-33167031D01*
X11522638Y-33163200D01*
X11515074Y-33162098D01*
X11467787Y-33138981D01*
X11430459Y-33122499D01*
X11427002Y-33119042D01*
X11426079Y-33118591D01*
X11356408Y-33048920D01*
X11355956Y-33047996D01*
X11352501Y-33044541D01*
X11336025Y-33007228D01*
X11312901Y-32959926D01*
X11311798Y-32952357D01*
X11307969Y-32943685D01*
X11300000Y-32875000D01*
X11300000Y-31925000D01*
X11307969Y-31856315D01*
X11311798Y-31847642D01*
X11312901Y-31840074D01*
X11336028Y-31792766D01*
X11352501Y-31755459D01*
X11355955Y-31752004D01*
X11356408Y-31751079D01*
X11426079Y-31681408D01*
X11427004Y-31680955D01*
X11430459Y-31677501D01*
X11467761Y-31661030D01*
X11515073Y-31637901D01*
X11522642Y-31636798D01*
X11531315Y-31632969D01*
X11600000Y-31625000D01*
X12100000Y-31625000D01*
X12168685Y-31632969D01*
G37*
G36*
X36118685Y-29532969D02*
G01*
X36127358Y-29536798D01*
X36134925Y-29537901D01*
X36182223Y-29561023D01*
X36219541Y-29577501D01*
X36222996Y-29580956D01*
X36223920Y-29581408D01*
X36293591Y-29651079D01*
X36294042Y-29652002D01*
X36297499Y-29655459D01*
X36313978Y-29692782D01*
X36337098Y-29740073D01*
X36338200Y-29747639D01*
X36342031Y-29756315D01*
X36350000Y-29825000D01*
X36350000Y-30775000D01*
X36342031Y-30843685D01*
X36338199Y-30852361D01*
X36337098Y-30859925D01*
X36313985Y-30907202D01*
X36297499Y-30944541D01*
X36294041Y-30947998D01*
X36293591Y-30948920D01*
X36223920Y-31018591D01*
X36222998Y-31019041D01*
X36219541Y-31022499D01*
X36182207Y-31038983D01*
X36134926Y-31062098D01*
X36127361Y-31063200D01*
X36118685Y-31067031D01*
X36050000Y-31075000D01*
X35550000Y-31075000D01*
X35481315Y-31067031D01*
X35472638Y-31063200D01*
X35465074Y-31062098D01*
X35417787Y-31038981D01*
X35380459Y-31022499D01*
X35377002Y-31019042D01*
X35376079Y-31018591D01*
X35306408Y-30948920D01*
X35305956Y-30947996D01*
X35302501Y-30944541D01*
X35286025Y-30907228D01*
X35262901Y-30859926D01*
X35261798Y-30852357D01*
X35257969Y-30843685D01*
X35250000Y-30775000D01*
X35250000Y-29825000D01*
X35257969Y-29756315D01*
X35261798Y-29747642D01*
X35262901Y-29740074D01*
X35286028Y-29692766D01*
X35302501Y-29655459D01*
X35305955Y-29652004D01*
X35306408Y-29651079D01*
X35376079Y-29581408D01*
X35377004Y-29580955D01*
X35380459Y-29577501D01*
X35417761Y-29561030D01*
X35465073Y-29537901D01*
X35472642Y-29536798D01*
X35481315Y-29532969D01*
X35550000Y-29525000D01*
X36050000Y-29525000D01*
X36118685Y-29532969D01*
G37*
G36*
X38018685Y-29532969D02*
G01*
X38027358Y-29536798D01*
X38034925Y-29537901D01*
X38082223Y-29561023D01*
X38119541Y-29577501D01*
X38122996Y-29580956D01*
X38123920Y-29581408D01*
X38193591Y-29651079D01*
X38194042Y-29652002D01*
X38197499Y-29655459D01*
X38213978Y-29692782D01*
X38237098Y-29740073D01*
X38238200Y-29747639D01*
X38242031Y-29756315D01*
X38250000Y-29825000D01*
X38250000Y-30775000D01*
X38242031Y-30843685D01*
X38238199Y-30852361D01*
X38237098Y-30859925D01*
X38213985Y-30907202D01*
X38197499Y-30944541D01*
X38194041Y-30947998D01*
X38193591Y-30948920D01*
X38123920Y-31018591D01*
X38122998Y-31019041D01*
X38119541Y-31022499D01*
X38082207Y-31038983D01*
X38034926Y-31062098D01*
X38027361Y-31063200D01*
X38018685Y-31067031D01*
X37950000Y-31075000D01*
X37450000Y-31075000D01*
X37381315Y-31067031D01*
X37372638Y-31063200D01*
X37365074Y-31062098D01*
X37317787Y-31038981D01*
X37280459Y-31022499D01*
X37277002Y-31019042D01*
X37276079Y-31018591D01*
X37206408Y-30948920D01*
X37205956Y-30947996D01*
X37202501Y-30944541D01*
X37186025Y-30907228D01*
X37162901Y-30859926D01*
X37161798Y-30852357D01*
X37157969Y-30843685D01*
X37150000Y-30775000D01*
X37150000Y-29825000D01*
X37157969Y-29756315D01*
X37161798Y-29747642D01*
X37162901Y-29740074D01*
X37186028Y-29692766D01*
X37202501Y-29655459D01*
X37205955Y-29652004D01*
X37206408Y-29651079D01*
X37276079Y-29581408D01*
X37277004Y-29580955D01*
X37280459Y-29577501D01*
X37317761Y-29561030D01*
X37365073Y-29537901D01*
X37372642Y-29536798D01*
X37381315Y-29532969D01*
X37450000Y-29525000D01*
X37950000Y-29525000D01*
X38018685Y-29532969D01*
G37*
G36*
X46168685Y-29557969D02*
G01*
X46177358Y-29561798D01*
X46184925Y-29562901D01*
X46232223Y-29586023D01*
X46269541Y-29602501D01*
X46272996Y-29605956D01*
X46273920Y-29606408D01*
X46343591Y-29676079D01*
X46344042Y-29677002D01*
X46347499Y-29680459D01*
X46363978Y-29717782D01*
X46387098Y-29765073D01*
X46388200Y-29772639D01*
X46392031Y-29781315D01*
X46400000Y-29850000D01*
X46400000Y-30750000D01*
X46392031Y-30818685D01*
X46388199Y-30827361D01*
X46387098Y-30834925D01*
X46363985Y-30882202D01*
X46347499Y-30919541D01*
X46344041Y-30922998D01*
X46343591Y-30923920D01*
X46273920Y-30993591D01*
X46272998Y-30994041D01*
X46269541Y-30997499D01*
X46232207Y-31013983D01*
X46184926Y-31037098D01*
X46177361Y-31038200D01*
X46168685Y-31042031D01*
X46100000Y-31050000D01*
X45575000Y-31050000D01*
X45506315Y-31042031D01*
X45497638Y-31038200D01*
X45490074Y-31037098D01*
X45442787Y-31013981D01*
X45405459Y-30997499D01*
X45402002Y-30994042D01*
X45401079Y-30993591D01*
X45331408Y-30923920D01*
X45330956Y-30922996D01*
X45327501Y-30919541D01*
X45311025Y-30882228D01*
X45287901Y-30834926D01*
X45286798Y-30827357D01*
X45282969Y-30818685D01*
X45275000Y-30750000D01*
X45275000Y-29850000D01*
X45282969Y-29781315D01*
X45286798Y-29772642D01*
X45287901Y-29765074D01*
X45311028Y-29717766D01*
X45327501Y-29680459D01*
X45330955Y-29677004D01*
X45331408Y-29676079D01*
X45401079Y-29606408D01*
X45402004Y-29605955D01*
X45405459Y-29602501D01*
X45442761Y-29586030D01*
X45490073Y-29562901D01*
X45497642Y-29561798D01*
X45506315Y-29557969D01*
X45575000Y-29550000D01*
X46100000Y-29550000D01*
X46168685Y-29557969D01*
G37*
G36*
X47993685Y-29557969D02*
G01*
X48002358Y-29561798D01*
X48009925Y-29562901D01*
X48057223Y-29586023D01*
X48094541Y-29602501D01*
X48097996Y-29605956D01*
X48098920Y-29606408D01*
X48168591Y-29676079D01*
X48169042Y-29677002D01*
X48172499Y-29680459D01*
X48188978Y-29717782D01*
X48212098Y-29765073D01*
X48213200Y-29772639D01*
X48217031Y-29781315D01*
X48225000Y-29850000D01*
X48225000Y-30750000D01*
X48217031Y-30818685D01*
X48213199Y-30827361D01*
X48212098Y-30834925D01*
X48188985Y-30882202D01*
X48172499Y-30919541D01*
X48169041Y-30922998D01*
X48168591Y-30923920D01*
X48098920Y-30993591D01*
X48097998Y-30994041D01*
X48094541Y-30997499D01*
X48057207Y-31013983D01*
X48009926Y-31037098D01*
X48002361Y-31038200D01*
X47993685Y-31042031D01*
X47925000Y-31050000D01*
X47400000Y-31050000D01*
X47331315Y-31042031D01*
X47322638Y-31038200D01*
X47315074Y-31037098D01*
X47267787Y-31013981D01*
X47230459Y-30997499D01*
X47227002Y-30994042D01*
X47226079Y-30993591D01*
X47156408Y-30923920D01*
X47155956Y-30922996D01*
X47152501Y-30919541D01*
X47136025Y-30882228D01*
X47112901Y-30834926D01*
X47111798Y-30827357D01*
X47107969Y-30818685D01*
X47100000Y-30750000D01*
X47100000Y-29850000D01*
X47107969Y-29781315D01*
X47111798Y-29772642D01*
X47112901Y-29765074D01*
X47136028Y-29717766D01*
X47152501Y-29680459D01*
X47155955Y-29677004D01*
X47156408Y-29676079D01*
X47226079Y-29606408D01*
X47227004Y-29605955D01*
X47230459Y-29602501D01*
X47267761Y-29586030D01*
X47315073Y-29562901D01*
X47322642Y-29561798D01*
X47331315Y-29557969D01*
X47400000Y-29550000D01*
X47925000Y-29550000D01*
X47993685Y-29557969D01*
G37*
G36*
X23641537Y-24265224D02*
G01*
X23706421Y-24308579D01*
X23749776Y-24373463D01*
X23765000Y-24450000D01*
X23765000Y-26000000D01*
X23749776Y-26076537D01*
X23706421Y-26141421D01*
X23641537Y-26184776D01*
X23565000Y-26200000D01*
X23265000Y-26200000D01*
X23188463Y-26184776D01*
X23123579Y-26141421D01*
X23080224Y-26076537D01*
X23065000Y-26000000D01*
X23065000Y-24450000D01*
X23080224Y-24373463D01*
X23123579Y-24308579D01*
X23188463Y-24265224D01*
X23265000Y-24250000D01*
X23565000Y-24250000D01*
X23641537Y-24265224D01*
G37*
G36*
X24911537Y-24265224D02*
G01*
X24976421Y-24308579D01*
X25019776Y-24373463D01*
X25035000Y-24450000D01*
X25035000Y-26000000D01*
X25019776Y-26076537D01*
X24976421Y-26141421D01*
X24911537Y-26184776D01*
X24835000Y-26200000D01*
X24535000Y-26200000D01*
X24458463Y-26184776D01*
X24393579Y-26141421D01*
X24350224Y-26076537D01*
X24335000Y-26000000D01*
X24335000Y-24450000D01*
X24350224Y-24373463D01*
X24393579Y-24308579D01*
X24458463Y-24265224D01*
X24535000Y-24250000D01*
X24835000Y-24250000D01*
X24911537Y-24265224D01*
G37*
G36*
X26181537Y-24265224D02*
G01*
X26246421Y-24308579D01*
X26289776Y-24373463D01*
X26305000Y-24450000D01*
X26305000Y-26000000D01*
X26289776Y-26076537D01*
X26246421Y-26141421D01*
X26181537Y-26184776D01*
X26105000Y-26200000D01*
X25805000Y-26200000D01*
X25728463Y-26184776D01*
X25663579Y-26141421D01*
X25620224Y-26076537D01*
X25605000Y-26000000D01*
X25605000Y-24450000D01*
X25620224Y-24373463D01*
X25663579Y-24308579D01*
X25728463Y-24265224D01*
X25805000Y-24250000D01*
X26105000Y-24250000D01*
X26181537Y-24265224D01*
G37*
G36*
X27451537Y-24265224D02*
G01*
X27516421Y-24308579D01*
X27559776Y-24373463D01*
X27575000Y-24450000D01*
X27575000Y-26000000D01*
X27559776Y-26076537D01*
X27516421Y-26141421D01*
X27451537Y-26184776D01*
X27375000Y-26200000D01*
X27075000Y-26200000D01*
X26998463Y-26184776D01*
X26933579Y-26141421D01*
X26890224Y-26076537D01*
X26875000Y-26000000D01*
X26875000Y-24450000D01*
X26890224Y-24373463D01*
X26933579Y-24308579D01*
X26998463Y-24265224D01*
X27075000Y-24250000D01*
X27375000Y-24250000D01*
X27451537Y-24265224D01*
G37*
G36*
X28721537Y-24265224D02*
G01*
X28786421Y-24308579D01*
X28829776Y-24373463D01*
X28845000Y-24450000D01*
X28845000Y-26000000D01*
X28829776Y-26076537D01*
X28786421Y-26141421D01*
X28721537Y-26184776D01*
X28645000Y-26200000D01*
X28345000Y-26200000D01*
X28268463Y-26184776D01*
X28203579Y-26141421D01*
X28160224Y-26076537D01*
X28145000Y-26000000D01*
X28145000Y-24450000D01*
X28160224Y-24373463D01*
X28203579Y-24308579D01*
X28268463Y-24265224D01*
X28345000Y-24250000D01*
X28645000Y-24250000D01*
X28721537Y-24265224D01*
G37*
G36*
X29991537Y-24265224D02*
G01*
X30056421Y-24308579D01*
X30099776Y-24373463D01*
X30115000Y-24450000D01*
X30115000Y-26000000D01*
X30099776Y-26076537D01*
X30056421Y-26141421D01*
X29991537Y-26184776D01*
X29915000Y-26200000D01*
X29615000Y-26200000D01*
X29538463Y-26184776D01*
X29473579Y-26141421D01*
X29430224Y-26076537D01*
X29415000Y-26000000D01*
X29415000Y-24450000D01*
X29430224Y-24373463D01*
X29473579Y-24308579D01*
X29538463Y-24265224D01*
X29615000Y-24250000D01*
X29915000Y-24250000D01*
X29991537Y-24265224D01*
G37*
G36*
X31261537Y-24265224D02*
G01*
X31326421Y-24308579D01*
X31369776Y-24373463D01*
X31385000Y-24450000D01*
X31385000Y-26000000D01*
X31369776Y-26076537D01*
X31326421Y-26141421D01*
X31261537Y-26184776D01*
X31185000Y-26200000D01*
X30885000Y-26200000D01*
X30808463Y-26184776D01*
X30743579Y-26141421D01*
X30700224Y-26076537D01*
X30685000Y-26000000D01*
X30685000Y-24450000D01*
X30700224Y-24373463D01*
X30743579Y-24308579D01*
X30808463Y-24265224D01*
X30885000Y-24250000D01*
X31185000Y-24250000D01*
X31261537Y-24265224D01*
G37*
G36*
X32531537Y-24265224D02*
G01*
X32596421Y-24308579D01*
X32639776Y-24373463D01*
X32655000Y-24450000D01*
X32655000Y-26000000D01*
X32639776Y-26076537D01*
X32596421Y-26141421D01*
X32531537Y-26184776D01*
X32455000Y-26200000D01*
X32155000Y-26200000D01*
X32078463Y-26184776D01*
X32013579Y-26141421D01*
X31970224Y-26076537D01*
X31955000Y-26000000D01*
X31955000Y-24450000D01*
X31970224Y-24373463D01*
X32013579Y-24308579D01*
X32078463Y-24265224D01*
X32155000Y-24250000D01*
X32455000Y-24250000D01*
X32531537Y-24265224D01*
G37*
G36*
X33801537Y-24265224D02*
G01*
X33866421Y-24308579D01*
X33909776Y-24373463D01*
X33925000Y-24450000D01*
X33925000Y-26000000D01*
X33909776Y-26076537D01*
X33866421Y-26141421D01*
X33801537Y-26184776D01*
X33725000Y-26200000D01*
X33425000Y-26200000D01*
X33348463Y-26184776D01*
X33283579Y-26141421D01*
X33240224Y-26076537D01*
X33225000Y-26000000D01*
X33225000Y-24450000D01*
X33240224Y-24373463D01*
X33283579Y-24308579D01*
X33348463Y-24265224D01*
X33425000Y-24250000D01*
X33725000Y-24250000D01*
X33801537Y-24265224D01*
G37*
G36*
X35071537Y-24265224D02*
G01*
X35136421Y-24308579D01*
X35179776Y-24373463D01*
X35195000Y-24450000D01*
X35195000Y-26000000D01*
X35179776Y-26076537D01*
X35136421Y-26141421D01*
X35071537Y-26184776D01*
X34995000Y-26200000D01*
X34695000Y-26200000D01*
X34618463Y-26184776D01*
X34553579Y-26141421D01*
X34510224Y-26076537D01*
X34495000Y-26000000D01*
X34495000Y-24450000D01*
X34510224Y-24373463D01*
X34553579Y-24308579D01*
X34618463Y-24265224D01*
X34695000Y-24250000D01*
X34995000Y-24250000D01*
X35071537Y-24265224D01*
G37*
G36*
X36341537Y-24265224D02*
G01*
X36406421Y-24308579D01*
X36449776Y-24373463D01*
X36465000Y-24450000D01*
X36465000Y-26000000D01*
X36449776Y-26076537D01*
X36406421Y-26141421D01*
X36341537Y-26184776D01*
X36265000Y-26200000D01*
X35965000Y-26200000D01*
X35888463Y-26184776D01*
X35823579Y-26141421D01*
X35780224Y-26076537D01*
X35765000Y-26000000D01*
X35765000Y-24450000D01*
X35780224Y-24373463D01*
X35823579Y-24308579D01*
X35888463Y-24265224D01*
X35965000Y-24250000D01*
X36265000Y-24250000D01*
X36341537Y-24265224D01*
G37*
G36*
X37611537Y-24265224D02*
G01*
X37676421Y-24308579D01*
X37719776Y-24373463D01*
X37735000Y-24450000D01*
X37735000Y-26000000D01*
X37719776Y-26076537D01*
X37676421Y-26141421D01*
X37611537Y-26184776D01*
X37535000Y-26200000D01*
X37235000Y-26200000D01*
X37158463Y-26184776D01*
X37093579Y-26141421D01*
X37050224Y-26076537D01*
X37035000Y-26000000D01*
X37035000Y-24450000D01*
X37050224Y-24373463D01*
X37093579Y-24308579D01*
X37158463Y-24265224D01*
X37235000Y-24250000D01*
X37535000Y-24250000D01*
X37611537Y-24265224D01*
G37*
G36*
X38881537Y-24265224D02*
G01*
X38946421Y-24308579D01*
X38989776Y-24373463D01*
X39005000Y-24450000D01*
X39005000Y-26000000D01*
X38989776Y-26076537D01*
X38946421Y-26141421D01*
X38881537Y-26184776D01*
X38805000Y-26200000D01*
X38505000Y-26200000D01*
X38428463Y-26184776D01*
X38363579Y-26141421D01*
X38320224Y-26076537D01*
X38305000Y-26000000D01*
X38305000Y-24450000D01*
X38320224Y-24373463D01*
X38363579Y-24308579D01*
X38428463Y-24265224D01*
X38505000Y-24250000D01*
X38805000Y-24250000D01*
X38881537Y-24265224D01*
G37*
G36*
X40151537Y-24265224D02*
G01*
X40216421Y-24308579D01*
X40259776Y-24373463D01*
X40275000Y-24450000D01*
X40275000Y-26000000D01*
X40259776Y-26076537D01*
X40216421Y-26141421D01*
X40151537Y-26184776D01*
X40075000Y-26200000D01*
X39775000Y-26200000D01*
X39698463Y-26184776D01*
X39633579Y-26141421D01*
X39590224Y-26076537D01*
X39575000Y-26000000D01*
X39575000Y-24450000D01*
X39590224Y-24373463D01*
X39633579Y-24308579D01*
X39698463Y-24265224D01*
X39775000Y-24250000D01*
X40075000Y-24250000D01*
X40151537Y-24265224D01*
G37*
G36*
X41421537Y-24265224D02*
G01*
X41486421Y-24308579D01*
X41529776Y-24373463D01*
X41545000Y-24450000D01*
X41545000Y-26000000D01*
X41529776Y-26076537D01*
X41486421Y-26141421D01*
X41421537Y-26184776D01*
X41345000Y-26200000D01*
X41045000Y-26200000D01*
X40968463Y-26184776D01*
X40903579Y-26141421D01*
X40860224Y-26076537D01*
X40845000Y-26000000D01*
X40845000Y-24450000D01*
X40860224Y-24373463D01*
X40903579Y-24308579D01*
X40968463Y-24265224D01*
X41045000Y-24250000D01*
X41345000Y-24250000D01*
X41421537Y-24265224D01*
G37*
G36*
X42691537Y-24265224D02*
G01*
X42756421Y-24308579D01*
X42799776Y-24373463D01*
X42815000Y-24450000D01*
X42815000Y-26000000D01*
X42799776Y-26076537D01*
X42756421Y-26141421D01*
X42691537Y-26184776D01*
X42615000Y-26200000D01*
X42315000Y-26200000D01*
X42238463Y-26184776D01*
X42173579Y-26141421D01*
X42130224Y-26076537D01*
X42115000Y-26000000D01*
X42115000Y-24450000D01*
X42130224Y-24373463D01*
X42173579Y-24308579D01*
X42238463Y-24265224D01*
X42315000Y-24250000D01*
X42615000Y-24250000D01*
X42691537Y-24265224D01*
G37*
G36*
X43961537Y-24265224D02*
G01*
X44026421Y-24308579D01*
X44069776Y-24373463D01*
X44085000Y-24450000D01*
X44085000Y-26000000D01*
X44069776Y-26076537D01*
X44026421Y-26141421D01*
X43961537Y-26184776D01*
X43885000Y-26200000D01*
X43585000Y-26200000D01*
X43508463Y-26184776D01*
X43443579Y-26141421D01*
X43400224Y-26076537D01*
X43385000Y-26000000D01*
X43385000Y-24450000D01*
X43400224Y-24373463D01*
X43443579Y-24308579D01*
X43508463Y-24265224D01*
X43585000Y-24250000D01*
X43885000Y-24250000D01*
X43961537Y-24265224D01*
G37*
G36*
X45231537Y-24265224D02*
G01*
X45296421Y-24308579D01*
X45339776Y-24373463D01*
X45355000Y-24450000D01*
X45355000Y-26000000D01*
X45339776Y-26076537D01*
X45296421Y-26141421D01*
X45231537Y-26184776D01*
X45155000Y-26200000D01*
X44855000Y-26200000D01*
X44778463Y-26184776D01*
X44713579Y-26141421D01*
X44670224Y-26076537D01*
X44655000Y-26000000D01*
X44655000Y-24450000D01*
X44670224Y-24373463D01*
X44713579Y-24308579D01*
X44778463Y-24265224D01*
X44855000Y-24250000D01*
X45155000Y-24250000D01*
X45231537Y-24265224D01*
G37*
G36*
X46501537Y-24265224D02*
G01*
X46566421Y-24308579D01*
X46609776Y-24373463D01*
X46625000Y-24450000D01*
X46625000Y-26000000D01*
X46609776Y-26076537D01*
X46566421Y-26141421D01*
X46501537Y-26184776D01*
X46425000Y-26200000D01*
X46125000Y-26200000D01*
X46048463Y-26184776D01*
X45983579Y-26141421D01*
X45940224Y-26076537D01*
X45925000Y-26000000D01*
X45925000Y-24450000D01*
X45940224Y-24373463D01*
X45983579Y-24308579D01*
X46048463Y-24265224D01*
X46125000Y-24250000D01*
X46425000Y-24250000D01*
X46501537Y-24265224D01*
G37*
G36*
X47771537Y-24265224D02*
G01*
X47836421Y-24308579D01*
X47879776Y-24373463D01*
X47895000Y-24450000D01*
X47895000Y-26000000D01*
X47879776Y-26076537D01*
X47836421Y-26141421D01*
X47771537Y-26184776D01*
X47695000Y-26200000D01*
X47395000Y-26200000D01*
X47318463Y-26184776D01*
X47253579Y-26141421D01*
X47210224Y-26076537D01*
X47195000Y-26000000D01*
X47195000Y-24450000D01*
X47210224Y-24373463D01*
X47253579Y-24308579D01*
X47318463Y-24265224D01*
X47395000Y-24250000D01*
X47695000Y-24250000D01*
X47771537Y-24265224D01*
G37*
G36*
X49041537Y-24265224D02*
G01*
X49106421Y-24308579D01*
X49149776Y-24373463D01*
X49165000Y-24450000D01*
X49165000Y-26000000D01*
X49149776Y-26076537D01*
X49106421Y-26141421D01*
X49041537Y-26184776D01*
X48965000Y-26200000D01*
X48665000Y-26200000D01*
X48588463Y-26184776D01*
X48523579Y-26141421D01*
X48480224Y-26076537D01*
X48465000Y-26000000D01*
X48465000Y-24450000D01*
X48480224Y-24373463D01*
X48523579Y-24308579D01*
X48588463Y-24265224D01*
X48665000Y-24250000D01*
X48965000Y-24250000D01*
X49041537Y-24265224D01*
G37*
G36*
X50311537Y-24265224D02*
G01*
X50376421Y-24308579D01*
X50419776Y-24373463D01*
X50435000Y-24450000D01*
X50435000Y-26000000D01*
X50419776Y-26076537D01*
X50376421Y-26141421D01*
X50311537Y-26184776D01*
X50235000Y-26200000D01*
X49935000Y-26200000D01*
X49858463Y-26184776D01*
X49793579Y-26141421D01*
X49750224Y-26076537D01*
X49735000Y-26000000D01*
X49735000Y-24450000D01*
X49750224Y-24373463D01*
X49793579Y-24308579D01*
X49858463Y-24265224D01*
X49935000Y-24250000D01*
X50235000Y-24250000D01*
X50311537Y-24265224D01*
G37*
G36*
X7201537Y-25350224D02*
G01*
X7266421Y-25393579D01*
X7309776Y-25458463D01*
X7325000Y-25535000D01*
X7325000Y-25835000D01*
X7309776Y-25911537D01*
X7266421Y-25976421D01*
X7201537Y-26019776D01*
X7125000Y-26035000D01*
X5375000Y-26035000D01*
X5298463Y-26019776D01*
X5233579Y-25976421D01*
X5190224Y-25911537D01*
X5175000Y-25835000D01*
X5175000Y-25535000D01*
X5190224Y-25458463D01*
X5233579Y-25393579D01*
X5298463Y-25350224D01*
X5375000Y-25335000D01*
X7125000Y-25335000D01*
X7201537Y-25350224D01*
G37*
G36*
X16501537Y-25350224D02*
G01*
X16566421Y-25393579D01*
X16609776Y-25458463D01*
X16625000Y-25535000D01*
X16625000Y-25835000D01*
X16609776Y-25911537D01*
X16566421Y-25976421D01*
X16501537Y-26019776D01*
X16425000Y-26035000D01*
X14675000Y-26035000D01*
X14598463Y-26019776D01*
X14533579Y-25976421D01*
X14490224Y-25911537D01*
X14475000Y-25835000D01*
X14475000Y-25535000D01*
X14490224Y-25458463D01*
X14533579Y-25393579D01*
X14598463Y-25350224D01*
X14675000Y-25335000D01*
X16425000Y-25335000D01*
X16501537Y-25350224D01*
G37*
G36*
X7201537Y-24080224D02*
G01*
X7266421Y-24123579D01*
X7309776Y-24188463D01*
X7325000Y-24265000D01*
X7325000Y-24565000D01*
X7309776Y-24641537D01*
X7266421Y-24706421D01*
X7201537Y-24749776D01*
X7125000Y-24765000D01*
X5375000Y-24765000D01*
X5298463Y-24749776D01*
X5233579Y-24706421D01*
X5190224Y-24641537D01*
X5175000Y-24565000D01*
X5175000Y-24265000D01*
X5190224Y-24188463D01*
X5233579Y-24123579D01*
X5298463Y-24080224D01*
X5375000Y-24065000D01*
X7125000Y-24065000D01*
X7201537Y-24080224D01*
G37*
G36*
X16501537Y-24080224D02*
G01*
X16566421Y-24123579D01*
X16609776Y-24188463D01*
X16625000Y-24265000D01*
X16625000Y-24565000D01*
X16609776Y-24641537D01*
X16566421Y-24706421D01*
X16501537Y-24749776D01*
X16425000Y-24765000D01*
X14675000Y-24765000D01*
X14598463Y-24749776D01*
X14533579Y-24706421D01*
X14490224Y-24641537D01*
X14475000Y-24565000D01*
X14475000Y-24265000D01*
X14490224Y-24188463D01*
X14533579Y-24123579D01*
X14598463Y-24080224D01*
X14675000Y-24065000D01*
X16425000Y-24065000D01*
X16501537Y-24080224D01*
G37*
G36*
X7201537Y-22810224D02*
G01*
X7266421Y-22853579D01*
X7309776Y-22918463D01*
X7325000Y-22995000D01*
X7325000Y-23295000D01*
X7309776Y-23371537D01*
X7266421Y-23436421D01*
X7201537Y-23479776D01*
X7125000Y-23495000D01*
X5375000Y-23495000D01*
X5298463Y-23479776D01*
X5233579Y-23436421D01*
X5190224Y-23371537D01*
X5175000Y-23295000D01*
X5175000Y-22995000D01*
X5190224Y-22918463D01*
X5233579Y-22853579D01*
X5298463Y-22810224D01*
X5375000Y-22795000D01*
X7125000Y-22795000D01*
X7201537Y-22810224D01*
G37*
G36*
X16501537Y-22810224D02*
G01*
X16566421Y-22853579D01*
X16609776Y-22918463D01*
X16625000Y-22995000D01*
X16625000Y-23295000D01*
X16609776Y-23371537D01*
X16566421Y-23436421D01*
X16501537Y-23479776D01*
X16425000Y-23495000D01*
X14675000Y-23495000D01*
X14598463Y-23479776D01*
X14533579Y-23436421D01*
X14490224Y-23371537D01*
X14475000Y-23295000D01*
X14475000Y-22995000D01*
X14490224Y-22918463D01*
X14533579Y-22853579D01*
X14598463Y-22810224D01*
X14675000Y-22795000D01*
X16425000Y-22795000D01*
X16501537Y-22810224D01*
G37*
G36*
X7201537Y-21540224D02*
G01*
X7266421Y-21583579D01*
X7309776Y-21648463D01*
X7325000Y-21725000D01*
X7325000Y-22025000D01*
X7309776Y-22101537D01*
X7266421Y-22166421D01*
X7201537Y-22209776D01*
X7125000Y-22225000D01*
X5375000Y-22225000D01*
X5298463Y-22209776D01*
X5233579Y-22166421D01*
X5190224Y-22101537D01*
X5175000Y-22025000D01*
X5175000Y-21725000D01*
X5190224Y-21648463D01*
X5233579Y-21583579D01*
X5298463Y-21540224D01*
X5375000Y-21525000D01*
X7125000Y-21525000D01*
X7201537Y-21540224D01*
G37*
G36*
X16501537Y-21540224D02*
G01*
X16566421Y-21583579D01*
X16609776Y-21648463D01*
X16625000Y-21725000D01*
X16625000Y-22025000D01*
X16609776Y-22101537D01*
X16566421Y-22166421D01*
X16501537Y-22209776D01*
X16425000Y-22225000D01*
X14675000Y-22225000D01*
X14598463Y-22209776D01*
X14533579Y-22166421D01*
X14490224Y-22101537D01*
X14475000Y-22025000D01*
X14475000Y-21725000D01*
X14490224Y-21648463D01*
X14533579Y-21583579D01*
X14598463Y-21540224D01*
X14675000Y-21525000D01*
X16425000Y-21525000D01*
X16501537Y-21540224D01*
G37*
G36*
X7201537Y-20270224D02*
G01*
X7266421Y-20313579D01*
X7309776Y-20378463D01*
X7325000Y-20455000D01*
X7325000Y-20755000D01*
X7309776Y-20831537D01*
X7266421Y-20896421D01*
X7201537Y-20939776D01*
X7125000Y-20955000D01*
X5375000Y-20955000D01*
X5298463Y-20939776D01*
X5233579Y-20896421D01*
X5190224Y-20831537D01*
X5175000Y-20755000D01*
X5175000Y-20455000D01*
X5190224Y-20378463D01*
X5233579Y-20313579D01*
X5298463Y-20270224D01*
X5375000Y-20255000D01*
X7125000Y-20255000D01*
X7201537Y-20270224D01*
G37*
G36*
X16501537Y-20270224D02*
G01*
X16566421Y-20313579D01*
X16609776Y-20378463D01*
X16625000Y-20455000D01*
X16625000Y-20755000D01*
X16609776Y-20831537D01*
X16566421Y-20896421D01*
X16501537Y-20939776D01*
X16425000Y-20955000D01*
X14675000Y-20955000D01*
X14598463Y-20939776D01*
X14533579Y-20896421D01*
X14490224Y-20831537D01*
X14475000Y-20755000D01*
X14475000Y-20455000D01*
X14490224Y-20378463D01*
X14533579Y-20313579D01*
X14598463Y-20270224D01*
X14675000Y-20255000D01*
X16425000Y-20255000D01*
X16501537Y-20270224D01*
G37*
G36*
X7201537Y-19000224D02*
G01*
X7266421Y-19043579D01*
X7309776Y-19108463D01*
X7325000Y-19185000D01*
X7325000Y-19485000D01*
X7309776Y-19561537D01*
X7266421Y-19626421D01*
X7201537Y-19669776D01*
X7125000Y-19685000D01*
X5375000Y-19685000D01*
X5298463Y-19669776D01*
X5233579Y-19626421D01*
X5190224Y-19561537D01*
X5175000Y-19485000D01*
X5175000Y-19185000D01*
X5190224Y-19108463D01*
X5233579Y-19043579D01*
X5298463Y-19000224D01*
X5375000Y-18985000D01*
X7125000Y-18985000D01*
X7201537Y-19000224D01*
G37*
G36*
X16501537Y-19000224D02*
G01*
X16566421Y-19043579D01*
X16609776Y-19108463D01*
X16625000Y-19185000D01*
X16625000Y-19485000D01*
X16609776Y-19561537D01*
X16566421Y-19626421D01*
X16501537Y-19669776D01*
X16425000Y-19685000D01*
X14675000Y-19685000D01*
X14598463Y-19669776D01*
X14533579Y-19626421D01*
X14490224Y-19561537D01*
X14475000Y-19485000D01*
X14475000Y-19185000D01*
X14490224Y-19108463D01*
X14533579Y-19043579D01*
X14598463Y-19000224D01*
X14675000Y-18985000D01*
X16425000Y-18985000D01*
X16501537Y-19000224D01*
G37*
G36*
X7201537Y-17730224D02*
G01*
X7266421Y-17773579D01*
X7309776Y-17838463D01*
X7325000Y-17915000D01*
X7325000Y-18215000D01*
X7309776Y-18291537D01*
X7266421Y-18356421D01*
X7201537Y-18399776D01*
X7125000Y-18415000D01*
X5375000Y-18415000D01*
X5298463Y-18399776D01*
X5233579Y-18356421D01*
X5190224Y-18291537D01*
X5175000Y-18215000D01*
X5175000Y-17915000D01*
X5190224Y-17838463D01*
X5233579Y-17773579D01*
X5298463Y-17730224D01*
X5375000Y-17715000D01*
X7125000Y-17715000D01*
X7201537Y-17730224D01*
G37*
G36*
X16501537Y-17730224D02*
G01*
X16566421Y-17773579D01*
X16609776Y-17838463D01*
X16625000Y-17915000D01*
X16625000Y-18215000D01*
X16609776Y-18291537D01*
X16566421Y-18356421D01*
X16501537Y-18399776D01*
X16425000Y-18415000D01*
X14675000Y-18415000D01*
X14598463Y-18399776D01*
X14533579Y-18356421D01*
X14490224Y-18291537D01*
X14475000Y-18215000D01*
X14475000Y-17915000D01*
X14490224Y-17838463D01*
X14533579Y-17773579D01*
X14598463Y-17730224D01*
X14675000Y-17715000D01*
X16425000Y-17715000D01*
X16501537Y-17730224D01*
G37*
G36*
X7201537Y-16460224D02*
G01*
X7266421Y-16503579D01*
X7309776Y-16568463D01*
X7325000Y-16645000D01*
X7325000Y-16945000D01*
X7309776Y-17021537D01*
X7266421Y-17086421D01*
X7201537Y-17129776D01*
X7125000Y-17145000D01*
X5375000Y-17145000D01*
X5298463Y-17129776D01*
X5233579Y-17086421D01*
X5190224Y-17021537D01*
X5175000Y-16945000D01*
X5175000Y-16645000D01*
X5190224Y-16568463D01*
X5233579Y-16503579D01*
X5298463Y-16460224D01*
X5375000Y-16445000D01*
X7125000Y-16445000D01*
X7201537Y-16460224D01*
G37*
G36*
X16501537Y-16460224D02*
G01*
X16566421Y-16503579D01*
X16609776Y-16568463D01*
X16625000Y-16645000D01*
X16625000Y-16945000D01*
X16609776Y-17021537D01*
X16566421Y-17086421D01*
X16501537Y-17129776D01*
X16425000Y-17145000D01*
X14675000Y-17145000D01*
X14598463Y-17129776D01*
X14533579Y-17086421D01*
X14490224Y-17021537D01*
X14475000Y-16945000D01*
X14475000Y-16645000D01*
X14490224Y-16568463D01*
X14533579Y-16503579D01*
X14598463Y-16460224D01*
X14675000Y-16445000D01*
X16425000Y-16445000D01*
X16501537Y-16460224D01*
G37*
G36*
X7201537Y-15190224D02*
G01*
X7266421Y-15233579D01*
X7309776Y-15298463D01*
X7325000Y-15375000D01*
X7325000Y-15675000D01*
X7309776Y-15751537D01*
X7266421Y-15816421D01*
X7201537Y-15859776D01*
X7125000Y-15875000D01*
X5375000Y-15875000D01*
X5298463Y-15859776D01*
X5233579Y-15816421D01*
X5190224Y-15751537D01*
X5175000Y-15675000D01*
X5175000Y-15375000D01*
X5190224Y-15298463D01*
X5233579Y-15233579D01*
X5298463Y-15190224D01*
X5375000Y-15175000D01*
X7125000Y-15175000D01*
X7201537Y-15190224D01*
G37*
G36*
X16501537Y-15190224D02*
G01*
X16566421Y-15233579D01*
X16609776Y-15298463D01*
X16625000Y-15375000D01*
X16625000Y-15675000D01*
X16609776Y-15751537D01*
X16566421Y-15816421D01*
X16501537Y-15859776D01*
X16425000Y-15875000D01*
X14675000Y-15875000D01*
X14598463Y-15859776D01*
X14533579Y-15816421D01*
X14490224Y-15751537D01*
X14475000Y-15675000D01*
X14475000Y-15375000D01*
X14490224Y-15298463D01*
X14533579Y-15233579D01*
X14598463Y-15190224D01*
X14675000Y-15175000D01*
X16425000Y-15175000D01*
X16501537Y-15190224D01*
G37*
G36*
X7201537Y-13920224D02*
G01*
X7266421Y-13963579D01*
X7309776Y-14028463D01*
X7325000Y-14105000D01*
X7325000Y-14405000D01*
X7309776Y-14481537D01*
X7266421Y-14546421D01*
X7201537Y-14589776D01*
X7125000Y-14605000D01*
X5375000Y-14605000D01*
X5298463Y-14589776D01*
X5233579Y-14546421D01*
X5190224Y-14481537D01*
X5175000Y-14405000D01*
X5175000Y-14105000D01*
X5190224Y-14028463D01*
X5233579Y-13963579D01*
X5298463Y-13920224D01*
X5375000Y-13905000D01*
X7125000Y-13905000D01*
X7201537Y-13920224D01*
G37*
G36*
X16501537Y-13920224D02*
G01*
X16566421Y-13963579D01*
X16609776Y-14028463D01*
X16625000Y-14105000D01*
X16625000Y-14405000D01*
X16609776Y-14481537D01*
X16566421Y-14546421D01*
X16501537Y-14589776D01*
X16425000Y-14605000D01*
X14675000Y-14605000D01*
X14598463Y-14589776D01*
X14533579Y-14546421D01*
X14490224Y-14481537D01*
X14475000Y-14405000D01*
X14475000Y-14105000D01*
X14490224Y-14028463D01*
X14533579Y-13963579D01*
X14598463Y-13920224D01*
X14675000Y-13905000D01*
X16425000Y-13905000D01*
X16501537Y-13920224D01*
G37*
G36*
X7201537Y-12650224D02*
G01*
X7266421Y-12693579D01*
X7309776Y-12758463D01*
X7325000Y-12835000D01*
X7325000Y-13135000D01*
X7309776Y-13211537D01*
X7266421Y-13276421D01*
X7201537Y-13319776D01*
X7125000Y-13335000D01*
X5375000Y-13335000D01*
X5298463Y-13319776D01*
X5233579Y-13276421D01*
X5190224Y-13211537D01*
X5175000Y-13135000D01*
X5175000Y-12835000D01*
X5190224Y-12758463D01*
X5233579Y-12693579D01*
X5298463Y-12650224D01*
X5375000Y-12635000D01*
X7125000Y-12635000D01*
X7201537Y-12650224D01*
G37*
G36*
X16501537Y-12650224D02*
G01*
X16566421Y-12693579D01*
X16609776Y-12758463D01*
X16625000Y-12835000D01*
X16625000Y-13135000D01*
X16609776Y-13211537D01*
X16566421Y-13276421D01*
X16501537Y-13319776D01*
X16425000Y-13335000D01*
X14675000Y-13335000D01*
X14598463Y-13319776D01*
X14533579Y-13276421D01*
X14490224Y-13211537D01*
X14475000Y-13135000D01*
X14475000Y-12835000D01*
X14490224Y-12758463D01*
X14533579Y-12693579D01*
X14598463Y-12650224D01*
X14675000Y-12635000D01*
X16425000Y-12635000D01*
X16501537Y-12650224D01*
G37*
G36*
X7201537Y-11380224D02*
G01*
X7266421Y-11423579D01*
X7309776Y-11488463D01*
X7325000Y-11565000D01*
X7325000Y-11865000D01*
X7309776Y-11941537D01*
X7266421Y-12006421D01*
X7201537Y-12049776D01*
X7125000Y-12065000D01*
X5375000Y-12065000D01*
X5298463Y-12049776D01*
X5233579Y-12006421D01*
X5190224Y-11941537D01*
X5175000Y-11865000D01*
X5175000Y-11565000D01*
X5190224Y-11488463D01*
X5233579Y-11423579D01*
X5298463Y-11380224D01*
X5375000Y-11365000D01*
X7125000Y-11365000D01*
X7201537Y-11380224D01*
G37*
G36*
X16501537Y-11380224D02*
G01*
X16566421Y-11423579D01*
X16609776Y-11488463D01*
X16625000Y-11565000D01*
X16625000Y-11865000D01*
X16609776Y-11941537D01*
X16566421Y-12006421D01*
X16501537Y-12049776D01*
X16425000Y-12065000D01*
X14675000Y-12065000D01*
X14598463Y-12049776D01*
X14533579Y-12006421D01*
X14490224Y-11941537D01*
X14475000Y-11865000D01*
X14475000Y-11565000D01*
X14490224Y-11488463D01*
X14533579Y-11423579D01*
X14598463Y-11380224D01*
X14675000Y-11365000D01*
X16425000Y-11365000D01*
X16501537Y-11380224D01*
G37*
G36*
X23641537Y-9115224D02*
G01*
X23706421Y-9158579D01*
X23749776Y-9223463D01*
X23765000Y-9300000D01*
X23765000Y-10850000D01*
X23749776Y-10926537D01*
X23706421Y-10991421D01*
X23641537Y-11034776D01*
X23565000Y-11050000D01*
X23265000Y-11050000D01*
X23188463Y-11034776D01*
X23123579Y-10991421D01*
X23080224Y-10926537D01*
X23065000Y-10850000D01*
X23065000Y-9300000D01*
X23080224Y-9223463D01*
X23123579Y-9158579D01*
X23188463Y-9115224D01*
X23265000Y-9100000D01*
X23565000Y-9100000D01*
X23641537Y-9115224D01*
G37*
G36*
X24911537Y-9115224D02*
G01*
X24976421Y-9158579D01*
X25019776Y-9223463D01*
X25035000Y-9300000D01*
X25035000Y-10850000D01*
X25019776Y-10926537D01*
X24976421Y-10991421D01*
X24911537Y-11034776D01*
X24835000Y-11050000D01*
X24535000Y-11050000D01*
X24458463Y-11034776D01*
X24393579Y-10991421D01*
X24350224Y-10926537D01*
X24335000Y-10850000D01*
X24335000Y-9300000D01*
X24350224Y-9223463D01*
X24393579Y-9158579D01*
X24458463Y-9115224D01*
X24535000Y-9100000D01*
X24835000Y-9100000D01*
X24911537Y-9115224D01*
G37*
G36*
X26181537Y-9115224D02*
G01*
X26246421Y-9158579D01*
X26289776Y-9223463D01*
X26305000Y-9300000D01*
X26305000Y-10850000D01*
X26289776Y-10926537D01*
X26246421Y-10991421D01*
X26181537Y-11034776D01*
X26105000Y-11050000D01*
X25805000Y-11050000D01*
X25728463Y-11034776D01*
X25663579Y-10991421D01*
X25620224Y-10926537D01*
X25605000Y-10850000D01*
X25605000Y-9300000D01*
X25620224Y-9223463D01*
X25663579Y-9158579D01*
X25728463Y-9115224D01*
X25805000Y-9100000D01*
X26105000Y-9100000D01*
X26181537Y-9115224D01*
G37*
G36*
X27451537Y-9115224D02*
G01*
X27516421Y-9158579D01*
X27559776Y-9223463D01*
X27575000Y-9300000D01*
X27575000Y-10850000D01*
X27559776Y-10926537D01*
X27516421Y-10991421D01*
X27451537Y-11034776D01*
X27375000Y-11050000D01*
X27075000Y-11050000D01*
X26998463Y-11034776D01*
X26933579Y-10991421D01*
X26890224Y-10926537D01*
X26875000Y-10850000D01*
X26875000Y-9300000D01*
X26890224Y-9223463D01*
X26933579Y-9158579D01*
X26998463Y-9115224D01*
X27075000Y-9100000D01*
X27375000Y-9100000D01*
X27451537Y-9115224D01*
G37*
G36*
X28721537Y-9115224D02*
G01*
X28786421Y-9158579D01*
X28829776Y-9223463D01*
X28845000Y-9300000D01*
X28845000Y-10850000D01*
X28829776Y-10926537D01*
X28786421Y-10991421D01*
X28721537Y-11034776D01*
X28645000Y-11050000D01*
X28345000Y-11050000D01*
X28268463Y-11034776D01*
X28203579Y-10991421D01*
X28160224Y-10926537D01*
X28145000Y-10850000D01*
X28145000Y-9300000D01*
X28160224Y-9223463D01*
X28203579Y-9158579D01*
X28268463Y-9115224D01*
X28345000Y-9100000D01*
X28645000Y-9100000D01*
X28721537Y-9115224D01*
G37*
G36*
X29991537Y-9115224D02*
G01*
X30056421Y-9158579D01*
X30099776Y-9223463D01*
X30115000Y-9300000D01*
X30115000Y-10850000D01*
X30099776Y-10926537D01*
X30056421Y-10991421D01*
X29991537Y-11034776D01*
X29915000Y-11050000D01*
X29615000Y-11050000D01*
X29538463Y-11034776D01*
X29473579Y-10991421D01*
X29430224Y-10926537D01*
X29415000Y-10850000D01*
X29415000Y-9300000D01*
X29430224Y-9223463D01*
X29473579Y-9158579D01*
X29538463Y-9115224D01*
X29615000Y-9100000D01*
X29915000Y-9100000D01*
X29991537Y-9115224D01*
G37*
G36*
X31261537Y-9115224D02*
G01*
X31326421Y-9158579D01*
X31369776Y-9223463D01*
X31385000Y-9300000D01*
X31385000Y-10850000D01*
X31369776Y-10926537D01*
X31326421Y-10991421D01*
X31261537Y-11034776D01*
X31185000Y-11050000D01*
X30885000Y-11050000D01*
X30808463Y-11034776D01*
X30743579Y-10991421D01*
X30700224Y-10926537D01*
X30685000Y-10850000D01*
X30685000Y-9300000D01*
X30700224Y-9223463D01*
X30743579Y-9158579D01*
X30808463Y-9115224D01*
X30885000Y-9100000D01*
X31185000Y-9100000D01*
X31261537Y-9115224D01*
G37*
G36*
X32531537Y-9115224D02*
G01*
X32596421Y-9158579D01*
X32639776Y-9223463D01*
X32655000Y-9300000D01*
X32655000Y-10850000D01*
X32639776Y-10926537D01*
X32596421Y-10991421D01*
X32531537Y-11034776D01*
X32455000Y-11050000D01*
X32155000Y-11050000D01*
X32078463Y-11034776D01*
X32013579Y-10991421D01*
X31970224Y-10926537D01*
X31955000Y-10850000D01*
X31955000Y-9300000D01*
X31970224Y-9223463D01*
X32013579Y-9158579D01*
X32078463Y-9115224D01*
X32155000Y-9100000D01*
X32455000Y-9100000D01*
X32531537Y-9115224D01*
G37*
G36*
X33801537Y-9115224D02*
G01*
X33866421Y-9158579D01*
X33909776Y-9223463D01*
X33925000Y-9300000D01*
X33925000Y-10850000D01*
X33909776Y-10926537D01*
X33866421Y-10991421D01*
X33801537Y-11034776D01*
X33725000Y-11050000D01*
X33425000Y-11050000D01*
X33348463Y-11034776D01*
X33283579Y-10991421D01*
X33240224Y-10926537D01*
X33225000Y-10850000D01*
X33225000Y-9300000D01*
X33240224Y-9223463D01*
X33283579Y-9158579D01*
X33348463Y-9115224D01*
X33425000Y-9100000D01*
X33725000Y-9100000D01*
X33801537Y-9115224D01*
G37*
G36*
X35071537Y-9115224D02*
G01*
X35136421Y-9158579D01*
X35179776Y-9223463D01*
X35195000Y-9300000D01*
X35195000Y-10850000D01*
X35179776Y-10926537D01*
X35136421Y-10991421D01*
X35071537Y-11034776D01*
X34995000Y-11050000D01*
X34695000Y-11050000D01*
X34618463Y-11034776D01*
X34553579Y-10991421D01*
X34510224Y-10926537D01*
X34495000Y-10850000D01*
X34495000Y-9300000D01*
X34510224Y-9223463D01*
X34553579Y-9158579D01*
X34618463Y-9115224D01*
X34695000Y-9100000D01*
X34995000Y-9100000D01*
X35071537Y-9115224D01*
G37*
G36*
X36341537Y-9115224D02*
G01*
X36406421Y-9158579D01*
X36449776Y-9223463D01*
X36465000Y-9300000D01*
X36465000Y-10850000D01*
X36449776Y-10926537D01*
X36406421Y-10991421D01*
X36341537Y-11034776D01*
X36265000Y-11050000D01*
X35965000Y-11050000D01*
X35888463Y-11034776D01*
X35823579Y-10991421D01*
X35780224Y-10926537D01*
X35765000Y-10850000D01*
X35765000Y-9300000D01*
X35780224Y-9223463D01*
X35823579Y-9158579D01*
X35888463Y-9115224D01*
X35965000Y-9100000D01*
X36265000Y-9100000D01*
X36341537Y-9115224D01*
G37*
G36*
X37611537Y-9115224D02*
G01*
X37676421Y-9158579D01*
X37719776Y-9223463D01*
X37735000Y-9300000D01*
X37735000Y-10850000D01*
X37719776Y-10926537D01*
X37676421Y-10991421D01*
X37611537Y-11034776D01*
X37535000Y-11050000D01*
X37235000Y-11050000D01*
X37158463Y-11034776D01*
X37093579Y-10991421D01*
X37050224Y-10926537D01*
X37035000Y-10850000D01*
X37035000Y-9300000D01*
X37050224Y-9223463D01*
X37093579Y-9158579D01*
X37158463Y-9115224D01*
X37235000Y-9100000D01*
X37535000Y-9100000D01*
X37611537Y-9115224D01*
G37*
G36*
X38881537Y-9115224D02*
G01*
X38946421Y-9158579D01*
X38989776Y-9223463D01*
X39005000Y-9300000D01*
X39005000Y-10850000D01*
X38989776Y-10926537D01*
X38946421Y-10991421D01*
X38881537Y-11034776D01*
X38805000Y-11050000D01*
X38505000Y-11050000D01*
X38428463Y-11034776D01*
X38363579Y-10991421D01*
X38320224Y-10926537D01*
X38305000Y-10850000D01*
X38305000Y-9300000D01*
X38320224Y-9223463D01*
X38363579Y-9158579D01*
X38428463Y-9115224D01*
X38505000Y-9100000D01*
X38805000Y-9100000D01*
X38881537Y-9115224D01*
G37*
G36*
X40151537Y-9115224D02*
G01*
X40216421Y-9158579D01*
X40259776Y-9223463D01*
X40275000Y-9300000D01*
X40275000Y-10850000D01*
X40259776Y-10926537D01*
X40216421Y-10991421D01*
X40151537Y-11034776D01*
X40075000Y-11050000D01*
X39775000Y-11050000D01*
X39698463Y-11034776D01*
X39633579Y-10991421D01*
X39590224Y-10926537D01*
X39575000Y-10850000D01*
X39575000Y-9300000D01*
X39590224Y-9223463D01*
X39633579Y-9158579D01*
X39698463Y-9115224D01*
X39775000Y-9100000D01*
X40075000Y-9100000D01*
X40151537Y-9115224D01*
G37*
G36*
X41421537Y-9115224D02*
G01*
X41486421Y-9158579D01*
X41529776Y-9223463D01*
X41545000Y-9300000D01*
X41545000Y-10850000D01*
X41529776Y-10926537D01*
X41486421Y-10991421D01*
X41421537Y-11034776D01*
X41345000Y-11050000D01*
X41045000Y-11050000D01*
X40968463Y-11034776D01*
X40903579Y-10991421D01*
X40860224Y-10926537D01*
X40845000Y-10850000D01*
X40845000Y-9300000D01*
X40860224Y-9223463D01*
X40903579Y-9158579D01*
X40968463Y-9115224D01*
X41045000Y-9100000D01*
X41345000Y-9100000D01*
X41421537Y-9115224D01*
G37*
G36*
X42691537Y-9115224D02*
G01*
X42756421Y-9158579D01*
X42799776Y-9223463D01*
X42815000Y-9300000D01*
X42815000Y-10850000D01*
X42799776Y-10926537D01*
X42756421Y-10991421D01*
X42691537Y-11034776D01*
X42615000Y-11050000D01*
X42315000Y-11050000D01*
X42238463Y-11034776D01*
X42173579Y-10991421D01*
X42130224Y-10926537D01*
X42115000Y-10850000D01*
X42115000Y-9300000D01*
X42130224Y-9223463D01*
X42173579Y-9158579D01*
X42238463Y-9115224D01*
X42315000Y-9100000D01*
X42615000Y-9100000D01*
X42691537Y-9115224D01*
G37*
G36*
X43961537Y-9115224D02*
G01*
X44026421Y-9158579D01*
X44069776Y-9223463D01*
X44085000Y-9300000D01*
X44085000Y-10850000D01*
X44069776Y-10926537D01*
X44026421Y-10991421D01*
X43961537Y-11034776D01*
X43885000Y-11050000D01*
X43585000Y-11050000D01*
X43508463Y-11034776D01*
X43443579Y-10991421D01*
X43400224Y-10926537D01*
X43385000Y-10850000D01*
X43385000Y-9300000D01*
X43400224Y-9223463D01*
X43443579Y-9158579D01*
X43508463Y-9115224D01*
X43585000Y-9100000D01*
X43885000Y-9100000D01*
X43961537Y-9115224D01*
G37*
G36*
X45231537Y-9115224D02*
G01*
X45296421Y-9158579D01*
X45339776Y-9223463D01*
X45355000Y-9300000D01*
X45355000Y-10850000D01*
X45339776Y-10926537D01*
X45296421Y-10991421D01*
X45231537Y-11034776D01*
X45155000Y-11050000D01*
X44855000Y-11050000D01*
X44778463Y-11034776D01*
X44713579Y-10991421D01*
X44670224Y-10926537D01*
X44655000Y-10850000D01*
X44655000Y-9300000D01*
X44670224Y-9223463D01*
X44713579Y-9158579D01*
X44778463Y-9115224D01*
X44855000Y-9100000D01*
X45155000Y-9100000D01*
X45231537Y-9115224D01*
G37*
G36*
X46501537Y-9115224D02*
G01*
X46566421Y-9158579D01*
X46609776Y-9223463D01*
X46625000Y-9300000D01*
X46625000Y-10850000D01*
X46609776Y-10926537D01*
X46566421Y-10991421D01*
X46501537Y-11034776D01*
X46425000Y-11050000D01*
X46125000Y-11050000D01*
X46048463Y-11034776D01*
X45983579Y-10991421D01*
X45940224Y-10926537D01*
X45925000Y-10850000D01*
X45925000Y-9300000D01*
X45940224Y-9223463D01*
X45983579Y-9158579D01*
X46048463Y-9115224D01*
X46125000Y-9100000D01*
X46425000Y-9100000D01*
X46501537Y-9115224D01*
G37*
G36*
X47771537Y-9115224D02*
G01*
X47836421Y-9158579D01*
X47879776Y-9223463D01*
X47895000Y-9300000D01*
X47895000Y-10850000D01*
X47879776Y-10926537D01*
X47836421Y-10991421D01*
X47771537Y-11034776D01*
X47695000Y-11050000D01*
X47395000Y-11050000D01*
X47318463Y-11034776D01*
X47253579Y-10991421D01*
X47210224Y-10926537D01*
X47195000Y-10850000D01*
X47195000Y-9300000D01*
X47210224Y-9223463D01*
X47253579Y-9158579D01*
X47318463Y-9115224D01*
X47395000Y-9100000D01*
X47695000Y-9100000D01*
X47771537Y-9115224D01*
G37*
G36*
X49041537Y-9115224D02*
G01*
X49106421Y-9158579D01*
X49149776Y-9223463D01*
X49165000Y-9300000D01*
X49165000Y-10850000D01*
X49149776Y-10926537D01*
X49106421Y-10991421D01*
X49041537Y-11034776D01*
X48965000Y-11050000D01*
X48665000Y-11050000D01*
X48588463Y-11034776D01*
X48523579Y-10991421D01*
X48480224Y-10926537D01*
X48465000Y-10850000D01*
X48465000Y-9300000D01*
X48480224Y-9223463D01*
X48523579Y-9158579D01*
X48588463Y-9115224D01*
X48665000Y-9100000D01*
X48965000Y-9100000D01*
X49041537Y-9115224D01*
G37*
G36*
X50311537Y-9115224D02*
G01*
X50376421Y-9158579D01*
X50419776Y-9223463D01*
X50435000Y-9300000D01*
X50435000Y-10850000D01*
X50419776Y-10926537D01*
X50376421Y-10991421D01*
X50311537Y-11034776D01*
X50235000Y-11050000D01*
X49935000Y-11050000D01*
X49858463Y-11034776D01*
X49793579Y-10991421D01*
X49750224Y-10926537D01*
X49735000Y-10850000D01*
X49735000Y-9300000D01*
X49750224Y-9223463D01*
X49793579Y-9158579D01*
X49858463Y-9115224D01*
X49935000Y-9100000D01*
X50235000Y-9100000D01*
X50311537Y-9115224D01*
G37*
M02*
