%TF.GenerationSoftware,KiCad,Pcbnew,10.0.5*%
%TF.CreationDate,2026-08-22T00:35:31-04:00*%
%TF.ProjectId,supercart,73757065-7263-4617-9274-2e6b69636164,rev?*%
%TF.SameCoordinates,Original*%
%TF.FileFunction,Paste,Top*%
%TF.FilePolarity,Positive*%
%FSLAX46Y46*%
G04 Gerber Fmt 4.6, Leading zero omitted, Abs format (unit mm)*
G04 Created by KiCad (PCBNEW 10.0.5) date 2026-08-22 00:35:31*
%MOMM*%
%LPD*%
G01*
G04 APERTURE LIST*
G04 Aperture macros list*
%AMRoundRect*
0 Rectangle with rounded corners*
0 $1 Rounding radius*
0 $2 $3 $4 $5 $6 $7 $8 $9 X,Y pos of 4 corners*
0 Add a 4 corners polygon primitive as box body*
4,1,4,$2,$3,$4,$5,$6,$7,$8,$9,$2,$3,0*
0 Add four circle primitives for the rounded corners*
1,1,$1+$1,$2,$3*
1,1,$1+$1,$4,$5*
1,1,$1+$1,$6,$7*
1,1,$1+$1,$8,$9*
0 Add four rect primitives between the rounded corners*
20,1,$1+$1,$2,$3,$4,$5,0*
20,1,$1+$1,$4,$5,$6,$7,0*
20,1,$1+$1,$6,$7,$8,$9,0*
20,1,$1+$1,$8,$9,$2,$3,0*%
G04 Aperture macros list end*
%ADD10RoundRect,0.250000X-0.250000X-0.475000X0.250000X-0.475000X0.250000X0.475000X-0.250000X0.475000X0*%
%ADD11RoundRect,0.150000X-0.875000X-0.150000X0.875000X-0.150000X0.875000X0.150000X-0.875000X0.150000X0*%
%ADD12RoundRect,0.250000X-0.262500X-0.450000X0.262500X-0.450000X0.262500X0.450000X-0.262500X0.450000X0*%
%ADD13RoundRect,0.150000X-0.150000X-0.775000X0.150000X-0.775000X0.150000X0.775000X-0.150000X0.775000X0*%
G04 APERTURE END LIST*
D10*
%TO.C,C1*%
X9950000Y-32400000D03*
X11850000Y-32400000D03*
%TD*%
D11*
%TO.C,U1*%
X6250000Y-11715000D03*
X6250000Y-12985000D03*
X6250000Y-14255000D03*
X6250000Y-15525000D03*
X6250000Y-16795000D03*
X6250000Y-18065000D03*
X6250000Y-19335000D03*
X6250000Y-20605000D03*
X6250000Y-21875000D03*
X6250000Y-23145000D03*
X6250000Y-24415000D03*
X6250000Y-25685000D03*
X15550000Y-25685000D03*
X15550000Y-24415000D03*
X15550000Y-23145000D03*
X15550000Y-21875000D03*
X15550000Y-20605000D03*
X15550000Y-19335000D03*
X15550000Y-18065000D03*
X15550000Y-16795000D03*
X15550000Y-15525000D03*
X15550000Y-14255000D03*
X15550000Y-12985000D03*
X15550000Y-11715000D03*
%TD*%
D12*
%TO.C,R1*%
X45837500Y-30300000D03*
X47662500Y-30300000D03*
%TD*%
D10*
%TO.C,C2*%
X35800000Y-30300000D03*
X37700000Y-30300000D03*
%TD*%
D13*
%TO.C,U2*%
X23415000Y-10075000D03*
X24685000Y-10075000D03*
X25955000Y-10075000D03*
X27225000Y-10075000D03*
X28495000Y-10075000D03*
X29765000Y-10075000D03*
X31035000Y-10075000D03*
X32305000Y-10075000D03*
X33575000Y-10075000D03*
X34845000Y-10075000D03*
X36115000Y-10075000D03*
X37385000Y-10075000D03*
X38655000Y-10075000D03*
X39925000Y-10075000D03*
X41195000Y-10075000D03*
X42465000Y-10075000D03*
X43735000Y-10075000D03*
X45005000Y-10075000D03*
X46275000Y-10075000D03*
X47545000Y-10075000D03*
X48815000Y-10075000D03*
X50085000Y-10075000D03*
X50085000Y-25225000D03*
X48815000Y-25225000D03*
X47545000Y-25225000D03*
X46275000Y-25225000D03*
X45005000Y-25225000D03*
X43735000Y-25225000D03*
X42465000Y-25225000D03*
X41195000Y-25225000D03*
X39925000Y-25225000D03*
X38655000Y-25225000D03*
X37385000Y-25225000D03*
X36115000Y-25225000D03*
X34845000Y-25225000D03*
X33575000Y-25225000D03*
X32305000Y-25225000D03*
X31035000Y-25225000D03*
X29765000Y-25225000D03*
X28495000Y-25225000D03*
X27225000Y-25225000D03*
X25955000Y-25225000D03*
X24685000Y-25225000D03*
X23415000Y-25225000D03*
%TD*%
M02*
