M48
; DRILL file KiCad 10.0.5 date 2026-08-23T17:15:06
; FORMAT={-:-/ absolute / metric / decimal}
; #@! TF.CreationDate,2026-08-23T17:15:06-04:00
; #@! TF.GenerationSoftware,Kicad,Pcbnew,10.0.5
; #@! TF.FileFunction,MixedPlating,1,2
FMAT,2
METRIC
; #@! TA.AperFunction,Plated,PTH,ViaDrill
T1C0.400
%
G90
G05
T1
X3.6Y-50.098
X4.808Y-47.397
X8.459Y-20.296
X8.474Y-22.989
X10.416Y-23.245
X10.791Y-26.099
X11.062Y-39.449
X12.076Y-38.6
X13.859Y-18.128
X15.673Y-26.868
X16.971Y-19.904
X17.097Y-21.055
X17.133Y-22.456
X17.842Y-18.801
X18.32Y-39.466
X19.07Y-38.6
X19.72Y-16.924
X20.308Y-26.099
X21.026Y-25.007
X22.023Y-18.96
X22.813Y-23.906
X24.453Y-40.209
X24.916Y-27.393
X25.027Y-23.57
X25.522Y-42.127
X27.664Y-27.834
X28.495Y-11.505
X29.206Y-12.001
X30.124Y-39.64
X30.87Y-38.261
X32.234Y-22.946
X32.241Y-21.913
X33.213Y-13.667
X33.575Y-12.23
X33.981Y-14.253
X34.205Y-28.653
X34.309Y-31.016
X34.643Y-23.77
X34.689Y-14.681
X34.816Y-28.032
X35.013Y-22.894
X35.138Y-39.64
X35.677Y-14.637
X36.854Y-14.486
X41.062Y-38.46
X41.062Y-44.576
X41.195Y-22.497
X42.237Y-23.298
X42.465Y-15.239
X43.234Y-15.841
X43.331Y-17.603
X44.093Y-14.637
X44.53Y-18.468
X44.539Y-49.963
X44.571Y-46.332
X44.571Y-33.08
X44.877Y-14.066
X45.381Y-47.535
X45.386Y-13.441
X45.911Y-12.832
X46.713Y-12.804
X47.662Y-29.033
X48.317Y-14.232
X49.609Y-49.103
X49.912Y-38.396
X50.561Y-13.155
X51.105Y-33.08
X54.4Y-50.098
X54.4Y-56.209
X55.213Y-31.274
M30
