%TF.GenerationSoftware,KiCad,Pcbnew,10.0.5*%
%TF.CreationDate,2026-08-23T17:15:05-04:00*%
%TF.ProjectId,supercart,73757065-7263-4617-9274-2e6b69636164,rev?*%
%TF.SameCoordinates,Original*%
%TF.FileFunction,Copper,L2,Bot*%
%TF.FilePolarity,Positive*%
%FSLAX46Y46*%
G04 Gerber Fmt 4.6, Leading zero omitted, Abs format (unit mm)*
G04 Created by KiCad (PCBNEW 10.0.5) date 2026-08-23 17:15:05*
%MOMM*%
%LPD*%
G01*
G04 APERTURE LIST*
%TA.AperFunction,SMDPad,CuDef*%
%ADD10R,1.500000X9.000000*%
%TD*%
%TA.AperFunction,ViaPad*%
%ADD11C,0.600000*%
%TD*%
%TA.AperFunction,Conductor*%
%ADD12C,0.400000*%
%TD*%
G04 APERTURE END LIST*
D10*
%TO.P,J1,A*%
%TO.N,GND*%
X2330000Y-55000000D03*
%TO.P,J1,B*%
%TO.N,TBD_ROMH_N*%
X4870000Y-55000000D03*
%TO.P,J1,C*%
%TO.N,RESET_N*%
X7410000Y-55000000D03*
%TO.P,J1,D*%
%TO.N,N/C*%
X9950000Y-55000000D03*
%TO.P,J1,E*%
%TO.N,PHI2*%
X12490000Y-55000000D03*
%TO.P,J1,F*%
%TO.N,N/C*%
X15030000Y-55000000D03*
%TO.P,J1,H*%
X17570000Y-55000000D03*
%TO.P,J1,J*%
X20110000Y-55000000D03*
%TO.P,J1,K*%
%TO.N,A12*%
X22650000Y-55000000D03*
%TO.P,J1,L*%
%TO.N,A11*%
X25190000Y-55000000D03*
%TO.P,J1,M*%
%TO.N,A10*%
X27730000Y-55000000D03*
%TO.P,J1,N*%
%TO.N,A9*%
X30270000Y-55000000D03*
%TO.P,J1,P*%
%TO.N,A8*%
X32810000Y-55000000D03*
%TO.P,J1,R*%
%TO.N,A7*%
X35350000Y-55000000D03*
%TO.P,J1,S*%
%TO.N,A6*%
X37890000Y-55000000D03*
%TO.P,J1,T*%
%TO.N,A5*%
X40430000Y-55000000D03*
%TO.P,J1,U*%
%TO.N,A4*%
X42970000Y-55000000D03*
%TO.P,J1,V*%
%TO.N,A3*%
X45510000Y-55000000D03*
%TO.P,J1,W*%
%TO.N,A2*%
X48050000Y-55000000D03*
%TO.P,J1,X*%
%TO.N,A1*%
X50590000Y-55000000D03*
%TO.P,J1,Y*%
%TO.N,A0*%
X53130000Y-55000000D03*
%TO.P,J1,Z*%
%TO.N,GND*%
X55670000Y-55000000D03*
%TD*%
D11*
%TO.N,GND*%
X41062500Y-38459600D03*
X18320000Y-39466400D03*
X24452700Y-40209500D03*
X41062500Y-44576200D03*
X30124400Y-39640500D03*
X54400000Y-56209200D03*
X3600000Y-50098300D03*
X11062500Y-39449200D03*
X35138200Y-39640500D03*
X25521800Y-42127400D03*
%TO.N,VCC*%
X12076300Y-38599700D03*
X24916500Y-27393100D03*
X19070000Y-38599700D03*
%TO.N,PHI2*%
X4807500Y-47397200D03*
%TO.N,D1*%
X28495000Y-11505200D03*
X50561300Y-13155200D03*
%TO.N,D2*%
X29206300Y-12001400D03*
X48317400Y-14231900D03*
%TO.N,D3*%
X44530300Y-18467900D03*
X32234200Y-22946100D03*
%TO.N,D4*%
X8459100Y-20296100D03*
X22812600Y-23905600D03*
%TO.N,D5*%
X25026800Y-23570100D03*
X10416100Y-23245300D03*
%TO.N,D6*%
X8474300Y-22988600D03*
X21026400Y-25007000D03*
%TO.N,D7*%
X20307900Y-26099100D03*
X10790900Y-26099100D03*
%TO.N,RESET_N*%
X45911200Y-12832100D03*
X15673100Y-26867800D03*
%TO.N,BANK0*%
X22023200Y-18960400D03*
X36853700Y-14486200D03*
%TO.N,BANK1*%
X35677200Y-14637200D03*
X17133500Y-22455800D03*
%TO.N,BANK2*%
X34688700Y-14681100D03*
X17096800Y-21054600D03*
%TO.N,BANK3*%
X13859100Y-18128000D03*
X42236700Y-23298200D03*
%TO.N,BANK4*%
X41195000Y-22496900D03*
X16970900Y-19904200D03*
%TO.N,BANK5*%
X33981200Y-14253100D03*
X17842100Y-18801400D03*
%TO.N,BANK6*%
X19719500Y-16924200D03*
X33213100Y-13667200D03*
%TO.N,FLASH_WE_N*%
X34816000Y-28032500D03*
X47662500Y-29032600D03*
%TO.N,FLASH_RYBY_N*%
X34205100Y-28653400D03*
X34309500Y-31016500D03*
X49912500Y-38396000D03*
%TO.N,A11*%
X45386200Y-13441100D03*
%TO.N,A10*%
X44876600Y-14065500D03*
%TO.N,A9*%
X44093300Y-14637200D03*
%TO.N,A8*%
X43233700Y-15840600D03*
%TO.N,A7*%
X42465000Y-15238900D03*
%TO.N,A6*%
X43331100Y-17602900D03*
%TO.N,A5*%
X44571300Y-46332000D03*
X44571400Y-33079700D03*
X51105400Y-33079700D03*
%TO.N,A4*%
X44539200Y-49962600D03*
%TO.N,A3*%
X35012900Y-22894400D03*
%TO.N,A2*%
X46713000Y-12804300D03*
X49609300Y-49102700D03*
X33575000Y-12230400D03*
%TO.N,A1*%
X34643200Y-23770400D03*
%TO.N,A0*%
X32241200Y-21912900D03*
X55213500Y-31274000D03*
X54400000Y-50098300D03*
%TO.N,A12*%
X27664300Y-27834100D03*
%TO.N,ROML_N*%
X45381000Y-47534700D03*
X30869700Y-38260600D03*
%TD*%
%TO.N,GND*%
D12*
X54460800Y-56209200D02*
X54400000Y-56209200D01*
X30124400Y-39640500D02*
X35138200Y-39640500D01*
X18320000Y-39466400D02*
X18302800Y-39449200D01*
X24452700Y-40209500D02*
X24452700Y-41058300D01*
X55670000Y-50098300D02*
X44031300Y-38459600D01*
X2330000Y-50098300D02*
X3600000Y-50098300D01*
X35138200Y-39640500D02*
X40073900Y-44576200D01*
X23709600Y-39466400D02*
X24452700Y-40209500D01*
X24452700Y-41058300D02*
X25521800Y-42127400D01*
X44031300Y-38459600D02*
X41062500Y-38459600D01*
X2330000Y-55000000D02*
X2330000Y-50098300D01*
X55670000Y-55000000D02*
X55670000Y-50098300D01*
X55670000Y-55000000D02*
X54460800Y-56209200D01*
X40073900Y-44576200D02*
X41062500Y-44576200D01*
X18320000Y-39466400D02*
X23709600Y-39466400D01*
X18302800Y-39449200D02*
X11062500Y-39449200D01*
%TO.N,VCC*%
X24916500Y-32753200D02*
X24916500Y-27393100D01*
X19070000Y-38599700D02*
X12076300Y-38599700D01*
X19070000Y-38599700D02*
X24916500Y-32753200D01*
%TO.N,PHI2*%
X9788900Y-47397200D02*
X4807500Y-47397200D01*
X12490000Y-55000000D02*
X12490000Y-50098300D01*
X12490000Y-50098300D02*
X9788900Y-47397200D01*
%TO.N,D1*%
X29675000Y-10325200D02*
X28495000Y-11505200D01*
X47731300Y-10325200D02*
X29675000Y-10325200D01*
X50561300Y-13155200D02*
X47731300Y-10325200D01*
%TO.N,D2*%
X48317400Y-14231900D02*
X48317400Y-12327800D01*
X48317400Y-12327800D02*
X46916500Y-10926900D01*
X30280800Y-10926900D02*
X29206300Y-12001400D01*
X46916500Y-10926900D02*
X30280800Y-10926900D01*
%TO.N,D3*%
X32415400Y-22730900D02*
X32415400Y-22764900D01*
X42009000Y-20989200D02*
X34157200Y-20989200D01*
X44530300Y-18467900D02*
X42009000Y-20989200D01*
X34157200Y-20989200D02*
X32415500Y-22730900D01*
X32415400Y-22764900D02*
X32234200Y-22946100D01*
X32415500Y-22730900D02*
X32415400Y-22730900D01*
%TO.N,D4*%
X13058000Y-20296100D02*
X16429100Y-23667200D01*
X22574200Y-23667200D02*
X22812600Y-23905600D01*
X16429100Y-23667200D02*
X22574200Y-23667200D01*
X8459100Y-20296100D02*
X13058000Y-20296100D01*
%TO.N,D5*%
X21376000Y-24270500D02*
X21725200Y-24619700D01*
X23977200Y-24619700D02*
X25026800Y-23570100D01*
X10416100Y-23245300D02*
X11441300Y-24270500D01*
X11441300Y-24270500D02*
X21376000Y-24270500D01*
X21725200Y-24619700D02*
X23977200Y-24619700D01*
%TO.N,D6*%
X8474300Y-22988600D02*
X10492700Y-25007000D01*
X10492700Y-25007000D02*
X21026400Y-25007000D01*
%TO.N,D7*%
X10790900Y-26099100D02*
X20307900Y-26099100D01*
%TO.N,RESET_N*%
X35987200Y-16777300D02*
X31850600Y-16777300D01*
X4078700Y-47660600D02*
X4078700Y-38462200D01*
X45811100Y-12732000D02*
X40032500Y-12732000D01*
X40032500Y-12732000D02*
X35987200Y-16777300D01*
X7410000Y-50098300D02*
X6516400Y-50098300D01*
X22726400Y-26867800D02*
X15673100Y-26867800D01*
X30370200Y-17402400D02*
X25728600Y-22044000D01*
X25728600Y-23865600D02*
X22726400Y-26867800D01*
X31225500Y-17402400D02*
X30370200Y-17402400D01*
X6516400Y-50098300D02*
X4078700Y-47660600D01*
X7410000Y-55000000D02*
X7410000Y-50098300D01*
X25728600Y-22044000D02*
X25728600Y-23865600D01*
X4078700Y-38462200D02*
X15673100Y-26867800D01*
X45911200Y-12832100D02*
X45811100Y-12732000D01*
X31850600Y-16777300D02*
X31225500Y-17402400D01*
%TO.N,BANK0*%
X30976400Y-16800700D02*
X30121100Y-16800700D01*
X35164300Y-16175600D02*
X31601500Y-16175600D01*
X27961400Y-18960400D02*
X22023200Y-18960400D01*
X30121100Y-16800700D02*
X27961400Y-18960400D01*
X36853700Y-14486200D02*
X35164300Y-16175600D01*
X31601500Y-16175600D02*
X30976400Y-16800700D01*
%TO.N,BANK1*%
X22929500Y-16661800D02*
X17135500Y-22455800D01*
X35677200Y-14742100D02*
X34845400Y-15573900D01*
X35677200Y-14637200D02*
X35677200Y-14742100D01*
X17135500Y-22455800D02*
X17133500Y-22455800D01*
X31303400Y-15622900D02*
X30448100Y-15622900D01*
X30448100Y-15622900D02*
X29409200Y-16661800D01*
X29409200Y-16661800D02*
X22929500Y-16661800D01*
X31352400Y-15573900D02*
X31303400Y-15622900D01*
X34845400Y-15573900D02*
X31352400Y-15573900D01*
%TO.N,BANK2*%
X19638900Y-18977300D02*
X19638900Y-19101600D01*
X19638900Y-19101600D02*
X19338900Y-19401600D01*
X28368700Y-15021200D02*
X27331300Y-16058600D01*
X34397600Y-14972200D02*
X31103300Y-14972200D01*
X34688700Y-14681100D02*
X34397600Y-14972200D01*
X31103300Y-14972200D02*
X31054300Y-15021200D01*
X31054300Y-15021200D02*
X28368700Y-15021200D01*
X19338900Y-19401600D02*
X18749800Y-19401600D01*
X27331300Y-16058600D02*
X22557600Y-16058600D01*
X18749800Y-19401600D02*
X17096800Y-21054600D01*
X22557600Y-16058600D02*
X19638900Y-18977300D01*
%TO.N,BANK3*%
X51313400Y-12912900D02*
X48120300Y-9719800D01*
X51313400Y-14221500D02*
X51313400Y-12912900D01*
X48120300Y-9719800D02*
X22267300Y-9719800D01*
X42236700Y-23298200D02*
X51313400Y-14221500D01*
X22267300Y-9719800D02*
X13859100Y-18128000D01*
%TO.N,BANK4*%
X41493600Y-22496900D02*
X41195000Y-22496900D01*
X31753900Y-11528600D02*
X46627400Y-11528600D01*
X22480500Y-13170800D02*
X30111700Y-13170800D01*
X47438800Y-16551700D02*
X41493600Y-22496900D01*
X16970900Y-18680400D02*
X22480500Y-13170800D01*
X47438800Y-12340000D02*
X47438800Y-16551700D01*
X16970900Y-19904200D02*
X16970900Y-18680400D01*
X30111700Y-13170800D02*
X31753900Y-11528600D01*
X46627400Y-11528600D02*
X47438800Y-12340000D01*
%TO.N,BANK5*%
X33981200Y-14253100D02*
X33863800Y-14370500D01*
X30805200Y-14419500D02*
X23345900Y-14419500D01*
X33863800Y-14370500D02*
X30854200Y-14370500D01*
X30854200Y-14370500D02*
X30805200Y-14419500D01*
X23345900Y-14419500D02*
X18965500Y-18799900D01*
X18965500Y-18799900D02*
X17843600Y-18799900D01*
X17843600Y-18799900D02*
X17842100Y-18801400D01*
%TO.N,BANK6*%
X30706700Y-13667200D02*
X33213100Y-13667200D01*
X22825900Y-13817800D02*
X30556100Y-13817800D01*
X19719500Y-16924200D02*
X22825900Y-13817800D01*
X30556100Y-13817800D02*
X30706700Y-13667200D01*
%TO.N,FLASH_WE_N*%
X47662500Y-29032600D02*
X35816100Y-29032600D01*
X35816100Y-29032600D02*
X34816000Y-28032500D01*
%TO.N,FLASH_RYBY_N*%
X34309500Y-31016500D02*
X38929000Y-31016500D01*
X34205100Y-28653400D02*
X34205100Y-30912100D01*
X34205100Y-30912100D02*
X34309500Y-31016500D01*
X38929000Y-31016500D02*
X46308500Y-38396000D01*
X46308500Y-38396000D02*
X49912500Y-38396000D01*
%TO.N,A11*%
X26414200Y-41176500D02*
X27813100Y-42575400D01*
X25190000Y-48075400D02*
X25190000Y-55000000D01*
X45278800Y-13333700D02*
X40808100Y-13333700D01*
X36762800Y-17379000D02*
X32099700Y-17379000D01*
X45386200Y-13441100D02*
X45278800Y-13333700D01*
X32099700Y-17379000D02*
X31474600Y-18004100D01*
X27922300Y-20705600D02*
X27922300Y-25408300D01*
X27813100Y-42575400D02*
X27813100Y-45452300D01*
X31474600Y-18004100D02*
X30619300Y-18004100D01*
X28203500Y-20419900D02*
X28203500Y-20424400D01*
X30619300Y-18004100D02*
X28203500Y-20419900D01*
X28203500Y-20424400D02*
X27922300Y-20705600D01*
X40808100Y-13333700D02*
X36762800Y-17379000D01*
X28524000Y-26010000D02*
X28524000Y-28087400D01*
X27922300Y-25408300D02*
X28524000Y-26010000D01*
X27813100Y-45452300D02*
X25190000Y-48075400D01*
X28524000Y-28087400D02*
X26414200Y-30197200D01*
X26414200Y-30197200D02*
X26414200Y-41176500D01*
%TO.N,A10*%
X28414800Y-42326300D02*
X28414800Y-49413500D01*
X27015900Y-31032100D02*
X27015900Y-40927400D01*
X44746500Y-13935400D02*
X41057300Y-13935400D01*
X29125700Y-28922300D02*
X27015900Y-31032100D01*
X37012000Y-17980700D02*
X32348800Y-17980700D01*
X41057300Y-13935400D02*
X37012000Y-17980700D01*
X44876600Y-14065500D02*
X44746500Y-13935400D01*
X28524000Y-21410100D02*
X28524000Y-25159200D01*
X31723700Y-18605800D02*
X30868400Y-18605800D01*
X28805200Y-20669000D02*
X28805200Y-20673500D01*
X28805200Y-20673500D02*
X28686200Y-20792500D01*
X28686200Y-20792500D02*
X28686200Y-21247900D01*
X30868400Y-18605800D02*
X28805200Y-20669000D01*
X27730000Y-55000000D02*
X27730000Y-50098300D01*
X29125700Y-25760900D02*
X29125700Y-28922300D01*
X28686200Y-21247900D02*
X28524000Y-21410100D01*
X27015900Y-40927400D02*
X28414800Y-42326300D01*
X28524000Y-25159200D02*
X29125700Y-25760900D01*
X32348800Y-17980700D02*
X31723700Y-18605800D01*
X28414800Y-49413500D02*
X27730000Y-50098300D01*
%TO.N,A9*%
X30269900Y-43330600D02*
X30270000Y-43330600D01*
X30270000Y-55000000D02*
X30270000Y-50098300D01*
X27617600Y-40678300D02*
X30269900Y-43330600D01*
X32597900Y-18582400D02*
X31972800Y-19207500D01*
X27617600Y-31281300D02*
X27617600Y-40678300D01*
X30270000Y-43330600D02*
X30270000Y-50098300D01*
X29727400Y-25511800D02*
X29727400Y-29171500D01*
X42157100Y-14537100D02*
X38111800Y-18582400D01*
X29287900Y-21041600D02*
X29287900Y-21497000D01*
X31122000Y-19207500D02*
X29287900Y-21041600D01*
X38111800Y-18582400D02*
X32597900Y-18582400D01*
X44093300Y-14637200D02*
X43993200Y-14537100D01*
X29125700Y-21659200D02*
X29125700Y-24910100D01*
X31972800Y-19207500D02*
X31122000Y-19207500D01*
X29125700Y-24910100D02*
X29727400Y-25511800D01*
X43993200Y-14537100D02*
X42157100Y-14537100D01*
X29727400Y-29171500D02*
X27617600Y-31281300D01*
X29287900Y-21497000D02*
X29125700Y-21659200D01*
%TO.N,A8*%
X31484900Y-19809200D02*
X29889600Y-21404500D01*
X32221900Y-19809200D02*
X31484900Y-19809200D01*
X43111800Y-15840600D02*
X39768300Y-19184100D01*
X30329100Y-25262700D02*
X30329100Y-30006400D01*
X28219300Y-40429200D02*
X29335700Y-41545600D01*
X30329100Y-30006400D02*
X28219300Y-32116200D01*
X32810000Y-44919400D02*
X32810000Y-55000000D01*
X29727400Y-21908300D02*
X29727400Y-24661000D01*
X29335700Y-41545600D02*
X29436200Y-41545600D01*
X29727400Y-24661000D02*
X30329100Y-25262700D01*
X29889600Y-21746100D02*
X29727400Y-21908300D01*
X43233700Y-15840600D02*
X43111800Y-15840600D01*
X29889600Y-21404500D02*
X29889600Y-21746100D01*
X28219300Y-32116200D02*
X28219300Y-40429200D01*
X32847000Y-19184100D02*
X32221900Y-19809200D01*
X29436200Y-41545600D02*
X32810000Y-44919400D01*
X39768300Y-19184100D02*
X32847000Y-19184100D01*
%TO.N,A7*%
X30491300Y-21739000D02*
X30491300Y-21995200D01*
X28821000Y-34331700D02*
X28821000Y-40180100D01*
X40027400Y-19785800D02*
X33096100Y-19785800D01*
X30930800Y-25013600D02*
X30930800Y-32221900D01*
X43524300Y-16542300D02*
X43270900Y-16542300D01*
X33096100Y-19785800D02*
X32471000Y-20410900D01*
X32471000Y-20410900D02*
X31819400Y-20410900D01*
X29689000Y-40943900D02*
X35349900Y-46604800D01*
X30930800Y-32221900D02*
X28821000Y-34331700D01*
X43270900Y-16542300D02*
X40027400Y-19785800D01*
X35349900Y-50098300D02*
X35350000Y-50098300D01*
X35350000Y-55000000D02*
X35350000Y-50098300D01*
X42465000Y-15238900D02*
X42565100Y-15138800D01*
X43602700Y-15138800D02*
X43935400Y-15471500D01*
X30329100Y-24411900D02*
X30930800Y-25013600D01*
X30329100Y-22157400D02*
X30329100Y-24411900D01*
X30491300Y-21995200D02*
X30329100Y-22157400D01*
X43935400Y-16131200D02*
X43524300Y-16542300D01*
X43935400Y-15471500D02*
X43935400Y-16131200D01*
X28821000Y-40180100D02*
X29584800Y-40943900D01*
X31819400Y-20410900D02*
X30491300Y-21739000D01*
X29584800Y-40943900D02*
X29689000Y-40943900D01*
X35349900Y-46604800D02*
X35349900Y-50098300D01*
X42565100Y-15138800D02*
X43602700Y-15138800D01*
%TO.N,A6*%
X30930800Y-24162800D02*
X31532500Y-24764500D01*
X43331100Y-17602900D02*
X40546500Y-20387500D01*
X32097000Y-21012600D02*
X31093000Y-22016600D01*
X31093000Y-22244300D02*
X30930800Y-22406500D01*
X29422700Y-36086100D02*
X29422700Y-39931000D01*
X31532500Y-33976300D02*
X29422700Y-36086100D01*
X31532500Y-24764500D02*
X31532500Y-33976300D01*
X29422700Y-39931000D02*
X29833900Y-40342200D01*
X37890000Y-48293900D02*
X37890000Y-55000000D01*
X32720100Y-21012600D02*
X32097000Y-21012600D01*
X29938300Y-40342200D02*
X37890000Y-48293900D01*
X30930800Y-22406500D02*
X30930800Y-24162800D01*
X33345200Y-20387500D02*
X32720100Y-21012600D01*
X29833900Y-40342200D02*
X29938300Y-40342200D01*
X40546500Y-20387500D02*
X33345200Y-20387500D01*
X31093000Y-22016600D02*
X31093000Y-22244300D01*
%TO.N,A5*%
X40430000Y-50098300D02*
X40805000Y-50098300D01*
X44571400Y-33079700D02*
X51105400Y-33079700D01*
X40430000Y-55000000D02*
X40430000Y-50098300D01*
X40805000Y-50098300D02*
X44571300Y-46332000D01*
%TO.N,A4*%
X42970000Y-50098300D02*
X44403500Y-50098300D01*
X44403500Y-50098300D02*
X44539200Y-49962600D01*
X42970000Y-55000000D02*
X42970000Y-50098300D01*
%TO.N,A3*%
X32897200Y-24521900D02*
X34524700Y-22894400D01*
X45510000Y-55000000D02*
X45510000Y-50098300D01*
X32897200Y-32814700D02*
X32897200Y-24521900D01*
X34524700Y-22894400D02*
X35012900Y-22894400D01*
X32897300Y-32814700D02*
X32897200Y-32814700D01*
X45510000Y-50098300D02*
X46111700Y-49496600D01*
X46111700Y-49496600D02*
X46111700Y-46029100D01*
X46111700Y-46029100D02*
X32897300Y-32814700D01*
%TO.N,A2*%
X48050000Y-50098300D02*
X48613700Y-50098300D01*
X33675100Y-12130300D02*
X46264400Y-12130300D01*
X46713000Y-12578900D02*
X46713000Y-12804300D01*
X48050000Y-55000000D02*
X48050000Y-50098300D01*
X33575000Y-12230400D02*
X33675100Y-12130300D01*
X46264400Y-12130300D02*
X46713000Y-12578900D01*
X48613700Y-50098300D02*
X49609300Y-49102700D01*
%TO.N,A1*%
X50590000Y-50098300D02*
X50590000Y-49046000D01*
X50590000Y-55000000D02*
X50590000Y-50098300D01*
X50590000Y-49046000D02*
X33498900Y-31954900D01*
X33498900Y-31954900D02*
X33498900Y-24914700D01*
X33498900Y-24914700D02*
X34643200Y-23770400D01*
%TO.N,A0*%
X36269800Y-22182800D02*
X42289800Y-28202800D01*
X31532500Y-23255400D02*
X31953200Y-23676100D01*
X32241200Y-21912900D02*
X31694700Y-22459400D01*
X31694700Y-22459400D02*
X31694700Y-22493400D01*
X34285000Y-22182800D02*
X36269800Y-22182800D01*
X52142300Y-28202800D02*
X55213500Y-31274000D01*
X32791700Y-23676100D02*
X34285000Y-22182800D01*
X42289800Y-28202800D02*
X52142300Y-28202800D01*
X31694700Y-22493400D02*
X31532500Y-22655600D01*
X53130000Y-50098300D02*
X54400000Y-50098300D01*
X31532500Y-22655600D02*
X31532500Y-23255400D01*
X31953200Y-23676100D02*
X32791700Y-23676100D01*
X53130000Y-55000000D02*
X53130000Y-50098300D01*
%TO.N,A12*%
X25812500Y-29685900D02*
X25812500Y-41425600D01*
X22650000Y-47415300D02*
X22650000Y-50098300D01*
X27664300Y-27834100D02*
X25812500Y-29685900D01*
X25812500Y-41425600D02*
X26768500Y-42381600D01*
X22650000Y-55000000D02*
X22650000Y-50098300D01*
X26768500Y-42381600D02*
X26768500Y-43296800D01*
X26768500Y-43296800D02*
X22650000Y-47415300D01*
%TO.N,ROML_N*%
X45510000Y-47405700D02*
X45510000Y-46278200D01*
X40947800Y-43212100D02*
X35996300Y-38260600D01*
X35996300Y-38260600D02*
X30869700Y-38260600D01*
X42443900Y-43212100D02*
X40947800Y-43212100D01*
X45510000Y-46278200D02*
X42443900Y-43212100D01*
X45381000Y-47534700D02*
X45510000Y-47405700D01*
%TD*%
M02*
